<svg xmlns="http://www.w3.org/2000/svg" width="33" height="50" viewBox="0 0 33 50" fill="none">
  <path d="M26.1102 49.4818H6.47694L4.4529 35.3135H0V31.2654H14.1683V24.9909C10.3226 25.5981 6.47694 24.5861 3.64328 22.1572C0.202405 19.1212 -0.809617 14.6683 0.809618 10.6202L1.21443 9.81058L2.02404 9.60817C6.07213 8.19134 10.9298 9.00096 14.1683 11.4298C14.1683 8.59615 15.3827 5.76249 17.8116 3.73845C20.038 1.91681 23.0741 0.904785 25.9078 0.904785C27.3246 0.904785 28.9438 1.10719 30.3607 1.512L31.1703 1.7144L31.5751 2.52402C33.3967 6.57211 32.3847 11.025 28.7414 14.0611C25.9078 16.4899 22.0621 17.5019 18.2164 16.8947V19.1212C18.2164 19.3236 18.2164 19.7284 18.2164 19.9308V31.2654H32.3847V35.3135H28.1342L26.1102 49.4818ZM9.91781 45.4337H22.6693L24.0861 35.3135H8.50098L9.91781 45.4337ZM4.25049 13.2515C3.64328 15.2755 4.4529 17.5019 6.27453 19.1212C8.29858 20.9428 11.3346 21.55 13.9659 20.9428C14.1683 20.538 14.1683 20.1332 14.1683 19.7284V19.1212C14.1683 17.5019 13.3587 16.0851 11.9419 14.8707C9.91781 13.2515 7.08415 12.6442 4.25049 13.2515ZM18.4188 12.8466C21.2525 13.4539 24.0861 12.8466 26.1102 11.025C27.9318 9.40577 28.7414 7.17932 28.1342 5.15528C25.3005 4.54806 22.4669 5.15528 20.4428 6.97692C18.6212 8.39375 17.8116 10.6202 18.4188 12.8466Z" fill="white"/>
</svg>