<svg width="74" height="41" viewBox="0 0 74 41" fill="none" xmlns="http://www.w3.org/2000/svg">
<g id="Group">
<g id="Group_2">
<path id="Vector" d="M72.9614 20.3587L69.1419 16.5114C68.9371 14.8719 67.8716 9.4256 62.5991 6.24551C62.5754 6.23105 62.551 6.21902 62.5265 6.20656C62.1822 5.20089 61.8462 4.35014 61.8231 4.29172C61.6895 3.95426 61.4089 3.69654 61.0616 3.59188C60.7144 3.48722 60.338 3.54735 60.0401 3.75467C59.9489 3.81838 59.528 4.11719 59.0124 4.56533C57.6213 3.89326 53.6104 2.13835 48.1979 1.32983C47.8682 0.991079 47.473 0.710167 47.0163 0.495689C45.6034 -0.167074 43.002 -0.349482 39.9379 1.12566C39.8325 1.17649 39.7293 1.23935 39.6269 1.30793C32.6047 -0.0476657 26.2902 -0.165786 20.8575 0.960439C16.2094 1.92416 12.1681 3.79877 8.84615 6.53229C1.57408 12.5168 0 20.7457 0 22.4619C0 25.1998 1.56979 27.0837 2.37701 27.8716C0.978038 34.59 1.25451 38.8021 1.26983 39.0139C1.31479 39.6348 1.83151 40.1156 2.45433 40.1156H10.0541C10.7099 40.1156 11.2416 39.5841 11.2416 38.9281C11.2416 37.7526 10.8996 36.8944 10.4648 36.3001C11.3061 35.3452 12.7091 33.7159 14.1918 31.8363C14.4965 33.9373 15.1602 36.8205 16.6103 39.4942C16.8179 39.8771 17.2187 40.1154 17.6542 40.1154H26.5207C26.8484 40.1154 27.1617 39.9801 27.3861 39.741C27.6106 39.5021 27.7261 39.1812 27.7058 38.8539C27.6985 38.7391 27.6242 37.7015 27.2306 36.6212C26.7024 35.1726 25.9055 34.4893 25.1748 34.1795V30.0205C27.6492 29.9799 30.243 29.6918 32.5516 28.9749C32.7172 34.2299 34.1699 39.0103 34.2525 39.2782C34.4061 39.776 34.8663 40.1154 35.3872 40.1154H44.2537C44.8904 40.1154 45.4135 39.6133 45.4402 38.9773C45.447 38.8133 45.4767 37.3441 44.4366 36.2599C44.1347 35.9452 43.6676 35.5909 42.9846 35.384C43.2348 33.7879 44.0657 31.3167 45.2559 28.6918C45.4374 28.2914 45.6229 27.8985 45.8107 27.5129C47.4217 30.6995 50.7626 36.6834 54.3895 39.4812C54.9279 39.8962 55.5952 40.1157 56.3193 40.1157H63.2525C63.5716 40.1157 63.8776 39.9872 64.1008 39.7592C64.3241 39.5313 64.4463 39.2226 64.4397 38.9036C64.4099 37.4727 63.4658 35.3694 61.0076 35.2164C60.1755 34.3032 58.4167 29.7903 57.0838 25.5964C58.4227 25.7484 59.6073 25.9295 60.4151 26.1434C64.0656 27.1097 68.0572 27.4327 68.2254 27.4461C68.2568 27.4486 68.288 27.4496 68.319 27.4496C68.691 27.4496 69.0435 27.275 69.2689 26.9746L73.0688 21.908C73.4224 21.4364 73.3767 20.7769 72.9614 20.3587ZM59.2041 7.87328C59.4407 7.47926 59.8106 7.07006 60.1873 6.70969C60.3773 7.25146 60.5778 7.8581 60.7254 8.39373C60.4084 8.64686 59.7817 9.01025 59.0525 9.36976C58.9925 8.78675 59.0096 8.19772 59.2041 7.87328ZM7.91078 35.5937C7.62972 35.9009 7.47109 36.3144 7.58949 36.7136C7.70504 37.1036 7.95545 37.3888 8.3426 37.4992C8.38928 37.5285 8.48363 37.5991 8.57941 37.7406H3.61477C3.61735 37.0439 3.64685 36.0341 3.7538 34.7587C3.9531 32.3818 4.46982 28.57 5.79893 23.9087C5.90373 23.5415 6.17849 23.2314 6.534 23.0796C7.86668 22.5106 10.5119 21.6998 12.989 21.2508C16.6427 20.5891 17.5905 21.1012 17.7327 21.2009C17.7248 23.8668 11.7057 31.442 7.91078 35.5937ZM18.3787 37.7407C16.6846 34.2518 16.3765 30.4141 16.3205 29.1921C17.7363 29.5151 20.1008 29.8735 22.7995 29.9884V35.1283C22.7995 35.7842 23.3312 36.3158 23.9871 36.3158C24.54 36.3158 24.8914 37.0323 25.097 37.7407H18.3787ZM33.6643 19.8878C33.4118 21.1999 33.1734 22.4389 32.9568 23.4887C32.7575 24.4548 32.6376 25.4545 32.5789 26.46C27.7691 28.2483 20.9619 27.66 17.6582 27.044C20.1053 23.2322 20.1075 21.764 20.1075 21.1954C20.1075 20.374 19.7235 19.668 19.0264 19.2074C16.1978 17.3397 7.74183 19.9817 5.60135 20.8953C4.57907 21.3317 3.81837 22.1926 3.51484 23.2574C3.35319 23.8244 3.20343 24.3789 3.0634 24.9214C2.68957 24.2779 2.37472 23.4444 2.37472 22.4618C2.37472 21.2235 3.76196 13.7916 10.3549 8.36624C16.8573 3.01588 26.1409 1.35446 37.9606 3.41634C36.3327 6.56021 35.0947 12.4549 33.6643 19.8878ZM40.5327 36.4321C40.5527 37.0732 41.0783 37.5825 41.7196 37.5825C42.0483 37.5825 42.3079 37.6346 42.5052 37.7409H36.288C35.6916 35.4762 34.2319 29.0628 35.283 23.9687C35.5027 22.9035 35.7427 21.6567 35.9967 20.3368C36.6533 16.9246 37.4705 12.6781 38.396 9.26395C39.8083 4.05405 40.7865 3.35349 40.9682 3.26601C42.8163 2.37617 44.8891 2.12146 46.008 2.64634C46.4848 2.87013 46.7684 3.22091 46.901 3.7508C47.0309 4.2701 47.2495 4.97525 47.5028 5.79192C48.5996 9.32838 50.8822 16.6871 48.4799 19.0891C44.9409 22.6277 40.4104 32.5149 40.5327 36.4321ZM60.7191 37.5822C61.0458 37.5822 61.2758 37.6449 61.4443 37.7406H56.3186C56.1267 37.7406 55.9565 37.6908 55.8394 37.6003C51.923 34.5794 48.1312 26.9132 47.1932 24.9306C48.3283 24.9721 51.467 25.101 54.5196 25.35C54.5765 25.5367 55.4253 28.2982 56.4805 31.1118C58.52 36.5512 59.5438 37.5822 60.7191 37.5822ZM67.7681 25.0169C66.5133 24.8876 63.6359 24.5387 61.0229 23.8472C58.2473 23.1124 51.8182 22.7506 48.6463 22.6116C49.1712 21.8708 49.6818 21.2454 50.1588 20.7682C53.5746 17.3524 51.1936 9.67501 49.7708 5.08793C49.6418 4.67186 49.5226 4.28729 49.4218 3.94882C53.0428 4.65239 55.868 5.75842 57.325 6.40486C57.2701 6.48619 57.2173 6.56837 57.1675 6.65141C56.151 8.34548 56.895 10.9237 57.0543 11.4233C57.155 11.7388 57.3829 11.9979 57.6828 12.1381C57.8418 12.2125 58.0136 12.2499 58.1856 12.2499C58.3378 12.2499 58.4903 12.2205 58.634 12.1618C58.6773 12.1442 59.7053 11.7236 60.7238 11.1798C61.6658 10.6771 62.5433 10.1232 62.9491 9.44035C64.6897 10.9832 65.6531 12.8508 66.1823 14.3585C66.1828 14.3897 66.1837 14.421 66.1869 14.4525C66.2383 14.9661 65.5331 16.3745 64.8688 17.3163C64.4899 17.8517 64.6168 18.5926 65.152 18.9716C65.3603 19.1191 65.5997 19.1899 65.8371 19.1899C66.2093 19.1899 66.576 19.0153 66.8072 18.6884C66.9148 18.5366 67.0797 18.2948 67.2663 17.9934L70.5527 21.3037L67.7681 25.0169Z" fill="white"/>
</g>
</g>
</svg>
