<svg width="41" height="41" viewBox="0 0 41 41" fill="none" xmlns="http://www.w3.org/2000/svg">
<g id="Bitcoin_x2C__BTC">
<g id="XMLID_91_">
<path id="Bitcoin_x2C__BTC_x2C__cryptocurrency_2_" d="M19.9358 32.5775L20.7109 29.4238C24.466 30.132 27.2856 29.8514 28.4749 26.4571C29.4371 23.731 28.4349 22.1541 26.4571 21.1252C27.9003 20.7911 28.9827 19.8423 29.2634 17.8913C29.6643 15.2186 27.6331 13.7887 24.8535 12.8266L25.6018 9.81982M15.9803 31.5886L16.742 28.4616C17.3433 28.622 17.9313 28.769 18.4926 28.916M18.6796 11.2898C18.1986 11.1829 14.243 10.194 14.243 10.194L13.655 12.5459C13.655 12.5459 15.2854 12.9201 15.2586 12.9468C16.154 13.174 16.3143 13.762 16.2876 14.2297L13.8154 24.1319C13.7085 24.3992 13.4279 24.8134 12.8132 24.6531C12.8399 24.6798 11.2096 24.2522 11.2096 24.2522L10.1138 26.7778C10.1138 26.7778 14.0292 27.7667 14.5504 27.9004M22.6619 12.1851C22.0873 12.0381 21.4859 11.9045 20.898 11.7709L21.6196 8.83093M18.6529 20.9782C20.1496 21.3523 24.9203 22.0873 24.2121 24.9337C23.5305 27.6598 18.9335 26.1899 17.4369 25.8157L18.105 23.1297M20.31 14.3767C21.5528 14.6841 25.5484 15.2587 24.9069 17.8512C24.2922 20.3367 20.457 19.0672 19.2142 18.7599L19.7754 16.5148" stroke="white" stroke-width="2" stroke-miterlimit="10" stroke-linecap="round" stroke-linejoin="round"/>
<path id="XMLID_173_" d="M20.3768 39.7536C31.0783 39.7536 39.7536 31.0783 39.7536 20.3768C39.7536 9.67528 31.0783 1 20.3768 1C9.67528 1 1 9.67528 1 20.3768C1 31.0783 9.67528 39.7536 20.3768 39.7536Z" stroke="white" stroke-width="2" stroke-miterlimit="10" stroke-linecap="round" stroke-linejoin="round"/>
</g>
</g>
</svg>
