<svg width="34" height="33" viewBox="0 0 34 33" fill="none" xmlns="http://www.w3.org/2000/svg">
<g id="bitcoin-svgrepo-com (2) 1" clip-path="url(#clip0_3765_1614)">
<path id="Vector" fill-rule="evenodd" clip-rule="evenodd" d="M32.6335 16.1226C32.6335 24.597 25.7639 31.4669 17.29 31.4669C8.8159 31.4669 1.94635 24.597 1.94635 16.1226C1.94635 7.64809 8.8159 0.778198 17.29 0.778198C25.7639 0.778198 32.6335 7.64809 32.6335 16.1226ZM20.9761 10.4216C23.1106 11.1546 24.6718 12.252 24.3655 14.2946C24.1431 15.7903 23.3108 16.5137 22.2052 16.7669C23.7221 17.5537 24.2391 19.0467 23.7587 20.852C22.8467 23.45 20.6786 23.6687 17.7949 23.1257L17.0947 25.9184L15.4043 25.4982L16.0949 22.7429C15.6567 22.6345 15.2088 22.5184 14.7474 22.3946L14.054 25.1634L12.3656 24.7432L13.0648 21.9447L9.66007 21.0889L10.4999 19.1606C10.4999 19.1606 11.7462 19.4896 11.7289 19.4657C12.2076 19.5836 12.4204 19.2728 12.5043 19.0666L14.4017 11.4865C14.4228 11.1286 14.2986 10.6778 13.6138 10.507C13.6398 10.4887 12.3858 10.2028 12.3858 10.2028L12.8356 8.404L16.2451 9.24537L16.9386 6.47852L18.628 6.89872L17.949 9.6109C18.4036 9.71355 18.8602 9.81812 19.3042 9.92846L19.9784 7.23355L21.6687 7.65376L20.9761 10.4216ZM16.9316 15.0371C18.083 15.3424 20.5886 16.0067 21.0253 14.2649C21.4708 12.4828 19.0366 11.9447 17.8448 11.6811C17.7098 11.6513 17.5905 11.6249 17.4934 11.6007L16.6516 14.9643C16.7318 14.9841 16.826 15.0091 16.9316 15.0371ZM15.627 20.4526C17.0061 20.8159 20.0223 21.6104 20.5023 19.6911C20.9935 17.7287 18.0691 17.0751 16.6422 16.7561C16.483 16.7206 16.342 16.6891 16.2269 16.6604L15.2983 20.3675C15.3926 20.3908 15.5035 20.42 15.627 20.4526Z" fill="#F7931A"/>
</g>
<defs>
<clipPath id="clip0_3765_1614">
<rect width="32.3456" height="32.3456" fill="white" transform="translate(0.997803 0.30249)"/>
</clipPath>
</defs>
</svg>
