<svg width="53" height="52" viewBox="0 0 53 52" fill="none" xmlns="http://www.w3.org/2000/svg">
<path d="M22.5774 48.5276L3.71039 29.6607C2.73691 28.6815 2.19049 27.3569 2.19049 25.9762C2.19049 24.5954 2.73691 23.2708 3.71039 22.2917L22.5774 3.42468C23.5565 2.4512 24.8811 1.90479 26.2619 1.90479C27.6426 1.90479 28.9672 2.4512 29.9464 3.42468L48.8134 22.2917C49.7868 23.2708 50.3332 24.5954 50.3332 25.9762C50.3332 27.3569 49.7868 28.6815 48.8134 29.6607L29.9464 48.5276C29.4625 49.0115 28.8881 49.3953 28.2559 49.6572C27.6237 49.9191 26.9461 50.0539 26.2619 50.0539C25.5776 50.0539 24.9 49.9191 24.2678 49.6572C23.6356 49.3953 23.0612 49.0115 22.5774 48.5276Z" stroke="white" stroke-width="3.80952" stroke-linecap="round" stroke-linejoin="round"/>
<path d="M26.262 50.0532V25.9761" stroke="white" stroke-width="3.80952" stroke-linecap="round" stroke-linejoin="round"/>
<path d="M8.22565 17.7769L26.262 25.9761" stroke="white" stroke-width="3.80952" stroke-linecap="round" stroke-linejoin="round"/>
<path d="M44.2984 17.7769L26.262 25.9761" stroke="white" stroke-width="3.80952" stroke-linecap="round" stroke-linejoin="round"/>
</svg>
