<svg width="32" height="32" viewBox="0 0 32 32" fill="none" xmlns="http://www.w3.org/2000/svg">
<path d="M13.8457 29.8414L2.44243 18.4381C1.85406 17.8463 1.5238 17.0457 1.5238 16.2112C1.5238 15.3767 1.85406 14.5761 2.44243 13.9843L13.8457 2.58098C14.4375 1.99261 15.2381 1.66235 16.0726 1.66235C16.9071 1.66235 17.7077 1.99261 18.2995 2.58098L29.7028 13.9843C30.2912 14.5761 30.6214 15.3767 30.6214 16.2112C30.6214 17.0457 30.2912 17.8463 29.7028 18.4381L18.2995 29.8414C18.0071 30.1338 17.6599 30.3658 17.2778 30.5241C16.8957 30.6823 16.4862 30.7638 16.0726 30.7638C15.659 30.7638 15.2495 30.6823 14.8674 30.5241C14.4853 30.3658 14.1381 30.1338 13.8457 29.8414Z" stroke="#041D04" stroke-width="1.90476" stroke-linecap="round" stroke-linejoin="round"/>
<path d="M16.0726 30.7635V16.2112" stroke="#041D04" stroke-width="1.90476" stroke-linecap="round" stroke-linejoin="round"/>
<path d="M5.17151 11.2559L16.0728 16.2115" stroke="#041D04" stroke-width="1.90476" stroke-linecap="round" stroke-linejoin="round"/>
<path d="M26.9739 11.2559L16.0726 16.2115" stroke="#041D04" stroke-width="1.90476" stroke-linecap="round" stroke-linejoin="round"/>
</svg>
