<svg width="42" height="42" viewBox="0 0 42 42" fill="none" xmlns="http://www.w3.org/2000/svg">
<g clip-path="url(#clip0_3239_1670)">
<path d="M21 42C32.598 42 42 32.598 42 21C42 9.40202 32.598 0 21 0C9.40202 0 0 9.40202 0 21C0 32.598 9.40202 42 21 42Z" fill="#0052FF"/>
<path d="M21.1764 14.8407C23.6488 14.8407 25.6102 16.3656 26.355 18.6334H31.3359C30.4336 13.7849 26.4333 10.5 21.2162 10.5C15.2914 10.5 10.6641 14.9974 10.6641 21.0201C10.6641 27.0428 15.1758 31.5 21.2162 31.5C26.3164 31.5 30.3963 28.2151 31.2994 23.3264H26.3546C25.6483 25.5946 23.6886 27.1593 21.2145 27.1593C17.8008 27.1593 15.4083 24.5388 15.4083 21.0201C15.41 17.4612 17.7639 14.8407 21.1764 14.8407Z" fill="white"/>
</g>
<defs>
<clipPath id="clip0_3239_1670">
<rect width="42" height="42" fill="white"/>
</clipPath>
</defs>
</svg>
