<svg width="55" height="31" viewBox="0 0 55 31" fill="none" xmlns="http://www.w3.org/2000/svg">
<path d="M54.2673 15.7016L51.4458 12.8595C51.2945 11.6484 50.5074 7.62517 46.6126 5.276C46.595 5.26531 46.577 5.25643 46.559 5.24723C46.3046 4.50432 46.0564 3.87586 46.0393 3.83271C45.9406 3.58342 45.7333 3.39304 45.4768 3.31572C45.2203 3.23841 44.9422 3.28283 44.7222 3.43598C44.6548 3.48304 44.3439 3.70378 43.963 4.03483C42.9354 3.53836 39.9725 2.24198 35.9742 1.64472C35.7306 1.39448 35.4387 1.18696 35.1013 1.02853C34.0576 0.538934 32.1359 0.404187 29.8724 1.4939C29.7946 1.53144 29.7183 1.57788 29.6427 1.62854C24.4553 0.627142 19.7907 0.539885 15.7775 1.37184C12.3439 2.08376 9.35851 3.46855 6.90452 5.48784C1.53255 9.90866 0.369751 15.9875 0.369751 17.2553C0.369751 19.2778 1.52937 20.6694 2.12568 21.2515C1.09224 26.2144 1.29648 29.326 1.30779 29.4824C1.341 29.9411 1.72271 30.2963 2.1828 30.2963H7.79687C8.28128 30.2963 8.6741 29.9037 8.6741 29.4191C8.6741 28.5507 8.42142 27.9168 8.10021 27.4777C8.72169 26.7724 9.7581 25.5687 10.8534 24.1802C11.0785 25.7323 11.5688 27.8622 12.64 29.8373C12.7934 30.1201 13.0894 30.2962 13.4112 30.2962H19.9609C20.203 30.2962 20.4345 30.1962 20.6002 30.0196C20.766 29.8431 20.8514 29.6061 20.8364 29.3643C20.831 29.2794 20.7761 28.513 20.4853 27.715C20.0952 26.6448 19.5065 26.1401 18.9667 25.9112V22.8389C20.7946 22.8089 22.7107 22.5961 24.416 22.0665C24.5384 25.9484 25.6115 29.4798 25.6725 29.6777C25.786 30.0454 26.126 30.2962 26.5107 30.2962H33.0605C33.5309 30.2962 33.9173 29.9253 33.937 29.4554C33.9421 29.3342 33.964 28.249 33.1957 27.448C32.9726 27.2155 32.6276 26.9539 32.123 26.801C32.3079 25.6219 32.9217 23.7964 33.8009 21.8574C33.935 21.5616 34.072 21.2714 34.2107 20.9865C35.4008 23.3405 37.8688 27.7609 40.548 29.8276C40.9457 30.1343 41.4387 30.2964 41.9736 30.2964H47.0952C47.3309 30.2964 47.557 30.2014 47.7219 30.033C47.8868 29.8647 47.9771 29.6366 47.9722 29.401C47.9502 28.3439 47.2528 26.7902 45.4369 26.6772C44.8222 26.0026 43.5229 22.6688 42.5384 19.5707C43.5274 19.6831 44.4025 19.8169 44.9992 19.9749C47.6958 20.6887 50.6445 20.9273 50.7688 20.9371C50.7919 20.939 50.815 20.9398 50.8379 20.9398C51.1127 20.9398 51.3731 20.8107 51.5396 20.5888L54.3466 16.8461C54.6079 16.4977 54.5741 16.0105 54.2673 15.7016ZM44.1046 6.47845C44.2794 6.18738 44.5527 5.8851 44.8309 5.61889C44.9713 6.01911 45.1194 6.46724 45.2284 6.86291C44.9942 7.04991 44.5313 7.31834 43.9926 7.58392C43.9483 7.15324 43.9609 6.71812 44.1046 6.47845ZM6.21355 26.9559C6.00593 27.1828 5.88874 27.4883 5.97621 27.7832C6.06156 28.0713 6.24655 28.282 6.53254 28.3635C6.56702 28.3852 6.63672 28.4373 6.70748 28.5418H3.04003C3.04194 28.0272 3.06372 27.2812 3.14273 26.339C3.28996 24.5832 3.67167 21.7674 4.6535 18.3241C4.73092 18.0528 4.93388 17.8237 5.1965 17.7116C6.18097 17.2913 8.13501 16.6923 9.96487 16.3606C12.6639 15.8718 13.3641 16.2501 13.4691 16.3237C13.4633 18.2931 9.01689 23.889 6.21355 26.9559ZM13.9463 28.5419C12.6949 25.9646 12.4673 23.1297 12.4259 22.2269C13.4718 22.4656 15.2185 22.7303 17.2121 22.8152V26.6121C17.2121 27.0966 17.6048 27.4894 18.0893 27.4894C18.4978 27.4894 18.7573 28.0186 18.9092 28.5419H13.9463ZM25.2381 15.3537C25.0515 16.323 24.8754 17.2383 24.7154 18.0138C24.5681 18.7275 24.4796 19.4659 24.4362 20.2087C20.8831 21.5297 15.8546 21.0951 13.4141 20.6401C15.2218 17.8243 15.2235 16.7397 15.2235 16.3197C15.2235 15.7129 14.9398 15.1914 14.4248 14.8511C12.3353 13.4714 6.08875 15.4231 4.50754 16.098C3.75237 16.4204 3.19043 17.0564 2.96621 17.8429C2.8468 18.2618 2.73617 18.6714 2.63273 19.0722C2.35657 18.5967 2.12399 17.9811 2.12399 17.2552C2.12399 16.3404 3.14876 10.8504 8.01909 6.84261C12.8225 2.89022 19.6803 1.66291 28.4118 3.18605C27.2092 5.50847 26.2947 9.86297 25.2381 15.3537ZM30.3118 27.5752C30.3266 28.0489 30.7148 28.4251 31.1886 28.4251C31.4314 28.4251 31.6232 28.4636 31.7689 28.542H27.1762C26.7356 26.8691 25.6573 22.1314 26.4337 18.3684C26.5961 17.5815 26.7734 16.6605 26.961 15.6854C27.446 13.1648 28.0497 10.0279 28.7334 7.50576C29.7767 3.65714 30.4993 3.13962 30.6335 3.075C31.9987 2.41766 33.5299 2.2295 34.3565 2.61724C34.7087 2.78255 34.9182 3.04168 35.0161 3.43312C35.1121 3.81674 35.2736 4.33764 35.4607 4.94093C36.271 7.55335 37.9571 12.9893 36.1825 14.7638C33.5682 17.3778 30.2214 24.6816 30.3118 27.5752ZM45.2238 28.4249C45.4651 28.4249 45.635 28.4712 45.7595 28.5418H41.973C41.8313 28.5418 41.7055 28.505 41.619 28.4382C38.726 26.2066 35.9249 20.5435 35.232 19.0789C36.0705 19.1096 38.3891 19.2048 40.6441 19.3887C40.6862 19.5266 41.3132 21.5667 42.0927 23.6451C43.5993 27.6632 44.3555 28.4249 45.2238 28.4249ZM50.431 19.1427C49.504 19.0472 47.3784 18.7894 45.4482 18.2786C43.3978 17.7358 38.6486 17.4685 36.3054 17.3658C36.6932 16.8186 37.0703 16.3566 37.4228 16.0041C39.946 13.4808 38.1871 7.80942 37.1361 4.42087C37.0408 4.11352 36.9527 3.82943 36.8783 3.5794C39.5532 4.09913 41.6402 4.91618 42.7165 5.39371C42.676 5.45379 42.6369 5.5145 42.6001 5.57584C41.8493 6.82727 42.3988 8.7318 42.5166 9.10093C42.5909 9.33393 42.7593 9.52537 42.9808 9.62891C43.0983 9.68391 43.2252 9.71152 43.3522 9.71152C43.4647 9.71152 43.5773 9.68983 43.6835 9.64647C43.7154 9.63346 44.4748 9.32272 45.2272 8.92102C45.9231 8.54967 46.5713 8.14046 46.8711 7.63606C48.1569 8.7758 48.8686 10.1554 49.2595 11.2691C49.2599 11.2922 49.2605 11.3154 49.2629 11.3386C49.3008 11.718 48.7799 12.7584 48.2892 13.4542C48.0093 13.8496 48.103 14.397 48.4984 14.6769C48.6523 14.7859 48.8291 14.8382 49.0045 14.8382C49.2795 14.8382 49.5503 14.7092 49.7212 14.4677C49.8006 14.3556 49.9224 14.177 50.0602 13.9543L52.488 16.3996L50.431 19.1427Z" fill="#041D04"/>
</svg>
