<svg width="42" height="41" viewBox="0 0 42 41" fill="none" xmlns="http://www.w3.org/2000/svg">
<path d="M21.1781 39.7536C31.8796 39.7536 40.5548 31.0783 40.5548 20.3768C40.5548 9.67528 31.8796 1 21.1781 1C10.4766 1 1.80127 9.67528 1.80127 20.3768C1.80127 31.0783 10.4766 39.7536 21.1781 39.7536Z" stroke="white" stroke-width="2" stroke-miterlimit="10" stroke-linecap="round" stroke-linejoin="round"/>
<path d="M27.4724 15.0582L21.1783 6.34534L14.8842 15.0582L11.9844 28.6086L21.1783 34.4083L30.3723 28.6086L27.4724 15.0582Z" stroke="white" stroke-width="2" stroke-miterlimit="10" stroke-linecap="round" stroke-linejoin="round"/>
<path d="M11.9844 28.6085L21.1783 13.1204L30.3723 28.6085" stroke="white" stroke-width="2" stroke-miterlimit="10" stroke-linecap="round" stroke-linejoin="round"/>
<path d="M21.1782 13.1205V6.34534" stroke="white" stroke-width="2" stroke-miterlimit="10" stroke-linecap="round" stroke-linejoin="round"/>
<path d="M11.9844 28.6085H30.3723" stroke="white" stroke-width="2" stroke-miterlimit="10" stroke-linecap="round" stroke-linejoin="round"/>
<path d="M27.4725 15.058L21.1784 34.4081L14.8843 15.058" stroke="white" stroke-width="2" stroke-miterlimit="10" stroke-linecap="round" stroke-linejoin="round"/>
</svg>
