<svg xmlns="http://www.w3.org/2000/svg" width="29" height="29" viewBox="0 0 29 29" fill="none">
  <path d="M9.37692 19.2713C9.77024 19.161 10.1718 19.0827 10.5777 19.0371C9.47299 19.1812 9.37692 19.3373 9.37692 19.2713ZM28.476 17.6081C28.476 18.6168 28.6201 18.2086 20.8628 25.9659C19.9627 26.865 18.7427 27.3703 17.4705 27.3709H6.86121V21.6549C6.98363 21.6546 7.10305 21.6169 7.20344 21.5469C9.76119 19.7456 11.9647 20.1659 18.4791 20.1659C18.7905 20.1657 19.0897 20.2864 19.3137 20.5026C19.5378 20.7188 19.6691 21.0136 19.68 21.3247C19.8 21.5709 19.4458 22.4775 18.6052 22.5616H13.2316C13.0723 22.5616 12.9196 22.6248 12.807 22.7374C12.6944 22.85 12.6311 23.0027 12.6311 23.162C12.6311 23.3212 12.6944 23.4739 12.807 23.5865C12.9196 23.6991 13.0723 23.7624 13.2316 23.7624H18.4851C18.8587 23.7627 19.2271 23.6758 19.5612 23.5087C19.8952 23.3416 20.1857 23.0989 20.4096 22.7999C20.6334 22.5009 20.7844 22.1538 20.8506 21.7862C20.9167 21.4185 20.8962 21.0406 20.7907 20.6823C25.7621 15.999 25.666 15.8789 26.5847 15.8189C26.8277 15.8067 27.0706 15.8439 27.2989 15.9282C27.5271 16.0125 27.7359 16.1422 27.9126 16.3094C28.0894 16.4766 28.2304 16.6779 28.3272 16.9011C28.4241 17.1243 28.4746 17.3648 28.476 17.6081Z" fill="white"/>
  <path d="M10.5898 19.0369C9.47306 19.181 9.389 19.3371 9.389 19.271C9.78273 19.1625 10.1842 19.0842 10.5898 19.0369ZM25.6721 14.7919C24.8616 15.0861 24.6814 15.3623 22.6701 17.2536C22.4901 17.0343 22.289 16.8332 22.0697 16.6532C23.2705 15.4644 24.2311 14.0714 25.6721 14.7919ZM23.6728 13.6692C22.8922 13.9994 22.586 14.4317 21.091 15.9267C20.1243 15.4044 19.8902 15.9267 21.6914 14.1255C21.9427 13.8667 22.2633 13.6861 22.6148 13.6051C22.9663 13.5242 23.3336 13.5464 23.6728 13.6692ZM0.857178 18.3644H6.86128V28.5714H0.857178V18.3644ZM15.267 13.5611V1.55281C15.267 1.39357 15.3303 1.24085 15.4429 1.12825C15.5555 1.01565 15.7082 0.952393 15.8674 0.952393C16.0267 0.952393 16.1794 1.01565 16.292 1.12825C16.4046 1.24085 16.4678 1.39357 16.4678 1.55281V13.5611C16.4678 13.7203 16.4046 13.873 16.292 13.9856C16.1794 14.0982 16.0267 14.1615 15.8674 14.1615C15.7082 14.1615 15.5555 14.0982 15.4429 13.9856C15.3303 13.873 15.267 13.7203 15.267 13.5611Z" fill="white"/>
  <path d="M21.8054 18.0762L20.1483 19.6373C19.7964 19.3003 19.3504 19.0784 18.8694 19.0008C18.5812 18.9468 11.5024 18.9168 10.5838 19.0369C9.46699 19.181 9.38293 19.3371 9.38293 19.271C9.55885 18.5893 9.93069 17.974 10.4525 17.5013C10.9743 17.0286 11.6232 16.7191 12.3189 16.6112C12.4579 15.7688 12.8915 15.0031 13.5425 14.4507C14.1935 13.8983 15.0196 13.595 15.8734 13.595C16.7272 13.595 17.5532 13.8983 18.2042 14.4507C18.8552 15.0031 19.2888 15.7688 19.4278 16.6112C19.9017 16.6848 20.3561 16.8524 20.7643 17.1039C21.1726 17.3555 21.5266 17.686 21.8054 18.0762ZM24.8735 0.952393V2.15322C24.8735 3.42714 24.3675 4.64888 23.4667 5.54968C22.5659 6.45047 21.3441 6.95653 20.0702 6.95653H18.7493L21.6013 5.05322C21.7178 4.95938 21.7951 4.82542 21.818 4.67758C21.8409 4.52975 21.8078 4.37868 21.7251 4.25398C21.6425 4.12927 21.5163 4.03991 21.3712 4.00339C21.2261 3.96686 21.0727 3.98582 20.9408 4.05653L17.6686 6.23604V5.7557C17.6686 4.48179 18.1747 3.26005 19.0754 2.35925C19.9762 1.45845 21.198 0.952393 22.4719 0.952393H24.8735Z" fill="white"/>
  <path d="M18.7493 6.95656C15.9514 8.82385 16.1075 8.7578 15.8674 8.7578C15.7391 8.75681 15.6145 8.71476 15.5119 8.63782C15.4092 8.56087 15.3339 8.45308 15.297 8.33022C15.2601 8.20737 15.2635 8.07592 15.3067 7.95514C15.3499 7.83436 15.4307 7.73059 15.5371 7.65905L17.6686 6.23606V6.95656H18.7493ZM10.1334 6.85449L12.9914 8.7578H11.6645C10.3906 8.7578 9.16884 8.25174 8.26805 7.35095C7.36726 6.45015 6.86121 5.22841 6.86121 3.95449V2.75366H9.26285C10.5368 2.75366 11.7585 3.25972 12.6593 4.16052C13.5601 5.06132 14.0661 6.28306 14.0661 7.55697V8.03731L10.7939 5.8578C10.6621 5.78709 10.5086 5.76813 10.3635 5.80466C10.2184 5.84118 10.0922 5.93054 10.0096 6.05525C9.92695 6.17995 9.89384 6.33102 9.91675 6.47885C9.93966 6.62669 10.0169 6.76065 10.1334 6.85449Z" fill="white"/>
  <path d="M15.5372 10.457L12.9915 8.75785H14.0662V8.03735L16.1976 9.46033C16.3141 9.55418 16.3914 9.68814 16.4143 9.83597C16.4372 9.98381 16.4041 10.1349 16.3215 10.2596C16.2389 10.3843 16.1127 10.4736 15.9676 10.5102C15.8225 10.5467 15.669 10.5277 15.5372 10.457Z" fill="white"/>
</svg>