<svg width="35" height="52" viewBox="0 0 35 52" fill="none" xmlns="http://www.w3.org/2000/svg">
<g id="grow">
<g id="Group">
<path id="Vector" d="M27.4157 51.0059H6.80079L4.67554 36.1292H0V31.8787H14.8767V25.2904C10.8388 25.928 6.80079 24.8654 3.82544 22.3151C0.212525 19.1272 -0.850098 14.4517 0.850098 10.2012L1.27515 9.35108L2.12525 9.13856C6.37574 7.65089 11.4763 8.50098 14.8767 11.0513C14.8767 8.07593 16.1519 5.10059 18.7022 2.97534C21.0399 1.06262 24.2278 0 27.2031 0C28.6908 0 30.391 0.212525 31.8787 0.637574L32.7288 0.850098L33.1538 1.7002C35.0666 5.95069 34.0039 10.6262 30.1785 13.8141C27.2031 16.3644 23.1652 17.427 19.1272 16.7894V19.1272C19.1272 19.3397 19.1272 19.7648 19.1272 19.9773V31.8787H34.0039V36.1292H29.5409L27.4157 51.0059ZM10.4137 46.7554H23.8027L25.2904 36.1292H8.92603L10.4137 46.7554ZM4.46302 12.964C3.82544 15.0892 4.67554 17.427 6.58826 19.1272C8.71351 21.0399 11.9014 21.6775 14.6642 21.0399C14.8767 20.6149 14.8767 20.1898 14.8767 19.7648V19.1272C14.8767 17.427 14.0266 15.9393 12.5389 14.6642C10.4137 12.964 7.43836 12.3264 4.46302 12.964ZM19.3397 12.539C22.3151 13.1765 25.2904 12.5389 27.4157 10.6262C29.3284 8.92603 30.1785 6.58826 29.5409 4.46302C26.5656 3.82544 23.5902 4.46302 21.465 6.37574C19.5523 7.86341 18.7022 10.2012 19.3397 12.539Z" fill="white"/>
</g>
</g>
</svg>
