<svg width="35" height="40" viewBox="0 0 35 40" fill="none" xmlns="http://www.w3.org/2000/svg">
<path d="M12.3403 38.8837C12.3431 38.8893 12.3468 38.8948 12.3495 38.9012C12.3541 38.9104 12.3587 38.9196 12.3642 38.9288C12.3973 38.9949 12.4322 39.0611 12.4671 39.1272C12.5654 39.3183 12.7574 39.4543 12.9825 39.4736C12.9908 39.4745 12.9991 39.4745 13.0064 39.4745C13.0165 39.4754 13.0275 39.4763 13.0386 39.4763H13.0395C13.0579 39.4763 13.0762 39.4754 13.0937 39.4736C13.0974 39.4736 13.1001 39.4736 13.1038 39.4727C13.1212 39.4708 13.1396 39.4681 13.1571 39.4644C13.1608 39.4635 13.1644 39.4635 13.1681 39.4625C13.1856 39.4589 13.203 39.4543 13.2205 39.4488C13.2232 39.4478 13.2269 39.4469 13.2297 39.446C13.248 39.4405 13.2664 39.4331 13.2839 39.4258C13.2857 39.4249 13.2866 39.4249 13.2885 39.424C13.3757 39.3872 13.4557 39.3321 13.5209 39.2577L13.5512 39.2237C13.5815 39.1888 13.6118 39.1548 13.6422 39.1199C13.6431 39.1189 13.6431 39.118 13.644 39.1171C17.0314 35.3283 20.6392 32.7521 23.8226 30.4783C25.0014 29.6367 26.114 28.842 27.1677 28.0243C29.8183 25.9682 32.4587 23.5418 33.8249 19.7429C34.3219 18.362 34.6242 16.8884 34.7491 15.2365C35.1276 10.2101 34.0885 5.20763 31.743 0.77107C31.6447 0.585486 31.4628 0.459619 31.2552 0.433895C31.0475 0.407252 30.8399 0.484425 30.6984 0.639691C30.0351 1.37008 29.279 2.09956 28.3851 2.87221C28.1159 3.10465 28.0865 3.51073 28.3189 3.779C28.5513 4.04819 28.9574 4.07759 29.2257 3.84515C29.8872 3.27461 30.4779 2.72337 31.0135 2.17765C32.9567 6.19526 33.8037 10.6575 33.4666 15.14C33.3692 16.4263 33.1579 17.5921 32.8225 18.6845C32.7729 18.6661 32.7224 18.6496 32.6719 18.6321C32.6268 18.6165 32.5818 18.6009 32.5359 18.5853C32.422 18.5467 32.308 18.5099 32.1941 18.4741C32.173 18.4677 32.1509 18.4603 32.1298 18.453C31.9957 18.4116 31.8597 18.3712 31.7246 18.3326C31.6815 18.3207 31.6374 18.3087 31.5942 18.2968C31.4986 18.2702 31.4031 18.2444 31.3075 18.2196C31.2579 18.2068 31.2074 18.1939 31.1578 18.181C31.0622 18.1572 30.9667 18.1342 30.8702 18.1112C30.8261 18.1011 30.7811 18.0901 30.737 18.08C30.6001 18.0487 30.4632 18.0193 30.3263 17.9909C30.3034 17.9863 30.2795 17.9817 30.2565 17.9771C30.1398 17.9532 30.0241 17.9311 29.9074 17.9091C29.8578 17.8999 29.8091 17.8916 29.7595 17.8825C29.6667 17.8659 29.5739 17.8503 29.4802 17.8347C29.4287 17.8264 29.3773 17.8181 29.3268 17.8099C29.2266 17.7943 29.1274 17.7796 29.0273 17.7649C28.9868 17.7593 28.9464 17.7529 28.906 17.7474C28.77 17.7281 28.6331 17.7106 28.4971 17.6941C28.4576 17.6895 28.4172 17.6849 28.3777 17.6803C28.2776 17.6684 28.1783 17.6574 28.0791 17.6473C28.0277 17.6417 27.9762 17.6371 27.9248 17.6316C27.8338 17.6224 27.7438 17.6151 27.6528 17.6068C27.6032 17.6022 27.5536 17.5986 27.504 17.594C27.3956 17.5857 27.2863 17.5774 27.1788 17.5701C27.1503 17.5682 27.1218 17.5655 27.0933 17.5637C26.9601 17.5554 26.8278 17.548 26.6955 17.5416C26.6496 17.5398 26.6036 17.5379 26.5577 17.5361C26.4677 17.5324 26.3767 17.5287 26.2876 17.526C26.2371 17.5241 26.1865 17.5232 26.136 17.5214C26.0469 17.5186 25.9587 17.5168 25.8705 17.5159C25.8255 17.515 25.7805 17.514 25.7354 17.514C25.6068 17.5122 25.4791 17.5122 25.3523 17.5122C25.3294 17.5122 25.3064 17.5131 25.2834 17.5131C25.1768 17.514 25.0703 17.515 24.9655 17.5168C24.9196 17.5177 24.8737 17.5186 24.8286 17.5196C24.745 17.5214 24.6614 17.5232 24.5788 17.526C24.5319 17.5278 24.486 17.5287 24.4391 17.5306C24.35 17.5343 24.2618 17.5379 24.1736 17.5416C24.1387 17.5434 24.1028 17.5444 24.0679 17.5462C23.9476 17.5526 23.8291 17.5591 23.7115 17.5673C23.6793 17.5692 23.6481 17.5719 23.6168 17.5738C23.5286 17.5802 23.4414 17.5866 23.355 17.5931C23.3127 17.5967 23.2714 17.5995 23.2301 17.6032C23.152 17.6096 23.0748 17.6169 22.9976 17.6243C22.9581 17.628 22.9195 17.6316 22.8809 17.6353C22.7881 17.6445 22.6972 17.6537 22.6072 17.6638C22.5869 17.6656 22.5667 17.6684 22.5474 17.6702C22.439 17.6822 22.3325 17.6959 22.2277 17.7088C22.1956 17.7125 22.1652 17.7171 22.134 17.7217C22.0853 17.7281 22.0366 17.7345 21.9888 17.741C21.9907 17.7391 21.9925 17.7373 21.9944 17.7355C22.1763 17.5545 22.3619 17.3753 22.5493 17.1971C22.6072 17.1429 22.665 17.0896 22.7229 17.0354C22.857 16.9104 22.9921 16.7864 23.1281 16.6642C23.1961 16.6036 23.264 16.5429 23.333 16.4823C23.4689 16.3619 23.6067 16.2425 23.7464 16.124C23.8089 16.0707 23.8713 16.0165 23.9347 15.9641C24.135 15.796 24.3371 15.6297 24.5429 15.4662C24.7359 15.3128 24.9315 15.1602 25.1245 15.0133C27.1512 13.4716 28.7378 11.8583 29.8403 10.2184C30.0388 9.92348 29.9598 9.52383 29.6658 9.3263C29.3709 9.12785 28.9712 9.20687 28.7737 9.50086C27.7952 10.9561 26.3887 12.4013 24.5925 13.7996C24.587 13.7739 24.5815 13.7472 24.5769 13.7206C24.5705 13.6912 24.565 13.6618 24.5585 13.6315C24.5521 13.6021 24.5457 13.5727 24.5402 13.5424C24.5337 13.5111 24.5264 13.4799 24.52 13.4477C24.5135 13.4174 24.5062 13.3871 24.4997 13.3559C24.4924 13.3237 24.485 13.2915 24.4777 13.2585C24.4703 13.2272 24.463 13.1951 24.4556 13.1629C24.4483 13.1299 24.44 13.0977 24.4327 13.0637C24.4244 13.0306 24.4161 12.9966 24.4088 12.9636C24.4005 12.9305 24.3932 12.8974 24.3849 12.8634C24.3757 12.8276 24.3665 12.7908 24.3573 12.7541C24.3472 12.7146 24.3371 12.6751 24.327 12.6356C24.3114 12.5759 24.2958 12.5161 24.2792 12.4546C24.2701 12.4206 24.2609 12.3866 24.2517 12.3526C24.2416 12.3149 24.2315 12.2782 24.2204 12.2396C24.2103 12.2047 24.2002 12.1698 24.191 12.1349C24.18 12.0972 24.1699 12.0595 24.1589 12.0219C24.1488 11.986 24.1378 11.9493 24.1267 11.9125C24.1157 11.8749 24.1047 11.8381 24.0927 11.8004C24.0817 11.7637 24.0698 11.726 24.0587 11.6893C24.0468 11.6516 24.0349 11.6139 24.0229 11.5754C24.011 11.5377 23.999 11.5009 23.9871 11.4633C23.9751 11.4247 23.9623 11.387 23.9494 11.3484C23.9366 11.3108 23.9237 11.2722 23.9108 11.2345C23.898 11.1959 23.8851 11.1573 23.8713 11.1187C23.8585 11.0802 23.8447 11.0425 23.8309 11.0039C23.8171 10.9653 23.8033 10.9258 23.7886 10.8863C23.7749 10.8486 23.7611 10.8101 23.7473 10.7715C23.7326 10.732 23.7179 10.6915 23.7023 10.652C23.6876 10.6144 23.6738 10.5767 23.6591 10.5381C23.6435 10.4977 23.6279 10.4573 23.6113 10.4168C23.5966 10.3792 23.5819 10.3415 23.5663 10.3038C23.5498 10.2625 23.5323 10.2211 23.5149 10.1798C23.4992 10.1431 23.4845 10.1063 23.4689 10.0696C23.4506 10.0264 23.4322 9.98319 23.4129 9.94001C23.3973 9.9051 23.3826 9.87019 23.3669 9.83436C23.3458 9.78658 23.3238 9.73881 23.3026 9.69104C23.2889 9.66072 23.2751 9.6304 23.2613 9.60008C23.2255 9.52291 23.1896 9.44665 23.152 9.36948C23.1409 9.34743 23.1299 9.32538 23.1198 9.30425C23.0922 9.24821 23.0647 9.19308 23.0362 9.13704C23.0206 9.10672 23.005 9.07641 22.9884 9.04609C22.9645 8.99923 22.9397 8.95238 22.9149 8.90644C22.8975 8.87337 22.8791 8.84121 22.8616 8.80814C22.8423 8.77322 22.824 8.73831 22.8047 8.70432C23.061 8.51966 23.3173 8.33591 23.5727 8.15216C24.2388 7.6735 24.9279 7.17922 25.5949 6.69046C25.8815 6.48007 25.9431 6.07767 25.7327 5.79194C25.5223 5.5053 25.1199 5.44374 24.8342 5.65413C24.1727 6.13922 23.4864 6.63166 22.8231 7.10848C22.4078 7.40707 21.9907 7.70566 21.5754 8.007C18.63 10.1394 15.5605 12.4638 13.2425 15.366C12.1511 16.7322 11.3196 18.1048 10.7004 19.5637C10.7004 19.5637 10.7004 19.5637 10.7004 19.5646C10.0196 21.1669 9.60618 22.8813 9.47204 24.6599C9.25522 27.5457 9.50603 30.4259 10.2034 33.1959C9.1854 31.8564 8.16009 30.6519 7.19542 29.52C3.72262 25.4436 0.980201 22.2235 1.95314 16.5558C2.54572 13.106 4.01202 9.89224 6.21238 7.20495C7.44532 9.29598 8.9208 11.0517 10.6002 13.049C10.8694 13.3696 11.1451 13.6967 11.4253 14.033C11.6531 14.3058 12.0583 14.3426 12.3311 14.1147C12.604 13.8869 12.6407 13.4817 12.4129 13.2089C12.1318 12.8717 11.8552 12.5428 11.5851 12.2212C9.74031 10.0255 8.14631 8.12919 6.88949 5.78551C6.79026 5.60084 6.60744 5.4759 6.3998 5.45109C6.19125 5.42628 5.98453 5.50438 5.84489 5.66056C3.15484 8.65838 1.37066 12.3517 0.686207 16.339C-0.388709 22.6001 2.67251 26.1933 6.21697 30.3542C8.20695 32.7062 10.4707 35.3632 12.3403 38.8837ZM26.6385 26.807C26.5926 26.7942 26.5458 26.7822 26.4998 26.7703C26.4585 26.7592 26.4171 26.7482 26.3767 26.7372C26.3207 26.7225 26.2637 26.7096 26.2077 26.6958C26.1691 26.6867 26.1314 26.6775 26.0928 26.6683C26.0285 26.6536 25.9651 26.6398 25.9008 26.626C25.8696 26.6196 25.8383 26.6122 25.8071 26.6058C25.616 26.5663 25.4231 26.5314 25.2301 26.5002C25.198 26.4946 25.1667 26.491 25.1346 26.4855C25.0694 26.4754 25.005 26.4652 24.9398 26.4561C24.9021 26.4505 24.8636 26.446 24.8259 26.4414C24.7671 26.4331 24.7083 26.4257 24.6495 26.4184C24.6091 26.4138 24.5677 26.4092 24.5273 26.4046C24.4713 26.3982 24.4152 26.3917 24.3583 26.3853C24.316 26.3807 24.2737 26.377 24.2306 26.3734C24.1763 26.3679 24.1212 26.3623 24.067 26.3578C24.0229 26.3541 23.9797 26.3504 23.9356 26.3476C23.8824 26.3431 23.8291 26.3394 23.7758 26.3357C23.7317 26.333 23.6876 26.3302 23.6435 26.3274C23.5902 26.3238 23.5378 26.321 23.4845 26.3183C23.4404 26.3155 23.3954 26.3137 23.3513 26.3118C23.299 26.3091 23.2466 26.3072 23.1951 26.3054C23.1501 26.3035 23.106 26.3026 23.061 26.3008C23.0096 26.299 22.9572 26.298 22.9057 26.2962C22.8607 26.2953 22.8166 26.2944 22.7716 26.2944C22.7202 26.2934 22.6696 26.2925 22.6182 26.2925C22.5732 26.2925 22.5291 26.2925 22.484 26.2925C22.4335 26.2925 22.383 26.2925 22.3325 26.2925C22.2874 26.2925 22.2424 26.2934 22.1983 26.2944C22.1487 26.2953 22.0982 26.2962 22.0486 26.2971C22.0035 26.298 21.9594 26.299 21.9144 26.2999C21.8648 26.3008 21.8152 26.3026 21.7665 26.3045C21.7215 26.3063 21.6765 26.3072 21.6324 26.3091C21.5837 26.3109 21.535 26.3127 21.4872 26.3155C21.4422 26.3173 21.3981 26.3201 21.354 26.3219C21.3053 26.3247 21.2575 26.3274 21.2098 26.3302C21.1657 26.333 21.1216 26.3357 21.0784 26.3385C21.0306 26.3412 20.9828 26.3449 20.936 26.3476C20.8919 26.3504 20.8487 26.3541 20.8055 26.3568C20.7587 26.3605 20.7118 26.3642 20.665 26.3679C20.6218 26.3715 20.5786 26.3752 20.5354 26.3789C20.4886 26.3826 20.4426 26.3872 20.3967 26.3917C20.3544 26.3954 20.3112 26.4 20.269 26.4037C20.223 26.4083 20.178 26.4129 20.1321 26.4175C20.0898 26.4221 20.0476 26.4257 20.0062 26.4303C19.9612 26.4349 19.9162 26.4404 19.8712 26.445C19.8298 26.4496 19.7894 26.4542 19.7481 26.4588C19.703 26.4643 19.658 26.4698 19.613 26.4754C19.5735 26.4799 19.5331 26.4855 19.4936 26.4901C19.4486 26.4956 19.4045 26.502 19.3604 26.5075C19.3209 26.513 19.2823 26.5176 19.2428 26.5231C19.1996 26.5286 19.1564 26.5351 19.1141 26.5415C19.0755 26.547 19.037 26.5525 18.9984 26.558C18.9543 26.5645 18.912 26.5709 18.8679 26.5773C18.8321 26.5828 18.7953 26.5884 18.7595 26.5939C18.7126 26.6012 18.6658 26.6086 18.6199 26.6159C18.5886 26.6205 18.5574 26.626 18.5261 26.6306C18.4738 26.6389 18.4223 26.6481 18.3709 26.6563C18.3461 26.66 18.3213 26.6646 18.2974 26.6683C18.222 26.6811 18.1476 26.694 18.075 26.7078C18.0309 26.7161 17.9896 26.728 17.9501 26.7436C17.6726 26.8548 17.5008 27.1488 17.556 27.4547C17.5918 27.6513 17.7131 27.8112 17.8748 27.9012C18.0006 27.972 18.1504 28.0004 18.3029 27.9738C18.4113 27.9545 18.5225 27.9352 18.6355 27.9159C18.6529 27.9132 18.6704 27.9104 18.6888 27.9067C18.799 27.8884 18.9111 27.8709 19.025 27.8535C19.0434 27.8507 19.0627 27.8479 19.082 27.8452C19.2005 27.8277 19.3208 27.8103 19.443 27.7937C19.4486 27.7928 19.455 27.7919 19.4605 27.791C19.5827 27.7744 19.7067 27.7588 19.8326 27.7432C19.8445 27.7414 19.8565 27.7404 19.8684 27.7386C19.9934 27.7239 20.1211 27.7092 20.2488 27.6963C20.2681 27.6945 20.2874 27.6927 20.3066 27.6908C20.4362 27.678 20.5666 27.6651 20.6989 27.6541C20.7109 27.6532 20.7228 27.6522 20.7348 27.6513C20.8698 27.6403 21.0058 27.6302 21.1436 27.621C21.1473 27.621 21.151 27.6201 21.1546 27.6201C21.2906 27.6109 21.4284 27.6036 21.5671 27.598C21.5864 27.5971 21.6067 27.5962 21.6259 27.5953C21.761 27.5898 21.8979 27.5852 22.0348 27.5815C22.0532 27.5815 22.0706 27.5806 22.089 27.5806C22.372 27.5751 22.6577 27.5751 22.9452 27.5824C22.9636 27.5833 22.9829 27.5833 23.0013 27.5833C23.1391 27.587 23.2778 27.5925 23.4166 27.5999C23.4386 27.6008 23.4616 27.6026 23.4836 27.6036C23.6251 27.6118 23.7657 27.621 23.9072 27.633C23.9163 27.6339 23.9255 27.6348 23.9347 27.6357C24.0725 27.6477 24.2103 27.6614 24.3481 27.6771C24.3647 27.6789 24.3803 27.6807 24.3968 27.6826C24.5347 27.6982 24.6715 27.7166 24.8094 27.7368C24.8342 27.7404 24.859 27.7441 24.8838 27.7478C25.0197 27.768 25.1557 27.791 25.2908 27.8158C25.2972 27.8167 25.3036 27.8185 25.3091 27.8195C24.5944 28.3486 23.8493 28.8806 23.0766 29.4328C19.9952 31.634 16.5224 34.1155 13.1929 37.7068C11.2571 33.6966 10.4119 29.2371 10.7491 24.7638C10.8557 23.3471 11.1542 21.9754 11.6384 20.6782C11.6706 20.6938 11.7027 20.7094 11.734 20.725C11.7514 20.7333 11.7689 20.7425 11.7863 20.7507C11.8121 20.7636 11.8369 20.7765 11.8617 20.7893C11.9012 20.8095 11.9416 20.8307 11.9802 20.8518C11.9839 20.8536 11.9884 20.8564 11.9921 20.8582C12.0234 20.8748 12.0537 20.8922 12.0849 20.9088C12.1253 20.9317 12.1667 20.9538 12.2062 20.9767C12.2374 20.9942 12.2677 21.0126 12.299 21.0309C12.3385 21.0539 12.3771 21.0778 12.4157 21.1008C12.4423 21.1173 12.468 21.1329 12.4947 21.1495C12.5002 21.1531 12.5057 21.1568 12.5112 21.1596C12.547 21.1825 12.5829 21.2046 12.6178 21.2276C12.6407 21.2423 12.6637 21.2579 12.6867 21.2726C12.6931 21.2772 12.7005 21.2818 12.7069 21.2864C12.7427 21.3102 12.7776 21.3341 12.8135 21.3589C12.841 21.3773 12.8677 21.3966 12.8943 21.415C12.9311 21.4407 12.9669 21.4673 13.0027 21.494C13.0275 21.5124 13.0533 21.5307 13.0781 21.5491C13.1148 21.5767 13.1516 21.6052 13.1883 21.6336C13.2104 21.6511 13.2333 21.6685 13.2554 21.686C13.2958 21.7182 13.3344 21.7503 13.3739 21.7825C13.3868 21.7935 13.3996 21.8036 13.4125 21.8137C13.429 21.8275 13.4446 21.8413 13.4612 21.855C13.497 21.8854 13.5319 21.9148 13.5668 21.9451C13.587 21.9625 13.6063 21.98 13.6265 21.9984C13.6587 22.0268 13.6899 22.0553 13.7212 22.0838C13.7396 22.1004 13.757 22.1169 13.7754 22.1334C13.7818 22.1389 13.7873 22.1444 13.7938 22.1509C13.8204 22.1757 13.847 22.2005 13.8728 22.2262C13.8865 22.24 13.9003 22.2529 13.9141 22.2666C13.927 22.2795 13.9398 22.2924 13.9527 22.3052C13.9775 22.33 14.0023 22.3539 14.0262 22.3787C14.0326 22.3852 14.04 22.3925 14.0464 22.3989C14.0639 22.4164 14.0813 22.4348 14.0979 22.4522C14.1254 22.4807 14.153 22.5092 14.1796 22.5386C14.198 22.5588 14.2164 22.579 14.2357 22.5992C14.2614 22.6277 14.2871 22.6553 14.3128 22.6837C14.3312 22.704 14.3487 22.7242 14.367 22.7444C14.3919 22.7719 14.4157 22.8004 14.4396 22.828C14.4571 22.8482 14.4745 22.8684 14.4911 22.8886C14.515 22.9171 14.5379 22.9447 14.5609 22.9722C14.5774 22.9924 14.5931 23.0117 14.6096 23.0319C14.6326 23.0604 14.6546 23.0889 14.6767 23.1165C14.6914 23.1358 14.707 23.1551 14.7217 23.1743C14.7437 23.2028 14.7658 23.2322 14.7869 23.2607C14.8007 23.2791 14.8145 23.2975 14.8282 23.3158C14.8503 23.3461 14.8723 23.3765 14.8944 23.4068C14.9045 23.4215 14.9155 23.4353 14.9247 23.45C14.9311 23.4582 14.9367 23.4674 14.9431 23.4757C14.9624 23.5033 14.9808 23.5299 14.9991 23.5565C15.0037 23.563 15.0083 23.5703 15.0129 23.5768C15.023 23.5915 15.0331 23.6061 15.0423 23.6208C15.0616 23.6493 15.0809 23.6778 15.0993 23.7063C15.1103 23.7228 15.1204 23.7384 15.1305 23.755C15.1489 23.7835 15.1663 23.811 15.1847 23.8395C15.193 23.8533 15.2022 23.8671 15.2104 23.8809C15.215 23.8882 15.2187 23.8946 15.2233 23.902C15.2389 23.9268 15.2536 23.9516 15.2683 23.9755C15.2729 23.9838 15.2784 23.992 15.283 24.0003C15.2913 24.0141 15.2986 24.0269 15.3069 24.0407C15.3225 24.0674 15.3391 24.094 15.3538 24.1206C15.3639 24.1372 15.3731 24.1537 15.3822 24.1712C15.396 24.196 15.4098 24.2208 15.4236 24.2447C15.4328 24.2621 15.442 24.2787 15.4521 24.2961C15.4649 24.3191 15.4778 24.3421 15.4897 24.365C15.4989 24.3816 15.5072 24.3981 15.5164 24.4146C15.5228 24.4266 15.5283 24.4385 15.5348 24.4505C15.5182 24.4835 15.5017 24.5175 15.4842 24.5515C15.4511 24.6177 15.4181 24.6847 15.385 24.7518C15.3639 24.795 15.3418 24.8382 15.3207 24.8814C15.3005 24.9218 15.2821 24.964 15.2619 25.0045C15.2297 25.0706 15.1985 25.1377 15.1673 25.2038C15.1268 25.2893 15.0873 25.3756 15.0478 25.4611C15.0175 25.5272 14.9872 25.5943 14.9569 25.6604C14.9174 25.7477 14.8788 25.8359 14.8402 25.9232C14.8117 25.9884 14.7823 26.0546 14.7538 26.1207C14.7152 26.2117 14.6767 26.3026 14.639 26.3936C14.6123 26.457 14.5857 26.5213 14.5591 26.5847C14.5572 26.5902 14.5545 26.5948 14.5526 26.5994C14.5471 26.6132 14.5407 26.6269 14.5352 26.6407C14.5039 26.7179 14.4736 26.7951 14.4433 26.8722C14.4194 26.932 14.3955 26.9908 14.3726 27.0505C14.3523 27.1028 14.3321 27.1552 14.3119 27.2085C14.2908 27.2636 14.2697 27.3197 14.2485 27.3748C14.2302 27.4235 14.2118 27.4722 14.1934 27.52C14.1355 27.6771 14.0786 27.8342 14.0225 27.9922C13.9499 28.1998 13.8792 28.4084 13.8112 28.6178C13.7873 28.6895 13.7653 28.763 13.7423 28.8347C13.6982 28.9725 13.655 29.1094 13.6128 29.2481C13.5861 29.3354 13.5613 29.4236 13.5356 29.5108C13.4988 29.6349 13.463 29.7589 13.4281 29.8838C13.4024 29.9776 13.3776 30.0703 13.3528 30.1641C13.3206 30.2844 13.2885 30.4048 13.2581 30.5251C13.2342 30.6207 13.2104 30.7162 13.1874 30.8118C13.158 30.9321 13.1295 31.0516 13.101 31.1719C13.079 31.2675 13.0569 31.3639 13.0358 31.4595C13.0092 31.5807 12.9825 31.7029 12.9577 31.8251C12.9384 31.9198 12.9191 32.0144 12.8998 32.109C12.875 32.234 12.8511 32.3589 12.8282 32.4839C12.8107 32.5766 12.7942 32.6685 12.7776 32.7613C12.7703 32.8027 12.762 32.844 12.7556 32.8853C12.7538 32.8982 12.7528 32.9111 12.751 32.9239C12.728 33.0617 12.7032 33.1996 12.6821 33.3374C12.6279 33.6883 12.8686 34.0172 13.2195 34.0714C13.5705 34.1256 13.8994 33.8849 13.9536 33.534C13.9821 33.3511 14.0133 33.1683 14.0455 32.9855C14.0611 32.8955 14.0776 32.8054 14.0942 32.7154C14.1162 32.5978 14.1383 32.4793 14.1613 32.3617C14.1796 32.2698 14.198 32.1779 14.2173 32.086C14.2412 31.9712 14.266 31.8554 14.2917 31.7406C14.3119 31.6478 14.3331 31.5541 14.3551 31.4613C14.3817 31.3474 14.4084 31.2344 14.436 31.1205C14.4589 31.0277 14.481 30.9349 14.5049 30.8421C14.5343 30.7282 14.5646 30.6142 14.5949 30.5003C14.6188 30.4094 14.6436 30.3193 14.6684 30.2284C14.7015 30.1099 14.7355 29.9923 14.7704 29.8747C14.7952 29.7892 14.8191 29.7047 14.8448 29.6202C14.8843 29.4897 14.9256 29.3602 14.967 29.2306C14.9899 29.159 15.0111 29.0873 15.035 29.0166C15.0984 28.8218 15.1645 28.6279 15.2316 28.4341C15.2334 28.4286 15.2352 28.424 15.2371 28.4185C15.6772 27.1626 16.2119 25.9287 16.8247 24.7518C16.8274 24.7472 16.8292 24.7426 16.8311 24.738C16.8853 24.6342 16.9413 24.5313 16.9965 24.4284C17.0378 24.3512 17.0782 24.2732 17.1205 24.196C17.1784 24.0912 17.2381 23.9865 17.2969 23.8827C17.3391 23.8074 17.3814 23.732 17.4246 23.6567C17.4907 23.5428 17.5578 23.4307 17.6258 23.3177C17.6644 23.2534 17.702 23.1881 17.7406 23.1238C17.8481 22.9474 17.9575 22.7719 18.0677 22.5992C18.1605 22.4541 18.2542 22.3107 18.3498 22.1665C18.3801 22.1206 18.4122 22.0746 18.4435 22.0287C18.5087 21.9313 18.5739 21.8348 18.641 21.7384C18.6796 21.6832 18.7182 21.629 18.7567 21.5739C18.8174 21.4876 18.8789 21.4003 18.9405 21.3139C18.9828 21.2551 19.0259 21.1972 19.0682 21.1394C19.1279 21.0576 19.1876 20.9758 19.2492 20.8941C19.2942 20.8343 19.3401 20.7746 19.3852 20.7149C19.4449 20.6359 19.5046 20.5578 19.5662 20.4797C19.613 20.4191 19.6617 20.3584 19.7095 20.2978C19.7701 20.2215 19.8298 20.1453 19.8914 20.07C19.941 20.0093 19.9906 19.9487 20.0402 19.888C20.1009 19.8136 20.1624 19.7401 20.224 19.6666C20.2754 19.606 20.3269 19.5454 20.3783 19.4847C20.4178 19.4388 20.4573 19.3928 20.4968 19.3469L20.6815 19.3001C20.7568 19.2817 20.8358 19.2624 20.9167 19.2449C20.9433 19.2385 20.9718 19.233 20.9994 19.2275C21.0554 19.2155 21.1105 19.2036 21.1684 19.1916C21.2033 19.1843 21.2401 19.1779 21.275 19.1705C21.3283 19.1604 21.3806 19.1503 21.4349 19.1402C21.4744 19.1328 21.5157 19.1264 21.5561 19.1191C21.6094 19.1099 21.6627 19.1007 21.7169 19.0915C21.7601 19.0842 21.8042 19.0777 21.8483 19.0713C21.9034 19.063 21.9576 19.0538 22.0137 19.0456C22.0596 19.0391 22.1064 19.0327 22.1533 19.0263C22.2093 19.0189 22.2654 19.0107 22.3223 19.0033C22.371 18.9969 22.4206 18.9914 22.4703 18.9849C22.5281 18.9776 22.586 18.9711 22.6457 18.9638C22.6963 18.9583 22.7477 18.9528 22.7992 18.9473C22.8589 18.9408 22.9195 18.9344 22.9802 18.9289C23.0325 18.9234 23.0867 18.9188 23.14 18.9142C23.2016 18.9087 23.2631 18.9032 23.3256 18.8976C23.3798 18.8931 23.4359 18.8885 23.491 18.8848C23.5544 18.8802 23.6178 18.8756 23.6821 18.871C23.7381 18.8673 23.7951 18.8637 23.852 18.86C23.9173 18.8563 23.9825 18.8526 24.0477 18.849C24.1056 18.8462 24.1644 18.8425 24.2223 18.8398C24.2884 18.837 24.3555 18.8343 24.4226 18.8315C24.4823 18.8297 24.5411 18.8269 24.6017 18.8251C24.6697 18.8232 24.7386 18.8214 24.8075 18.8196C24.8682 18.8177 24.9279 18.8168 24.9894 18.8159C25.0592 18.815 25.1291 18.814 25.1998 18.8131C25.2614 18.8122 25.322 18.8122 25.3836 18.8122C25.4543 18.8122 25.526 18.8122 25.5985 18.8131C25.6601 18.8131 25.7226 18.814 25.785 18.815C25.8585 18.8159 25.932 18.8177 26.0055 18.8196C26.0671 18.8214 26.1296 18.8223 26.192 18.8242C26.2674 18.826 26.3436 18.8297 26.419 18.8324C26.4805 18.8352 26.5412 18.837 26.6036 18.8398C26.6817 18.8434 26.7607 18.848 26.8397 18.8526C26.8995 18.8563 26.9601 18.8591 27.0198 18.8627C27.1016 18.8682 27.1843 18.8738 27.267 18.8802C27.3248 18.8848 27.3818 18.8885 27.4397 18.8931C27.5297 18.9004 27.6207 18.9087 27.7107 18.9169C27.7612 18.9215 27.8109 18.9252 27.8614 18.9307C27.9863 18.9427 28.1113 18.9564 28.2362 18.9711C28.2528 18.973 28.2693 18.9748 28.2849 18.9767C28.4264 18.9932 28.5688 19.0116 28.7112 19.0309C28.7535 19.0364 28.7957 19.0437 28.838 19.0492C28.9381 19.063 29.0383 19.0777 29.1375 19.0933C29.1908 19.1016 29.245 19.1108 29.2983 19.12C29.3865 19.1347 29.4756 19.1485 29.5638 19.1641C29.6226 19.1742 29.6805 19.1861 29.7393 19.1972C29.8229 19.2128 29.9056 19.2284 29.9892 19.2449C30.0498 19.2569 30.1104 19.2707 30.172 19.2835C30.2528 19.3001 30.3328 19.3175 30.4136 19.335C30.4752 19.3487 30.5367 19.3634 30.5992 19.3781C30.6782 19.3965 30.7572 19.4149 30.8353 19.4342C30.8978 19.4498 30.9603 19.4663 31.0218 19.482C31.099 19.5022 31.1762 19.5224 31.2533 19.5435C31.3158 19.561 31.3783 19.5784 31.4408 19.5968C31.517 19.6189 31.5924 19.6409 31.6686 19.6639C31.7311 19.6832 31.7926 19.7025 31.8551 19.7218C31.9304 19.7456 32.0049 19.7695 32.0793 19.7943C32.1408 19.8145 32.2024 19.8366 32.2639 19.8577C32.3053 19.8724 32.3466 19.8871 32.388 19.9018C31.1238 22.9419 28.9041 25.0265 26.6385 26.807ZM12.5737 18.6478C13.0367 17.8108 13.5889 16.9931 14.2412 16.1764C16.3111 13.5846 19.0553 11.4403 21.7491 9.47422C21.7821 9.53485 21.8143 9.59641 21.8464 9.65704C21.8566 9.67634 21.8657 9.69563 21.8758 9.71492C21.8988 9.75902 21.9209 9.80312 21.9429 9.84814C21.9558 9.87387 21.9677 9.89959 21.9806 9.9244C21.999 9.96298 22.0182 10.0007 22.0366 10.0392C22.0495 10.0668 22.0633 10.0953 22.0761 10.1228C22.0927 10.1587 22.1101 10.1954 22.1267 10.2313C22.1395 10.2607 22.1533 10.2891 22.1662 10.3185C22.1818 10.3534 22.1974 10.3893 22.213 10.4242C22.2259 10.4536 22.2387 10.4839 22.2516 10.5133C22.2663 10.5482 22.281 10.5831 22.2957 10.618C22.3086 10.6484 22.3205 10.6778 22.3334 10.7081C22.3481 10.743 22.3619 10.7779 22.3756 10.8128C22.3876 10.8422 22.3995 10.8725 22.4115 10.9019C22.4252 10.9378 22.439 10.9727 22.4528 11.0085C22.4638 11.0379 22.4758 11.0664 22.4868 11.0958C22.5006 11.1334 22.5144 11.1702 22.5281 11.2069C22.5382 11.2336 22.5484 11.2612 22.5585 11.2878C22.5759 11.3356 22.5925 11.3824 22.6099 11.4302C22.6219 11.4624 22.6329 11.4954 22.6439 11.5276C22.6595 11.5735 22.6761 11.6195 22.6917 11.6654C22.7009 11.693 22.7101 11.7196 22.7192 11.7472C22.7312 11.783 22.7431 11.8188 22.7551 11.8547C22.7643 11.8841 22.7734 11.9125 22.7826 11.9419C22.7937 11.9759 22.8038 12.009 22.8148 12.0421C22.824 12.0715 22.8332 12.1009 22.8423 12.1303C22.8525 12.1624 22.8626 12.1955 22.8717 12.2277C22.8809 12.2571 22.8892 12.2865 22.8975 12.3149C22.9067 12.3471 22.9168 12.3792 22.926 12.4114C22.9342 12.4408 22.9425 12.4693 22.9508 12.4978C22.9599 12.529 22.9682 12.5612 22.9774 12.5924C22.9857 12.6209 22.993 12.6494 23.0013 12.6778C23.0105 12.71 23.0187 12.7412 23.027 12.7725C23.0344 12.8 23.0417 12.8267 23.0491 12.8533C23.0583 12.8864 23.0665 12.9195 23.0748 12.9525C23.0812 12.9773 23.0877 13.0021 23.0941 13.026C23.1033 13.0637 23.1125 13.1005 23.1216 13.1381C23.1262 13.1574 23.1317 13.1767 23.1363 13.196C23.1501 13.2511 23.163 13.3053 23.1758 13.3595C23.1804 13.3788 23.185 13.3981 23.1896 13.4174C23.1979 13.4523 23.2062 13.4872 23.2135 13.5221C23.219 13.5442 23.2236 13.5662 23.2282 13.5883C23.2356 13.6195 23.242 13.6508 23.2493 13.6811C23.2539 13.7041 23.2595 13.7261 23.264 13.7482C23.2705 13.7766 23.2769 13.806 23.2824 13.8336C23.287 13.8566 23.2916 13.8795 23.2971 13.9016C23.3026 13.9291 23.3081 13.9567 23.3137 13.9834C23.3183 14.0054 23.3228 14.0275 23.3265 14.0486C23.332 14.0752 23.3375 14.1019 23.3421 14.1276C23.3458 14.1487 23.3504 14.1699 23.3541 14.1901C23.3596 14.2167 23.3642 14.2434 23.3688 14.2691C23.3725 14.2884 23.3761 14.3067 23.3798 14.326C23.3853 14.3536 23.3899 14.3802 23.3945 14.4069C23.3973 14.4234 23.4009 14.44 23.4037 14.4556C23.4092 14.4859 23.4147 14.5153 23.4193 14.5447C23.4212 14.5566 23.4239 14.5686 23.4257 14.5805C23.4331 14.621 23.4395 14.6605 23.446 14.699C23.2732 14.8396 23.1023 14.982 22.9333 15.1263C22.7468 15.2852 22.5621 15.446 22.3802 15.6086C22.1009 15.8576 21.8271 16.1102 21.558 16.3675C21.2566 16.655 20.9626 16.9481 20.6751 17.2458C20.3259 17.6068 19.986 17.9743 19.6589 18.3473C18.6759 19.47 17.7755 20.6671 16.9845 21.9056C16.8623 22.0967 16.7429 22.2887 16.6253 22.4835C16.5858 22.5478 16.549 22.613 16.5104 22.6782C16.4324 22.8087 16.3552 22.9392 16.2789 23.0715C16.2697 23.0871 16.2596 23.1027 16.2514 23.1192C16.2504 23.1183 16.2504 23.1174 16.2495 23.1174C16.2403 23.1027 16.2302 23.088 16.221 23.0724C16.2054 23.0476 16.1889 23.0228 16.1724 22.9979C16.1558 22.9722 16.1384 22.9456 16.1209 22.9199C16.1126 22.9079 16.1053 22.896 16.097 22.884C16.0869 22.8693 16.0768 22.8546 16.0676 22.8399C16.0483 22.8124 16.029 22.7848 16.0097 22.7572C15.9923 22.7315 15.9739 22.7067 15.9555 22.681C15.9537 22.6782 15.9509 22.6746 15.9491 22.6718C15.9463 22.6681 15.9445 22.6654 15.9418 22.6617C15.9261 22.6396 15.9096 22.6185 15.894 22.5965C15.8756 22.5707 15.8563 22.545 15.8379 22.5193C15.8223 22.4982 15.8058 22.4761 15.7892 22.455C15.7773 22.4394 15.7654 22.4237 15.7534 22.4072C15.7406 22.3897 15.7277 22.3723 15.7139 22.3558C15.69 22.3254 15.6652 22.2942 15.6413 22.2639C15.622 22.24 15.6037 22.2161 15.5844 22.1922C15.5834 22.1913 15.5825 22.1904 15.5816 22.1885C15.5504 22.15 15.5182 22.1114 15.4851 22.0728C15.4585 22.0406 15.4309 22.0085 15.4034 21.9763C15.3887 21.9589 15.3731 21.9414 15.3574 21.923C15.34 21.9028 15.3225 21.8826 15.3042 21.8615C15.2821 21.8367 15.2601 21.8128 15.238 21.788C15.216 21.7632 15.193 21.7384 15.17 21.7136C15.1682 21.7117 15.1663 21.7099 15.1645 21.708C15.1608 21.7044 15.1572 21.6998 15.1535 21.6961C15.1296 21.6704 15.1048 21.6447 15.08 21.618C15.0524 21.5886 15.0239 21.5592 14.9955 21.5298C14.9808 21.5142 14.9651 21.4986 14.9495 21.483C14.9357 21.4692 14.922 21.4554 14.9082 21.4416C14.8825 21.4159 14.8567 21.3892 14.8301 21.3635C14.8034 21.3369 14.775 21.3102 14.7474 21.2836C14.729 21.2661 14.7116 21.2487 14.6932 21.2312C14.6914 21.2303 14.6904 21.2285 14.6886 21.2276C14.6785 21.2174 14.6675 21.2083 14.6574 21.1982C14.6289 21.1715 14.6004 21.1458 14.571 21.1191C14.5398 21.0907 14.5085 21.0622 14.4773 21.0346C14.4617 21.0208 14.447 21.0071 14.4314 20.9933C14.4277 20.9896 14.4231 20.9859 14.4185 20.9823C14.4084 20.9731 14.3983 20.9648 14.3882 20.9556C14.356 20.928 14.3239 20.8996 14.2908 20.872C14.2605 20.8463 14.2292 20.8196 14.198 20.7939C14.1842 20.782 14.1704 20.7709 14.1567 20.759C14.1557 20.7581 14.1539 20.7572 14.153 20.7562C14.1346 20.7406 14.1144 20.7259 14.096 20.7103C14.0639 20.6846 14.0326 20.6598 13.9996 20.6341C13.9646 20.6065 13.9288 20.5798 13.893 20.5523C13.8783 20.5413 13.8636 20.5302 13.8489 20.5183C13.8305 20.5045 13.8112 20.4907 13.7919 20.476C13.7552 20.4485 13.7166 20.4218 13.6789 20.3943C13.6449 20.3704 13.6118 20.3465 13.5779 20.3226C13.5696 20.3171 13.5613 20.3107 13.5531 20.3051C13.5521 20.3042 13.5512 20.3033 13.5503 20.3033C13.52 20.2822 13.4887 20.262 13.4575 20.2408C13.4235 20.2179 13.3904 20.1949 13.3555 20.1719C13.3243 20.1517 13.2921 20.1315 13.2609 20.1113C13.2388 20.0966 13.2168 20.0828 13.1938 20.069C13.1709 20.0543 13.1479 20.0396 13.1249 20.0259C13.0753 19.9955 13.0248 19.9652 12.9742 19.9358C12.9448 19.9184 12.9154 19.9 12.886 19.8834C12.8842 19.8825 12.8833 19.8816 12.8815 19.8807C12.8805 19.8807 12.8805 19.8798 12.8796 19.8798C12.8006 19.8338 12.7207 19.7897 12.6398 19.7456C12.6242 19.7374 12.6086 19.7291 12.593 19.7208C12.5819 19.7144 12.57 19.7089 12.559 19.7025C12.5314 19.6878 12.5039 19.674 12.4763 19.6593C12.4451 19.6427 12.4147 19.6262 12.3826 19.6106C12.3504 19.594 12.3174 19.5793 12.2852 19.5628C12.2356 19.5389 12.1878 19.5141 12.1373 19.4902C12.2751 19.2082 12.4193 18.927 12.5737 18.6478Z" fill="#041D04"/>
<path d="M26.9795 5.49135C27.1191 5.49135 27.2587 5.44633 27.3773 5.35354L27.4039 5.33241C27.6823 5.11191 27.7291 4.70767 27.5086 4.42929C27.2881 4.15092 26.883 4.10406 26.6055 4.32456L26.5816 4.34385C26.3023 4.56343 26.2546 4.96767 26.4741 5.24697C26.6009 5.40774 26.7893 5.49135 26.9795 5.49135Z" fill="#041D04"/>
<path d="M29.9633 8.57029C29.9982 8.59326 30.0359 8.61347 30.0745 8.63001C30.1131 8.64563 30.1535 8.65757 30.1949 8.66676C30.2362 8.67503 30.2785 8.6787 30.3207 8.6787C30.4898 8.6787 30.6561 8.6098 30.7755 8.49036C30.8949 8.37093 30.9638 8.20556 30.9638 8.03559C30.9638 7.99425 30.9592 7.95199 30.951 7.90972C30.9427 7.8693 30.9308 7.82888 30.9142 7.78937C30.8986 7.75078 30.8784 7.71403 30.8554 7.67912C30.8315 7.64329 30.8049 7.61022 30.7755 7.58082C30.6257 7.43198 30.4043 7.36308 30.1949 7.40534C30.1535 7.41361 30.1131 7.42555 30.0745 7.44209C30.0359 7.45771 29.9982 7.47792 29.9633 7.50089C29.9284 7.52478 29.8954 7.55142 29.866 7.58082C29.8366 7.61022 29.809 7.64329 29.786 7.67912C29.7631 7.71403 29.7428 7.75078 29.7263 7.78937C29.7107 7.82888 29.6987 7.8693 29.6905 7.90972C29.6813 7.95199 29.6776 7.99425 29.6776 8.03559C29.6776 8.20556 29.7465 8.37093 29.866 8.49036C29.8954 8.51976 29.9284 8.54732 29.9633 8.57029Z" fill="#041D04"/>
</svg>
