<svg width="1165" height="1165" viewBox="0 0 1165 1165" fill="none" xmlns="http://www.w3.org/2000/svg">
<circle cx="582.5" cy="582.5" r="582.5" fill="#059033"/>
<path d="M430.859 901.726V853.707C435.907 805.912 470.472 734.985 510.501 684.544C549 659.145 587.346 652.022 625.497 670.177C627.598 671.343 629.692 672.416 631.782 673.398L631.801 673.408L631.867 673.438C639.637 677.082 647.318 679.455 654.909 680.555L654.927 680.557C663.076 681.939 671.503 682.243 680.211 681.471L680.238 681.47C692.917 680.761 704.679 678.183 715.525 673.742L716.075 673.516L716.599 673.297C727.101 668.867 736.703 662.683 745.406 654.744L745.635 654.536L745.655 654.518C792.019 667.057 830.296 650.124 857.542 615.939C849.125 615.572 842.649 615.21 836.251 613.278C830.123 611.395 825.879 608.515 823.522 604.637C817.946 595.851 816.461 588.012 819.07 581.118C834.129 589.422 846.991 593.076 857.657 592.078C875.477 589.937 881.034 581.411 874.323 566.506C816.209 481.914 831.402 399.696 751.487 357.365C643.679 308.635 536.802 325.183 430.859 407.006V297.528C434.17 276.822 452.113 261 473.752 261H723.762C782.343 261 832.838 270.459 875.248 289.375C917.657 308.292 950.457 335.599 973.645 371.296C996.833 406.994 1008.43 449.252 1008.43 498.068C1008.43 546.276 996.833 588.075 973.645 623.467C950.457 658.861 917.657 686.167 875.248 705.389C832.838 724.611 782.343 734.222 723.762 734.222H655.266C632.91 734.222 614.498 751.111 612.093 772.826V901.726H430.859Z" fill="white"/>
<path fill-rule="evenodd" clip-rule="evenodd" d="M679.912 583.215C676.917 577.437 677.374 566.569 681.282 550.611C699.149 500.167 716.867 471.306 734.434 464.033C758.48 460.245 771.997 470.839 774.984 495.814C776.898 532.142 756.44 561.275 713.612 583.215C699.174 591.723 687.94 591.723 679.912 583.215Z" fill="white" stroke="white" stroke-width="0.755906" stroke-miterlimit="22.9256"/>
<path fill-rule="evenodd" clip-rule="evenodd" d="M524.286 441.568C531.117 462.776 554.589 478.667 594.7 489.242C584.866 455.169 597.561 437.817 632.783 437.184C612.231 375.54 584.559 352.799 549.766 368.962C523.761 384.928 515.268 409.13 524.286 441.568Z" fill="white"/>
<path fill-rule="evenodd" clip-rule="evenodd" d="M857.542 615.938C849.082 615.57 842.582 615.206 836.153 613.248C788.132 639.001 748.811 651.294 708.974 623.898C705.916 629.802 704.956 640.443 716.08 651.168C670.563 663.532 644.324 647.762 615.253 630.619C540.794 594.835 440.503 762.404 430.859 853.707C484.32 760.516 565.346 636.874 631.801 673.408C646.843 680.312 662.98 682.999 680.211 681.472C705.869 679.994 727.684 671.01 745.655 654.518C792.019 667.057 830.295 650.124 857.542 615.938Z" fill="#DBE2E2"/>
<path d="M744.072 520.356C755.21 520.356 764.24 511.326 764.24 500.187C764.24 489.049 755.21 480.019 744.072 480.019C732.933 480.019 723.903 489.049 723.903 500.187C723.903 511.326 732.933 520.356 744.072 520.356Z" fill="#059033"/>
<path fill-rule="evenodd" clip-rule="evenodd" d="M554.609 404.583C565.336 393.691 586.344 381.506 603.089 417.769C588.543 425.547 577.683 438.735 570.51 457.33C538.815 442.532 540.689 418.938 554.609 404.583Z" fill="#059033"/>
<path fill-rule="evenodd" clip-rule="evenodd" d="M402.521 848.234C369.484 879.743 318.141 903.637 281.186 903.779L270.744 903.815L275.701 895.375C283.983 881.264 312.554 853.854 330.826 842.49L348.082 831.756L315.741 830.112C266.766 827.623 224.095 815.356 181.859 791.663C169.853 784.929 158.939 778.348 157.607 777.031C154.848 774.32 182.023 765.453 208.409 760.466C233.529 755.715 290.216 756.333 314.756 761.623C325.967 764.022 335.461 765.712 335.85 765.311C336.256 764.867 327.853 757.96 317.213 749.827C264.733 709.715 216.081 640.479 193.253 573.416C186.404 553.296 184.586 544.7 187.18 544.7C191.523 544.7 236.83 565.412 252.88 574.736C297.632 600.728 341.741 640.332 371.287 681.043C379.908 692.924 386.25 700.213 385.38 697.244C379.501 677.182 376.962 650.777 376.94 609.497C376.912 557.349 380.43 533.193 394.834 486.651C403.225 459.539 426.535 407.006 430.175 407.006V724.213L429.898 723.944L369.24 782.826H402.521V848.234Z" fill="white"/>
</svg>
