<svg width="42" height="41" viewBox="0 0 42 41" fill="none" xmlns="http://www.w3.org/2000/svg">
<path d="M21.2772 39.7536C31.9787 39.7536 40.654 31.0783 40.654 20.3768C40.654 9.67528 31.9787 1 21.2772 1C10.5757 1 1.90039 9.67528 1.90039 20.3768C1.90039 31.0783 10.5757 39.7536 21.2772 39.7536Z" stroke="white" stroke-width="2" stroke-miterlimit="10" stroke-linecap="round" stroke-linejoin="round"/>
<path d="M23.9496 17.1027C29.3083 17.37 33.3039 18.4391 33.3039 19.7086C33.3039 21.1785 27.9185 22.3812 21.277 22.3812C14.6354 22.3812 9.25 21.1785 9.25 19.7086C9.25 18.4257 13.2857 17.3566 18.6845 17.1027" stroke="white" stroke-width="2" stroke-miterlimit="10" stroke-linecap="round" stroke-linejoin="round"/>
<path d="M29.9631 11.6907H12.5908" stroke="white" stroke-width="2" stroke-miterlimit="10" stroke-linecap="round" stroke-linejoin="round"/>
<path d="M21.2769 22.3812V31.0673" stroke="white" stroke-width="2" stroke-miterlimit="10" stroke-linecap="round" stroke-linejoin="round"/>
<path d="M21.2769 11.6907V19.7087" stroke="white" stroke-width="2" stroke-miterlimit="10" stroke-linecap="round" stroke-linejoin="round"/>
</svg>
