<svg width="41" height="41" viewBox="0 0 41 41" fill="none" xmlns="http://www.w3.org/2000/svg">
<path d="M20.6229 39.7536C31.3244 39.7536 39.9997 31.0783 39.9997 20.3768C39.9997 9.67528 31.3244 1 20.6229 1C9.92138 1 1.24609 9.67528 1.24609 20.3768C1.24609 31.0783 9.92138 39.7536 20.6229 39.7536Z" stroke="white" stroke-width="2" stroke-miterlimit="10" stroke-linecap="round" stroke-linejoin="round"/>
<path d="M27.4246 22.9559C26.5827 22.4882 25.6339 22.3011 24.605 22.3011C23.7631 22.3011 22.6406 21.7532 22.6406 20.3501C22.6406 19.2409 23.4825 18.3991 24.605 18.3991C25.5404 18.3991 26.5827 18.212 27.4246 17.7443C29.0149 16.8222 29.9637 15.1384 29.9637 13.3745C29.9637 11.6105 29.0282 9.92672 27.4246 9.00465C26.6763 8.53694 25.7409 8.34985 24.8856 8.34985C24.0571 8.34985 23.1083 8.53694 22.3599 8.99129C20.7697 9.92672 19.8209 11.5971 19.8209 13.3745C19.8209 14.2965 20.2084 15.232 20.6762 16.0738C21.0503 16.8088 21.2374 18.1184 19.9145 18.7732C18.9924 19.3211 17.763 18.9603 17.2017 18.0249C16.6404 17.2765 15.9856 16.5282 15.1438 15.9803C13.5535 15.0449 11.6693 15.0449 10.0791 15.9803C8.48883 16.9024 7.54004 18.5861 7.54004 20.3501C7.54004 22.1274 8.47547 23.7978 10.0791 24.7333C11.6693 25.6553 13.5535 25.6553 15.1438 24.7333C15.9856 24.2655 16.6404 23.5172 17.1082 22.6753C17.4823 22.0339 18.5113 21.192 19.8209 21.9403C20.7563 22.4882 21.0503 23.7043 20.5826 24.6264C20.1149 25.4816 19.8209 26.4037 19.8209 27.3391C19.8209 29.1031 20.7563 30.7735 22.3599 31.7089C23.9502 32.631 25.8344 32.631 27.4246 31.7089C29.0149 30.7735 29.9637 29.1031 29.9637 27.3391C29.9637 25.5618 29.0282 23.8914 27.4246 22.9559Z" stroke="white" stroke-width="2" stroke-miterlimit="10" stroke-linecap="round" stroke-linejoin="round"/>
</svg>
