<svg width="234" height="278" viewBox="0 0 234 278" fill="none" xmlns="http://www.w3.org/2000/svg">
<path d="M214.103 268.955V137.808H229.973V107.601H227.291L165.13 46.9554L158.813 53.4298L214.339 107.601H200.83L117 26.4762L33.1705 107.602H19.662L117 12.6371L150.861 45.6718L157.178 39.1969L117 0L6.70896 107.602H4.02669V137.809H19.8971V157.093H28.9424V137.809H191.064V128.763H13.072V116.648H36.8307L117 39.0639L187.822 107.601H93.1936V116.647H220.928V128.762H205.057V268.954H192.941V168.44H41.0588V268.955H28.943V165.029H19.8971V268.954H0.614136V278H233.386V268.955H214.103ZM183.896 268.955H50.1046V254.194H183.896L183.896 268.955ZM183.896 245.148H50.1046V230.388H183.896L183.896 245.148ZM183.896 221.342H50.1046V203.936H183.896L183.896 221.342ZM183.896 194.891H50.1046V177.485H183.896L183.896 194.891Z" fill="black"/>
</svg>
