<svg width="269" height="357" viewBox="0 0 269 357" fill="none" xmlns="http://www.w3.org/2000/svg">
<path fill-rule="evenodd" clip-rule="evenodd" d="M255.816 188.498L268.34 181.267L255.816 174.037C254.716 173.401 231.778 160.343 201.061 156.944C223.615 131.33 231.123 101.71 231.454 100.372L234.765 86.9536L221.347 90.2652C220 90.5978 190.012 98.1988 164.291 121.086C164.458 117.783 164.542 114.507 164.542 111.267C164.542 58.5323 142.835 16.301 141.911 14.5288L134.508 0.332886L127.104 14.5288C126.18 16.301 104.473 58.5323 104.473 111.267C104.473 114.508 104.557 117.783 104.724 121.086C79.002 98.1988 49.0148 90.5978 47.6678 90.2652L34.2501 86.9536L37.561 100.372C37.8913 101.71 45.4027 131.332 67.9548 156.944C37.2378 160.344 14.298 173.402 13.1985 174.037L0.675049 181.266L13.1985 188.497C13.7178 188.797 19.1135 191.869 27.896 195.385C32.7432 178.238 48.5065 165.673 67.2053 165.673C75.9625 165.673 84.0752 168.43 90.7246 173.122L113.009 174.205L93.2493 158.149C90.347 155.792 87.5902 153.31 85.0549 150.775C72.3527 138.073 64.2244 123.135 59.4467 112.128C70.4255 116.888 85.3225 125.002 98.0754 137.755C101.992 141.673 105.733 146.068 109.194 150.82L130.404 179.942L124.166 144.459C122.18 133.162 121.174 121.994 121.174 111.265C121.174 82.1907 128.553 56.1266 134.508 39.8274C140.465 56.1282 147.844 82.1907 147.844 111.265C147.844 121.994 146.837 133.162 144.851 144.459L138.612 179.943L159.823 150.821C163.284 146.068 167.025 141.674 170.941 137.756C183.631 125.067 198.551 116.943 209.555 112.163C204.774 123.168 196.651 138.087 183.962 150.777C181.426 153.312 178.669 155.793 175.767 158.152L156.009 174.207L177.11 173.182C183.809 168.373 192.023 165.541 200.899 165.541C219.76 165.541 235.632 178.325 240.33 195.7C249.58 192.054 255.282 188.807 255.816 188.498Z" fill="#059033"/>
<path fill-rule="evenodd" clip-rule="evenodd" d="M155.336 257.252C148.974 262.821 150.677 278.479 164.443 286.999C177.193 294.893 193.586 276.679 182.053 265.142C171.992 255.083 165.051 248.75 155.336 257.252Z" fill="black"/>
<path fill-rule="evenodd" clip-rule="evenodd" d="M114.457 257.252C104.742 248.75 97.8002 255.083 87.7406 265.142C76.2074 276.679 92.5999 294.893 105.35 286.999C119.116 278.479 120.819 262.821 114.457 257.252Z" fill="black"/>
<path fill-rule="evenodd" clip-rule="evenodd" d="M229.621 206.769C229.621 190.824 216.696 177.901 200.749 177.901C186.077 177.901 173.966 188.852 172.129 203.026C167.207 201.163 162.254 200.017 157.473 199.335C150.332 198.311 143.528 198.259 137.586 198.255C136.666 198.255 135.768 198.259 134.897 198.259C134.028 198.259 133.13 198.255 132.207 198.255C126.924 198.259 120.964 198.303 114.686 199.027C109.983 199.572 105.094 200.503 100.193 202.117C99.351 202.391 98.5055 202.696 97.6638 203.014C95.8197 188.844 83.7116 177.9 69.044 177.9C53.0963 177.901 40.1722 190.825 40.1722 206.769C40.1722 221.143 50.6702 233.055 64.4145 235.266C63.4757 237.217 62.5599 239.227 61.7069 241.372C51.891 265.926 48.9199 284.136 48.9199 296.938C48.9199 301.352 49.2756 305.125 49.8285 308.293C50.3853 311.461 51.1382 314.02 51.9693 316.06C54.2359 321.621 57.7856 326.039 61.7768 329.459C67.776 334.601 74.7315 337.651 80.7111 339.85C83.7007 340.945 86.4571 341.82 88.7055 342.569C89.8254 342.941 90.816 343.281 91.6173 343.59C92.4182 343.893 93.0339 344.172 93.3532 344.35C94.7777 345.121 96.6992 346.305 99.0735 347.614C102.635 349.588 107.246 351.843 113.136 353.564C119.023 355.293 126.191 356.488 134.897 356.484C146.504 356.491 155.378 354.351 162.129 351.699C165.505 350.375 168.346 348.931 170.721 347.614C173.091 346.306 175.013 345.122 176.441 344.35C176.868 344.112 177.813 343.704 179.037 343.274C181.196 342.495 184.223 341.568 187.61 340.381C192.696 338.585 198.632 336.189 204.162 332.412C206.926 330.52 209.586 328.28 211.941 325.572C214.297 322.872 216.337 319.704 217.824 316.061C218.655 314.024 219.408 311.461 219.965 308.293C220.521 305.125 220.874 301.353 220.874 296.934C220.87 284.136 217.903 265.923 208.087 241.372C207.233 239.228 206.325 237.211 205.386 235.266C219.126 233.048 229.621 221.14 229.621 206.769ZM67.2053 219.52C60.025 219.52 54.2041 213.699 54.2041 206.519C54.2041 199.339 60.025 193.519 67.2053 193.519C74.3853 193.519 80.2061 199.339 80.2061 206.519C80.2061 213.699 74.3853 219.52 67.2053 219.52ZM200.899 219.387C193.719 219.387 187.898 213.567 187.898 206.386C187.898 199.206 193.719 193.385 200.899 193.385C208.08 193.385 213.9 199.206 213.9 206.386C213.9 213.567 208.08 219.387 200.899 219.387ZM210.264 296.934C210.264 300.785 209.956 303.945 209.514 306.46C209.077 308.971 208.502 310.837 208.005 312.046C206.443 315.853 204.068 318.857 201.105 321.417C196.672 325.237 190.885 327.908 185.439 329.889C182.716 330.884 180.09 331.718 177.735 332.505C176.552 332.898 175.438 333.28 174.389 333.68C173.334 334.084 172.348 334.5 171.373 335.027C169.551 336.025 167.711 337.16 165.586 338.332C162.41 340.09 158.62 341.938 153.678 343.384C148.741 344.831 142.646 345.874 134.897 345.878C124.562 345.87 117.18 344.03 111.537 341.823C108.714 340.714 106.326 339.505 104.207 338.332C102.082 337.16 100.241 336.024 98.42 335.027C97.1214 334.33 95.794 333.814 94.3321 333.287C91.7874 332.375 88.8461 331.481 85.7076 330.375C81.0078 328.724 75.922 326.61 71.6221 323.657C69.4666 322.188 67.5118 320.515 65.8503 318.605C64.1885 316.694 62.812 314.553 61.7881 312.046C61.2907 310.837 60.7159 308.971 60.2786 306.459C59.8371 303.944 59.5257 300.784 59.5287 296.937C59.5257 285.782 62.1328 268.87 71.5552 245.307C75.2428 236.081 79.6309 229.333 84.3568 224.322C87.9031 220.56 91.6498 217.763 95.5408 215.626C101.372 212.429 107.571 210.73 113.826 209.832C120.073 208.934 126.345 208.86 132.207 208.86C133.109 208.86 134.006 208.868 134.897 208.868C135.783 208.868 136.681 208.86 137.586 208.86C142.794 208.86 148.329 208.919 153.886 209.565C158.052 210.047 162.225 210.856 166.287 212.191C172.382 214.202 178.228 217.355 183.648 222.518C189.06 227.69 194.086 234.931 198.238 245.306C207.66 268.868 210.268 285.783 210.264 296.934Z" fill="black"/>
<path fill-rule="evenodd" clip-rule="evenodd" d="M155.741 307.491C153.456 310.132 150.529 311.431 147.758 311.431C145.283 311.416 142.902 310.451 140.898 308.192C139.44 306.534 138.191 304.108 137.489 300.792C142.586 299.931 146.385 296.604 146.385 292.62C146.385 287.983 141.243 284.225 134.897 284.225C128.55 284.225 123.405 287.983 123.405 292.62C123.405 296.311 126.672 299.442 131.21 300.566C130.549 304.035 129.325 306.549 127.904 308.245C126.962 309.376 125.927 310.159 124.855 310.674C123.786 311.187 122.67 311.431 121.535 311.431C118.991 311.431 116.264 310.181 114.094 307.544C113.166 306.409 111.493 306.245 110.362 307.173C109.23 308.1 109.063 309.77 109.991 310.905C113.025 314.614 117.228 316.736 121.535 316.736C123.445 316.736 125.363 316.313 127.148 315.457C129.83 314.177 132.181 311.925 133.88 308.85C134.055 308.538 134.217 308.211 134.377 307.881C135.104 309.309 135.947 310.593 136.918 311.698C139.845 315.044 143.814 316.751 147.758 316.732C152.194 316.735 156.564 314.658 159.758 310.956C160.712 309.847 160.589 308.174 159.48 307.217C158.371 306.26 156.698 306.382 155.741 307.491Z" fill="black"/>
</svg>
