<svg width="69" height="52" viewBox="0 0 69 52" fill="none" xmlns="http://www.w3.org/2000/svg">
<path d="M21.9216 51.3658V47.5163C22.3263 43.6846 25.0973 37.9985 28.3064 33.9548C31.3927 31.9186 34.4669 31.3476 37.5253 32.803C37.6938 32.8965 37.8617 32.9825 38.0292 33.0612L38.0307 33.062L38.0361 33.0645C38.659 33.3566 39.2747 33.5468 39.8833 33.635L39.8848 33.6352C40.538 33.7459 41.2136 33.7703 41.9117 33.7085L41.9139 33.7083C42.9303 33.6515 43.8733 33.4448 44.7428 33.0888L44.7869 33.0707L44.8289 33.0531C45.6708 32.6979 46.4405 32.2022 47.1383 31.5658L47.1566 31.5491L47.1582 31.5477C50.8752 32.5529 53.9438 31.1954 56.128 28.4548C55.4532 28.4254 54.9341 28.3964 54.4212 28.2415C53.9299 28.0906 53.5896 27.8597 53.4007 27.5487C52.9537 26.8444 52.8347 26.216 53.0438 25.6633C54.2511 26.329 55.2821 26.622 56.1372 26.5419C57.5658 26.3703 58.0113 25.6868 57.4734 24.4919C52.8144 17.7103 54.0325 11.119 47.6258 7.72542C38.983 3.81882 30.4149 5.14546 21.9216 11.705V2.9284C22.1871 1.26843 23.6255 0 25.3602 0H45.4032C50.0994 0 54.1476 0.758292 57.5474 2.27476C60.9474 3.79134 63.5768 5.98049 65.4358 8.84227C67.2948 11.7041 68.2242 15.0918 68.2242 19.0053C68.2242 22.8701 67.2948 26.2211 65.4358 29.0584C63.5768 31.8958 60.9474 34.0849 57.5474 35.6259C54.1476 37.1669 50.0994 37.9374 45.4032 37.9374H39.9119C38.1197 37.9374 36.6436 39.2913 36.4508 41.0322V51.3658H21.9216Z" fill="black"/>
<path fill-rule="evenodd" clip-rule="evenodd" d="M41.8877 25.8314C41.6476 25.3682 41.6842 24.497 41.9975 23.2176C43.4299 19.1736 44.8503 16.8599 46.2587 16.2768C48.1864 15.9731 49.27 16.8224 49.5095 18.8246C49.6629 21.7369 48.0228 24.0725 44.5894 25.8314C43.4319 26.5134 42.5313 26.5134 41.8877 25.8314Z" fill="black" stroke="black" stroke-width="0.755906" stroke-miterlimit="22.9256"/>
<path fill-rule="evenodd" clip-rule="evenodd" d="M29.4116 14.4758C29.9592 16.176 31.8409 17.45 35.0565 18.2977C34.2682 15.5662 35.2859 14.1751 38.1096 14.1243C36.462 9.18248 34.2435 7.35941 31.4543 8.65515C29.3695 9.93511 28.6886 11.8753 29.4116 14.4758Z" fill="black"/>
<path fill-rule="evenodd" clip-rule="evenodd" d="M56.128 28.4548C55.4498 28.4252 54.9287 28.3961 54.4133 28.2391C50.5636 30.3037 47.4112 31.2892 44.2176 29.0929C43.9725 29.5662 43.8955 30.4193 44.7873 31.2791C41.1383 32.2703 39.0347 31.006 36.7041 29.6317C30.7349 26.7629 22.6947 40.1967 21.9216 47.5163C26.2074 40.0453 32.7032 30.1331 38.0307 33.062C39.2367 33.6155 40.5304 33.8309 41.9117 33.7085C43.9686 33.59 45.7176 32.8698 47.1582 31.5477C50.8752 32.5529 53.9437 31.1954 56.128 28.4548Z" fill="#DCDDDD"/>
<path d="M47.0314 20.7921C47.9244 20.7921 48.6483 20.0682 48.6483 19.1752C48.6483 18.2822 47.9244 17.5583 47.0314 17.5583C46.1384 17.5583 45.4146 18.2822 45.4146 19.1752C45.4146 20.0682 46.1384 20.7921 47.0314 20.7921Z" fill="white"/>
<path fill-rule="evenodd" clip-rule="evenodd" d="M31.8424 11.5108C32.7024 10.6376 34.3865 9.66075 35.729 12.5679C34.5628 13.1915 33.6922 14.2487 33.1172 15.7394C30.5762 14.5531 30.7265 12.6616 31.8424 11.5108Z" fill="white"/>
<path fill-rule="evenodd" clip-rule="evenodd" d="M19.6499 47.0775C17.0014 49.6035 12.8853 51.5191 9.92263 51.5305L9.08556 51.5333L9.48292 50.8567C10.1468 49.7254 12.4374 47.5281 13.9022 46.617L15.2856 45.7565L12.6929 45.6247C8.76661 45.4252 5.3458 44.4418 1.95978 42.5423C0.997278 42.0025 0.12236 41.4748 0.0155366 41.3693C-0.205624 41.1519 1.97296 40.4411 4.08822 40.0413C6.10208 39.6604 10.6466 39.71 12.6139 40.134C13.5127 40.3264 14.2738 40.4618 14.305 40.4297C14.3375 40.3941 13.6639 39.8404 12.8109 39.1884C8.60367 35.9727 4.70333 30.4222 2.87322 25.0458C2.32412 23.4329 2.17841 22.7437 2.38635 22.7437C2.73454 22.7437 6.36671 24.4042 7.65342 25.1516C11.2411 27.2354 14.7772 30.4104 17.1459 33.6741C17.837 34.6266 18.3454 35.2109 18.2757 34.9729C17.8044 33.3646 17.6009 31.2478 17.5991 27.9383C17.5969 23.7578 17.8789 21.8213 19.0336 18.0901C19.7063 15.9165 21.575 11.705 21.8669 11.705V37.135L21.8446 37.1134L16.9818 41.8339H19.6499V47.0775Z" fill="black"/>
</svg>
