<svg width="33" height="34" viewBox="0 0 33 34" fill="none" xmlns="http://www.w3.org/2000/svg">
<path d="M13.938 31.1159L1.96456 19.1425C1.34677 18.5211 1 17.6805 1 16.8042C1 15.928 1.34677 15.0874 1.96456 14.466L13.938 2.49255C14.5594 1.87476 15.4 1.52799 16.2763 1.52799C17.1525 1.52799 17.9931 1.87476 18.6145 2.49255L30.588 14.466C31.2058 15.0874 31.5525 15.928 31.5525 16.8042C31.5525 17.6805 31.2058 18.5211 30.588 19.1425L18.6145 31.1159C18.3075 31.423 17.9429 31.6666 17.5417 31.8328C17.1405 31.999 16.7105 32.0845 16.2763 32.0845C15.842 32.0845 15.412 31.999 15.0108 31.8328C14.6096 31.6666 14.2451 31.423 13.938 31.1159Z" stroke="#059033" stroke-width="2" stroke-linecap="round" stroke-linejoin="round"/>
<path d="M16.2762 32.0842V16.8042" stroke="#059033" stroke-width="2" stroke-linecap="round" stroke-linejoin="round"/>
<path d="M4.83008 11.6008L16.2764 16.8042" stroke="#059033" stroke-width="2" stroke-linecap="round" stroke-linejoin="round"/>
<path d="M27.7225 11.6008L16.2762 16.8042" stroke="#059033" stroke-width="2" stroke-linecap="round" stroke-linejoin="round"/>
</svg>
