<svg width="31" height="31" viewBox="0 0 31 31" fill="none" xmlns="http://www.w3.org/2000/svg">
<g clip-path="url(#clip0_1447_592)">
<path d="M12.9813 13.2396C12.7861 13.2479 12.5946 13.2946 12.4175 13.377C12.2404 13.4594 12.0814 13.5759 11.9494 13.7199C11.8174 13.8639 11.7151 14.0325 11.6484 14.216C11.5817 14.3995 11.5518 14.5945 11.5604 14.7896C11.5518 14.9847 11.5817 15.1796 11.6484 15.3631C11.7151 15.5467 11.8174 15.7153 11.9494 15.8592C12.0814 16.0032 12.2404 16.1197 12.4175 16.2021C12.5946 16.2846 12.7861 16.3313 12.9813 16.3396C13.3923 16.3396 13.7866 16.1763 14.0773 15.8856C14.368 15.5949 14.5313 15.2006 14.5313 14.7896C14.5313 14.3785 14.368 13.9842 14.0773 13.6935C13.7866 13.4029 13.3923 13.2396 12.9813 13.2396Z" fill="white"/>
<path d="M18.0833 13.2396C17.7726 13.2136 17.4612 13.282 17.1899 13.4357C16.9186 13.5895 16.7 13.8215 16.5626 14.1014C16.4253 14.3814 16.3756 14.6963 16.42 15.0049C16.4644 15.3136 16.6009 15.6017 16.8116 15.8316C17.0223 16.0614 17.2975 16.2224 17.6011 16.2934C17.9047 16.3645 18.2228 16.3423 18.5136 16.2297C18.8044 16.1172 19.0545 15.9195 19.2312 15.6626C19.408 15.4057 19.5031 15.1014 19.5042 14.7896C19.5128 14.5945 19.4829 14.3996 19.4162 14.216C19.3495 14.0325 19.2472 13.8639 19.1152 13.7199C18.9832 13.576 18.8242 13.4594 18.6471 13.377C18.47 13.2946 18.2785 13.2479 18.0833 13.2396Z" fill="white"/>
<path d="M24.8645 1.29166H6.13538C5.36459 1.29166 4.62537 1.59785 4.08035 2.14288C3.53532 2.6879 3.22913 3.42712 3.22913 4.19791V23.4437C3.22913 24.2145 3.53532 24.9537 4.08035 25.4988C4.62537 26.0438 5.36459 26.35 6.13538 26.35H22.0229L21.2479 23.7021L23.0562 25.4458L24.7354 26.9958L27.7708 29.7083V4.19791C27.7708 3.42712 27.4646 2.6879 26.9196 2.14288C26.3745 1.59785 25.6353 1.29166 24.8645 1.29166ZM19.5041 19.8271L18.5354 18.6646C19.5687 18.4298 20.4846 17.8345 21.1187 16.9854C20.6079 17.315 20.0673 17.5961 19.5041 17.825C18.8423 18.1189 18.1489 18.3356 17.4375 18.4708C16.2426 18.6979 15.0157 18.6979 13.8208 18.4708C13.1152 18.3132 12.4239 18.0972 11.7541 17.825L10.7208 17.3729H10.5916C10.5916 17.3083 10.5916 17.3083 10.527 17.3083L10.1395 17.05C10.7412 17.8742 11.6075 18.4669 12.5937 18.7292L11.6895 19.8917C10.8493 19.9152 10.0161 19.7334 9.26203 19.362C8.50799 18.9906 7.85595 18.4408 7.36246 17.7604C7.40703 14.8827 8.11422 12.0539 9.42912 9.49374C10.5469 8.58512 11.9293 8.06386 13.3687 8.00832L13.4979 8.13749C12.1533 8.49732 10.8991 9.13538 9.81662 10.0104L10.6562 9.6229C11.6391 9.1108 12.7157 8.80322 13.8208 8.71874H14.0791C15.0023 8.62186 15.933 8.62186 16.8562 8.71874C18.3578 8.86025 19.8114 9.32278 21.1187 10.075C20.1089 9.21475 18.9161 8.59628 17.6312 8.26666L17.825 8.07291C19.2643 8.12844 20.6468 8.6497 21.7645 9.55832C23.0421 12.1293 23.7263 14.9543 23.7666 17.825C23.7666 17.825 22.6041 19.7625 19.5041 19.8271Z" fill="white"/>
</g>
<defs>
<clipPath id="clip0_1447_592">
<rect width="31" height="31" fill="white"/>
</clipPath>
</defs>
</svg>
