<svg width="37" height="41" viewBox="0 0 37 41" fill="none" xmlns="http://www.w3.org/2000/svg">
<path d="M12.466 40.3778C12.4689 40.3836 12.4728 40.3894 12.4757 40.3961C12.4805 40.4058 12.4853 40.4154 12.4911 40.4251C12.5259 40.4945 12.5625 40.564 12.5992 40.6334C12.7024 40.8341 12.904 40.9768 13.1404 40.9971C13.149 40.9981 13.1577 40.9981 13.1654 40.9981C13.176 40.999 13.1876 41 13.1992 41H13.2002C13.2195 41 13.2387 40.999 13.2571 40.9971C13.2609 40.9971 13.2638 40.9971 13.2677 40.9961C13.286 40.9942 13.3053 40.9913 13.3236 40.9875C13.3275 40.9865 13.3314 40.9865 13.3352 40.9855C13.3535 40.9817 13.3719 40.9768 13.3902 40.9711C13.3931 40.9701 13.397 40.9691 13.3998 40.9682C13.4191 40.9624 13.4384 40.9547 13.4568 40.9469C13.4587 40.946 13.4597 40.946 13.4616 40.945C13.5532 40.9064 13.6372 40.8485 13.7056 40.7704L13.7375 40.7347C13.7693 40.6981 13.8012 40.6624 13.833 40.6257C13.8339 40.6247 13.8339 40.6238 13.8349 40.6228C17.3916 36.6445 21.1799 33.9396 24.5225 31.552C25.7601 30.6684 26.9284 29.834 28.0348 28.9754C30.8179 26.8165 33.5904 24.2688 35.0248 20.2799C35.5467 18.83 35.8641 17.2827 35.9953 15.5482C36.3927 10.2705 35.3017 5.01786 32.8389 0.359477C32.7357 0.164614 32.5447 0.0324538 32.3266 0.00544311C32.1086 -0.0225323 31.8906 0.0585 31.7421 0.221529C31.0456 0.98844 30.2516 1.75439 29.313 2.56567C29.0304 2.80973 28.9995 3.23612 29.2436 3.5178C29.4876 3.80045 29.914 3.83132 30.1957 3.58726C30.8903 2.9882 31.5105 2.4094 32.0729 1.83638C34.1132 6.05488 35.0026 10.7403 34.6486 15.4469C34.5463 16.7974 34.3245 18.0216 33.9724 19.1686C33.9203 19.1493 33.8672 19.1319 33.8142 19.1136C33.7669 19.0972 33.7196 19.0808 33.6714 19.0644C33.5518 19.0239 33.4322 18.9853 33.3125 18.9477C33.2904 18.9409 33.2672 18.9332 33.245 18.9255C33.1042 18.8821 32.9614 18.8396 32.8196 18.7991C32.7743 18.7866 32.7279 18.774 32.6826 18.7615C32.5823 18.7335 32.482 18.7065 32.3816 18.6805C32.3295 18.667 32.2765 18.6535 32.2244 18.6399C32.1241 18.6149 32.0237 18.5907 31.9225 18.5666C31.8761 18.556 31.8289 18.5444 31.7826 18.5338C31.6388 18.501 31.4951 18.4702 31.3514 18.4403C31.3272 18.4354 31.3022 18.4306 31.278 18.4258C31.1555 18.4007 31.034 18.3776 30.9115 18.3544C30.8594 18.3448 30.8083 18.3361 30.7562 18.3264C30.6587 18.3091 30.5613 18.2927 30.4629 18.2763C30.4089 18.2676 30.3549 18.2589 30.3018 18.2502C30.1967 18.2338 30.0925 18.2184 29.9873 18.203C29.9449 18.1972 29.9024 18.1904 29.86 18.1846C29.7172 18.1644 29.5735 18.146 29.4307 18.1287C29.3892 18.1238 29.3468 18.119 29.3053 18.1142C29.2002 18.1017 29.096 18.0901 28.9918 18.0795C28.9378 18.0737 28.8837 18.0689 28.8297 18.0631C28.7342 18.0534 28.6397 18.0457 28.5442 18.037C28.4921 18.0322 28.44 18.0283 28.3879 18.0235C28.2741 18.0148 28.1593 18.0062 28.0464 17.9984C28.0165 17.9965 27.9866 17.9936 27.9567 17.9917C27.8168 17.983 27.6779 17.9753 27.539 17.9685C27.4908 17.9666 27.4425 17.9647 27.3943 17.9627C27.2998 17.9589 27.2043 17.955 27.1107 17.9521C27.0576 17.9502 27.0046 17.9492 26.9515 17.9473C26.8579 17.9444 26.7653 17.9425 26.6727 17.9415C26.6255 17.9406 26.5782 17.9396 26.5309 17.9396C26.3959 17.9377 26.2618 17.9377 26.1287 17.9377C26.1045 17.9377 26.0804 17.9386 26.0563 17.9386C25.9444 17.9396 25.8325 17.9406 25.7225 17.9425C25.6743 17.9435 25.6261 17.9444 25.5788 17.9454C25.491 17.9473 25.4032 17.9492 25.3164 17.9521C25.2672 17.9541 25.219 17.955 25.1698 17.957C25.0762 17.9608 24.9836 17.9647 24.891 17.9685C24.8543 17.9705 24.8167 17.9714 24.78 17.9734C24.6537 17.9801 24.5292 17.9869 24.4058 17.9955C24.372 17.9975 24.3392 18.0004 24.3064 18.0023C24.2138 18.0091 24.1221 18.0158 24.0315 18.0226C23.9871 18.0264 23.9437 18.0293 23.9003 18.0332C23.8183 18.0399 23.7372 18.0476 23.6562 18.0554C23.6147 18.0592 23.5742 18.0631 23.5337 18.0669C23.4363 18.0766 23.3408 18.0862 23.2462 18.0968C23.225 18.0988 23.2038 18.1017 23.1835 18.1036C23.0697 18.1161 22.9578 18.1306 22.8478 18.1441C22.814 18.148 22.7822 18.1528 22.7494 18.1576C22.6983 18.1644 22.6472 18.1711 22.597 18.1779C22.5989 18.1759 22.6009 18.174 22.6028 18.1721C22.7938 17.982 22.9887 17.7939 23.1854 17.6068C23.2462 17.5499 23.307 17.4939 23.3678 17.437C23.5086 17.3058 23.6504 17.1756 23.7932 17.0473C23.8646 16.9836 23.936 16.9199 24.0083 16.8563C24.1511 16.7299 24.2958 16.6045 24.4424 16.4801C24.508 16.4241 24.5736 16.3672 24.6402 16.3122C24.8505 16.1357 25.0627 15.9611 25.2788 15.7893C25.4814 15.6282 25.6868 15.4681 25.8894 15.3138C28.0175 13.6951 29.6835 12.0011 30.8411 10.2792C31.0494 9.9695 30.9665 9.54987 30.6578 9.34247C30.3481 9.1341 29.9285 9.21706 29.7211 9.52576C28.6937 11.0538 27.2168 12.5712 25.3309 14.0394C25.3251 14.0124 25.3193 13.9845 25.3145 13.9565C25.3077 13.9256 25.3019 13.8947 25.2952 13.8629C25.2884 13.832 25.2817 13.8012 25.2759 13.7693C25.2691 13.7365 25.2614 13.7037 25.2547 13.67C25.2479 13.6381 25.2402 13.6063 25.2334 13.5735C25.2257 13.5397 25.218 13.506 25.2103 13.4713C25.2026 13.4385 25.1949 13.4047 25.1871 13.3709C25.1794 13.3362 25.1707 13.3024 25.163 13.2667C25.1543 13.232 25.1457 13.1963 25.1379 13.1616C25.1293 13.1269 25.1215 13.0921 25.1129 13.0564C25.1032 13.0188 25.0936 12.9802 25.0839 12.9416C25.0733 12.9002 25.0627 12.8587 25.0521 12.8172C25.0357 12.7545 25.0193 12.6918 25.0019 12.6272C24.9923 12.5915 24.9826 12.5558 24.973 12.5201C24.9624 12.4805 24.9518 12.442 24.9402 12.4014C24.9296 12.3648 24.919 12.3281 24.9093 12.2915C24.8977 12.2519 24.8871 12.2124 24.8755 12.1728C24.8649 12.1352 24.8534 12.0966 24.8418 12.058C24.8302 12.0185 24.8186 11.9799 24.8061 11.9403C24.7945 11.9017 24.782 11.8622 24.7704 11.8236C24.7579 11.784 24.7453 11.7445 24.7328 11.704C24.7202 11.6644 24.7077 11.6258 24.6952 11.5863C24.6826 11.5458 24.6691 11.5062 24.6556 11.4657C24.6421 11.4262 24.6286 11.3856 24.6151 11.3461C24.6016 11.3056 24.5881 11.2651 24.5736 11.2245C24.5601 11.184 24.5456 11.1445 24.5312 11.104C24.5167 11.0634 24.5022 11.022 24.4868 10.9805C24.4723 10.9409 24.4578 10.9004 24.4434 10.8599C24.4279 10.8184 24.4125 10.776 24.3961 10.7345C24.3807 10.6949 24.3662 10.6554 24.3508 10.6149C24.3344 10.5724 24.318 10.53 24.3006 10.4875C24.2852 10.448 24.2697 10.4084 24.2533 10.3689C24.236 10.3255 24.2176 10.2821 24.1993 10.2386C24.1829 10.2001 24.1675 10.1615 24.1511 10.1229C24.1318 10.0775 24.1125 10.0322 24.0922 9.98687C24.0758 9.95021 24.0604 9.91355 24.044 9.87593C24.0218 9.82577 23.9987 9.77561 23.9765 9.72544C23.962 9.69361 23.9475 9.66178 23.9331 9.62994C23.8954 9.54891 23.8578 9.46884 23.8183 9.38781C23.8067 9.36466 23.7951 9.34151 23.7845 9.31932C23.7556 9.26047 23.7266 9.20259 23.6967 9.14375C23.6803 9.11191 23.6639 9.08008 23.6466 9.04825C23.6215 8.99905 23.5954 8.94985 23.5694 8.90162C23.5511 8.86689 23.5318 8.83312 23.5134 8.7984C23.4932 8.76174 23.4739 8.72508 23.4536 8.68939C23.7228 8.49549 23.9919 8.30256 24.2601 8.10962C24.9595 7.60703 25.683 7.08804 26.3833 6.57484C26.6843 6.35393 26.7489 5.9314 26.528 5.63139C26.3071 5.33041 25.8846 5.26578 25.5846 5.48669C24.89 5.99603 24.1694 6.5131 23.4729 7.01376C23.0369 7.32728 22.5989 7.64079 22.1629 7.95721C19.0702 10.1962 15.8472 12.6368 13.4134 15.6842C12.2673 17.1187 11.3943 18.5599 10.7441 20.0918C10.7441 20.0918 10.7441 20.0918 10.7441 20.0927C10.0293 21.7751 9.5952 23.5752 9.45435 25.4428C9.22669 28.4728 9.49005 31.497 10.2222 34.4055C9.15338 32.999 8.07681 31.7344 7.0639 30.5459C3.41746 26.2657 0.537921 22.8845 1.55951 16.9334C2.18172 13.3111 3.72133 9.93671 6.03171 7.11505C7.32629 9.31064 8.87555 11.1541 10.639 13.2513C10.9216 13.588 11.211 13.9314 11.5052 14.2845C11.7445 14.571 12.1699 14.6096 12.4564 14.3703C12.7429 14.1311 12.7815 13.7057 12.5423 13.4192C12.2471 13.0651 11.9567 12.7198 11.6731 12.3821C9.73604 10.0766 8.06234 8.08551 6.74267 5.62464C6.63849 5.43074 6.44652 5.29954 6.2285 5.2735C6.00952 5.24745 5.79247 5.32945 5.64584 5.49344C2.82129 8.64116 0.947905 12.5191 0.229227 16.7058C-0.899435 23.28 2.31484 27.0528 6.03653 31.4218C8.126 33.8914 10.5029 36.6812 12.466 40.3778ZM27.4792 27.6972C27.431 27.6837 27.3818 27.6712 27.3335 27.6586C27.2901 27.6471 27.2467 27.6355 27.2043 27.6239C27.1454 27.6085 27.0856 27.595 27.0268 27.5805C26.9862 27.5708 26.9467 27.5612 26.9062 27.5516C26.8386 27.5361 26.7721 27.5217 26.7046 27.5072C26.6718 27.5004 26.639 27.4927 26.6062 27.486C26.4055 27.4445 26.2029 27.4078 26.0003 27.375C25.9666 27.3692 25.9338 27.3654 25.9 27.3596C25.8315 27.349 25.764 27.3384 25.6955 27.3287C25.656 27.3229 25.6154 27.3181 25.5759 27.3133C25.5142 27.3046 25.4524 27.2969 25.3907 27.2892C25.3482 27.2843 25.3048 27.2795 25.2624 27.2747C25.2035 27.2679 25.1447 27.2612 25.0849 27.2544C25.0405 27.2496 24.9961 27.2458 24.9508 27.2419C24.8939 27.2361 24.836 27.2303 24.7791 27.2255C24.7328 27.2216 24.6874 27.2178 24.6411 27.2149C24.5852 27.2101 24.5292 27.2062 24.4733 27.2023C24.427 27.1995 24.3807 27.1966 24.3344 27.1937C24.2784 27.1898 24.2234 27.1869 24.1675 27.184C24.1212 27.1811 24.0739 27.1792 24.0276 27.1773C23.9726 27.1744 23.9176 27.1724 23.8636 27.1705C23.8163 27.1686 23.77 27.1676 23.7228 27.1657C23.6687 27.1638 23.6138 27.1628 23.5597 27.1609C23.5125 27.1599 23.4662 27.1589 23.4189 27.1589C23.3649 27.158 23.3118 27.157 23.2578 27.157C23.2105 27.157 23.1642 27.157 23.117 27.157C23.0639 27.157 23.0108 27.157 22.9578 27.157C22.9105 27.157 22.8632 27.158 22.8169 27.1589C22.7649 27.1599 22.7118 27.1609 22.6597 27.1618C22.6124 27.1628 22.5661 27.1638 22.5189 27.1647C22.4668 27.1657 22.4147 27.1676 22.3636 27.1695C22.3163 27.1715 22.269 27.1724 22.2227 27.1744C22.1716 27.1763 22.1205 27.1782 22.0703 27.1811C22.023 27.1831 21.9767 27.1859 21.9304 27.1879C21.8793 27.1908 21.8291 27.1937 21.779 27.1966C21.7327 27.1995 21.6864 27.2023 21.641 27.2052C21.5908 27.2081 21.5407 27.212 21.4915 27.2149C21.4452 27.2178 21.3998 27.2216 21.3545 27.2245C21.3053 27.2284 21.2561 27.2322 21.2069 27.2361C21.1616 27.24 21.1162 27.2438 21.0709 27.2477C21.0217 27.2515 20.9735 27.2564 20.9252 27.2612C20.8809 27.265 20.8355 27.2699 20.7911 27.2737C20.7429 27.2786 20.6956 27.2834 20.6474 27.2882C20.603 27.293 20.5587 27.2969 20.5152 27.3017C20.468 27.3065 20.4207 27.3123 20.3734 27.3171C20.33 27.322 20.2876 27.3268 20.2442 27.3316C20.1969 27.3374 20.1496 27.3432 20.1024 27.349C20.0609 27.3538 20.0184 27.3596 19.977 27.3644C19.9297 27.3702 19.8834 27.377 19.8371 27.3827C19.7956 27.3885 19.7551 27.3933 19.7136 27.3991C19.6683 27.4049 19.6229 27.4117 19.5785 27.4184C19.538 27.4242 19.4975 27.43 19.457 27.4358C19.4107 27.4425 19.3663 27.4493 19.32 27.4561C19.2824 27.4618 19.2438 27.4676 19.2062 27.4734C19.157 27.4811 19.1078 27.4889 19.0596 27.4966C19.0268 27.5014 18.994 27.5072 18.9612 27.512C18.9062 27.5207 18.8522 27.5303 18.7981 27.539C18.7721 27.5429 18.746 27.5477 18.721 27.5516C18.6419 27.5651 18.5637 27.5786 18.4875 27.593C18.4412 27.6017 18.3978 27.6143 18.3563 27.6307C18.065 27.7474 17.8846 28.0561 17.9425 28.3773C17.9801 28.5838 18.1074 28.7516 18.2772 28.8461C18.4094 28.9204 18.5666 28.9503 18.7267 28.9223C18.8406 28.9021 18.9573 28.8818 19.076 28.8616C19.0943 28.8587 19.1126 28.8558 19.1319 28.8519C19.2477 28.8326 19.3654 28.8143 19.485 28.796C19.5043 28.7931 19.5245 28.7902 19.5448 28.7873C19.6692 28.769 19.7956 28.7506 19.9239 28.7333C19.9297 28.7323 19.9364 28.7313 19.9422 28.7304C20.0705 28.713 20.2008 28.6966 20.3329 28.6802C20.3455 28.6783 20.358 28.6773 20.3705 28.6754C20.5017 28.66 20.6358 28.6445 20.7699 28.631C20.7902 28.6291 20.8104 28.6272 20.8307 28.6252C20.9667 28.6117 21.1037 28.5982 21.2426 28.5866C21.2551 28.5857 21.2677 28.5847 21.2802 28.5837C21.422 28.5722 21.5648 28.5616 21.7095 28.5519C21.7134 28.5519 21.7172 28.551 21.7211 28.551C21.8639 28.5413 22.0086 28.5336 22.1542 28.5278C22.1745 28.5268 22.1957 28.5259 22.216 28.5249C22.3578 28.5191 22.5015 28.5143 22.6452 28.5104C22.6645 28.5104 22.6829 28.5095 22.7021 28.5095C22.9993 28.5037 23.2993 28.5037 23.6012 28.5114C23.6205 28.5124 23.6408 28.5124 23.6601 28.5124C23.8048 28.5162 23.9504 28.522 24.0961 28.5297C24.1192 28.5307 24.1434 28.5326 24.1665 28.5336C24.3151 28.5423 24.4627 28.5519 24.6112 28.5645C24.6209 28.5654 24.6305 28.5664 24.6402 28.5674C24.7849 28.5799 24.9296 28.5944 25.0743 28.6108C25.0916 28.6127 25.108 28.6146 25.1254 28.6166C25.2701 28.6329 25.4138 28.6522 25.5585 28.6735C25.5846 28.6773 25.6106 28.6812 25.6367 28.685C25.7794 28.7063 25.9222 28.7304 26.064 28.7564C26.0708 28.7574 26.0775 28.7593 26.0833 28.7603C25.3328 29.3159 24.5505 29.8745 23.7392 30.4542C20.5037 32.7656 16.8572 35.3712 13.3613 39.142C11.3287 34.9313 10.4412 30.2488 10.7952 25.5518C10.9071 24.0643 11.2207 22.624 11.729 21.2619C11.7628 21.2783 11.7966 21.2947 11.8294 21.3111C11.8477 21.3198 11.866 21.3294 11.8844 21.3381C11.9114 21.3516 11.9374 21.3651 11.9635 21.3786C12.0049 21.3999 12.0474 21.4221 12.0879 21.4442C12.0918 21.4462 12.0966 21.4491 12.1004 21.451C12.1332 21.4684 12.1651 21.4867 12.1979 21.504C12.2403 21.5282 12.2837 21.5513 12.3252 21.5754C12.358 21.5938 12.3898 21.6131 12.4226 21.6323C12.4641 21.6565 12.5046 21.6815 12.5452 21.7057C12.5731 21.723 12.6001 21.7394 12.6281 21.7568C12.6339 21.7606 12.6397 21.7645 12.6455 21.7674C12.6831 21.7915 12.7207 21.8147 12.7574 21.8388C12.7815 21.8542 12.8056 21.8706 12.8297 21.8861C12.8365 21.8909 12.8442 21.8957 12.851 21.9005C12.8886 21.9256 12.9252 21.9507 12.9629 21.9767C12.9918 21.996 13.0198 22.0163 13.0477 22.0356C13.0863 22.0626 13.124 22.0906 13.1616 22.1185C13.1876 22.1378 13.2146 22.1571 13.2407 22.1764C13.2793 22.2054 13.3179 22.2353 13.3564 22.2652C13.3796 22.2835 13.4037 22.3018 13.4269 22.3202C13.4693 22.3539 13.5098 22.3877 13.5513 22.4214C13.5648 22.433 13.5783 22.4436 13.5918 22.4542C13.6092 22.4687 13.6256 22.4832 13.6429 22.4977C13.6806 22.5295 13.7172 22.5604 13.7539 22.5922C13.7751 22.6105 13.7954 22.6288 13.8166 22.6481C13.8503 22.678 13.8831 22.708 13.9159 22.7379C13.9352 22.7552 13.9536 22.7726 13.9729 22.7899C13.9796 22.7957 13.9854 22.8015 13.9922 22.8083C14.0201 22.8343 14.0481 22.8604 14.0751 22.8874C14.0896 22.9019 14.1041 22.9154 14.1185 22.9298C14.132 22.9433 14.1455 22.9568 14.159 22.9703C14.1851 22.9964 14.2111 23.0215 14.2362 23.0475C14.243 23.0543 14.2507 23.062 14.2574 23.0687C14.2758 23.0871 14.2941 23.1064 14.3115 23.1247C14.3404 23.1546 14.3693 23.1845 14.3973 23.2154C14.4166 23.2366 14.4359 23.2578 14.4562 23.279C14.4832 23.3089 14.5102 23.3379 14.5372 23.3678C14.5565 23.389 14.5748 23.4102 14.5941 23.4315C14.6202 23.4604 14.6452 23.4903 14.6703 23.5192C14.6886 23.5405 14.707 23.5617 14.7243 23.5829C14.7494 23.6128 14.7735 23.6418 14.7977 23.6707C14.815 23.6919 14.8314 23.7122 14.8488 23.7334C14.8729 23.7633 14.896 23.7932 14.9192 23.8221C14.9346 23.8424 14.951 23.8627 14.9665 23.8829C14.9896 23.9128 15.0128 23.9437 15.035 23.9736C15.0494 23.9929 15.0639 24.0122 15.0784 24.0315C15.1015 24.0633 15.1247 24.0951 15.1478 24.127C15.1584 24.1424 15.17 24.1569 15.1797 24.1723C15.1864 24.181 15.1922 24.1906 15.199 24.1993C15.2192 24.2283 15.2385 24.2562 15.2578 24.2842C15.2626 24.291 15.2674 24.2987 15.2723 24.3054C15.2829 24.3209 15.2935 24.3363 15.3031 24.3517C15.3234 24.3817 15.3437 24.4116 15.3629 24.4415C15.3745 24.4588 15.3851 24.4752 15.3957 24.4926C15.415 24.5225 15.4334 24.5514 15.4527 24.5813C15.4613 24.5958 15.471 24.6103 15.4797 24.6247C15.4845 24.6325 15.4884 24.6392 15.4932 24.6469C15.5096 24.673 15.525 24.699 15.5404 24.7241C15.5453 24.7328 15.5511 24.7415 15.5559 24.7502C15.5646 24.7646 15.5723 24.7781 15.581 24.7926C15.5974 24.8206 15.6147 24.8486 15.6302 24.8765C15.6408 24.8939 15.6504 24.9113 15.6601 24.9296C15.6745 24.9556 15.689 24.9817 15.7035 25.0068C15.7131 25.0251 15.7228 25.0425 15.7334 25.0608C15.7469 25.0849 15.7604 25.109 15.7729 25.1331C15.7826 25.1505 15.7913 25.1679 15.8009 25.1852C15.8077 25.1978 15.8134 25.2103 15.8202 25.2228C15.8028 25.2576 15.7855 25.2933 15.7671 25.329C15.7324 25.3984 15.6977 25.4688 15.663 25.5393C15.6408 25.5846 15.6176 25.6299 15.5954 25.6753C15.5742 25.7177 15.5549 25.7621 15.5337 25.8045C15.4999 25.874 15.4671 25.9444 15.4343 26.0139C15.3919 26.1036 15.3504 26.1943 15.3089 26.284C15.2771 26.3534 15.2453 26.4239 15.2134 26.4933C15.1719 26.585 15.1314 26.6776 15.0909 26.7692C15.061 26.8377 15.0301 26.9072 15.0002 26.9766C14.9597 27.0721 14.9192 27.1676 14.8796 27.2631C14.8517 27.3297 14.8237 27.3972 14.7957 27.4638C14.7938 27.4696 14.7909 27.4744 14.789 27.4792C14.7832 27.4937 14.7764 27.5081 14.7706 27.5226C14.7378 27.6036 14.706 27.6847 14.6742 27.7657C14.6491 27.8284 14.624 27.8902 14.5999 27.9529C14.5787 28.0078 14.5575 28.0628 14.5362 28.1188C14.514 28.1767 14.4919 28.2355 14.4697 28.2934C14.4504 28.3445 14.4311 28.3956 14.4118 28.4458C14.351 28.6108 14.2912 28.7757 14.2324 28.9416C14.1561 29.1597 14.0819 29.3786 14.0105 29.5986C13.9854 29.6738 13.9623 29.751 13.9381 29.8262C13.8918 29.9709 13.8465 30.1147 13.8021 30.2603C13.7741 30.352 13.7481 30.4446 13.7211 30.5362C13.6825 30.6665 13.6449 30.7967 13.6082 30.9279C13.5812 31.0263 13.5552 31.1237 13.5291 31.2221C13.4954 31.3485 13.4616 31.4749 13.4298 31.6012C13.4047 31.7016 13.3796 31.8019 13.3555 31.9022C13.3246 32.0286 13.2947 32.154 13.2648 32.2804C13.2416 32.3807 13.2185 32.482 13.1963 32.5823C13.1683 32.7096 13.1404 32.8379 13.1143 32.9662C13.094 33.0656 13.0738 33.165 13.0535 33.2643C13.0275 33.3955 13.0024 33.5267 12.9783 33.6579C12.96 33.7553 12.9426 33.8518 12.9252 33.9492C12.9175 33.9926 12.9088 34.0361 12.9021 34.0795C12.9001 34.093 12.8992 34.1065 12.8973 34.12C12.8731 34.2647 12.8471 34.4094 12.8249 34.5541C12.768 34.9226 13.0207 35.2679 13.3892 35.3249C13.7577 35.3818 14.1031 35.129 14.16 34.7605C14.1899 34.5686 14.2227 34.3766 14.2565 34.1846C14.2729 34.0901 14.2902 33.9955 14.3076 33.901C14.3308 33.7775 14.3539 33.6531 14.378 33.5296C14.3973 33.4331 14.4166 33.3367 14.4369 33.2402C14.4619 33.1196 14.488 32.9981 14.515 32.8775C14.5362 32.7801 14.5584 32.6817 14.5816 32.5842C14.6095 32.4646 14.6375 32.346 14.6665 32.2263C14.6906 32.1289 14.7137 32.0315 14.7388 31.934C14.7697 31.8144 14.8015 31.6948 14.8333 31.5752C14.8584 31.4797 14.8845 31.3851 14.9105 31.2896C14.9452 31.1652 14.9809 31.0417 15.0176 30.9182C15.0436 30.8285 15.0687 30.7398 15.0957 30.651C15.1372 30.5141 15.1806 30.378 15.224 30.242C15.2482 30.1668 15.2703 30.0915 15.2954 30.0172C15.362 29.8127 15.4314 29.6092 15.5019 29.4056C15.5038 29.3999 15.5057 29.395 15.5077 29.3892C15.9697 28.0705 16.5312 26.775 17.1746 25.5393C17.1775 25.5344 17.1794 25.5296 17.1813 25.5248C17.2383 25.4158 17.2971 25.3077 17.355 25.1997C17.3984 25.1187 17.4408 25.0367 17.4852 24.9556C17.546 24.8457 17.6087 24.7357 17.6704 24.6267C17.7148 24.5476 17.7592 24.4685 17.8045 24.3894C17.874 24.2698 17.9444 24.1521 18.0158 24.0334C18.0563 23.9659 18.0959 23.8974 18.1364 23.8299C18.2492 23.6446 18.364 23.4604 18.4798 23.279C18.5772 23.1266 18.6756 22.9761 18.7759 22.8247C18.8078 22.7764 18.8415 22.7282 18.8743 22.68C18.9428 22.5777 19.0113 22.4764 19.0817 22.3751C19.1223 22.3173 19.1628 22.2603 19.2033 22.2025C19.267 22.1118 19.3316 22.0201 19.3962 21.9295C19.4406 21.8677 19.4859 21.807 19.5303 21.7462C19.593 21.6603 19.6557 21.5745 19.7204 21.4886C19.7676 21.4259 19.8159 21.3632 19.8631 21.3005C19.9258 21.2175 19.9885 21.1355 20.0532 21.0535C20.1024 20.9899 20.1535 20.9262 20.2037 20.8625C20.2673 20.7825 20.33 20.7024 20.3947 20.6233C20.4468 20.5596 20.4988 20.496 20.5509 20.4323C20.6146 20.3542 20.6792 20.277 20.7439 20.1998C20.7979 20.1361 20.8519 20.0725 20.9059 20.0088C20.9474 19.9606 20.9889 19.9123 21.0304 19.8641L21.2243 19.8149C21.3034 19.7956 21.3863 19.7754 21.4712 19.757C21.4992 19.7503 21.5291 19.7445 21.5581 19.7387C21.6169 19.7262 21.6748 19.7136 21.7356 19.7011C21.7722 19.6934 21.8108 19.6866 21.8475 19.6789C21.9034 19.6683 21.9584 19.6577 22.0153 19.6471C22.0568 19.6393 22.1002 19.6326 22.1426 19.6249C22.1986 19.6152 22.2545 19.6056 22.3115 19.5959C22.3568 19.5882 22.4031 19.5815 22.4494 19.5747C22.5073 19.566 22.5642 19.5564 22.623 19.5477C22.6713 19.5409 22.7205 19.5342 22.7697 19.5274C22.8285 19.5197 22.8874 19.511 22.9472 19.5033C22.9983 19.4966 23.0504 19.4908 23.1025 19.484C23.1633 19.4763 23.224 19.4696 23.2867 19.4618C23.3398 19.4561 23.3938 19.4503 23.4478 19.4445C23.5105 19.4377 23.5742 19.431 23.6379 19.4252C23.6929 19.4194 23.7498 19.4146 23.8057 19.4098C23.8704 19.404 23.935 19.3982 24.0006 19.3924C24.0575 19.3876 24.1164 19.3827 24.1742 19.3789C24.2408 19.3741 24.3074 19.3692 24.3749 19.3644C24.4337 19.3606 24.4935 19.3567 24.5533 19.3528C24.6218 19.349 24.6903 19.3451 24.7588 19.3413C24.8196 19.3384 24.8813 19.3345 24.9421 19.3316C25.0116 19.3287 25.082 19.3258 25.1524 19.3229C25.2151 19.321 25.2768 19.3181 25.3405 19.3162C25.4119 19.3142 25.4842 19.3123 25.5566 19.3104C25.6203 19.3085 25.683 19.3075 25.7476 19.3065C25.8209 19.3056 25.8942 19.3046 25.9685 19.3036C26.0331 19.3027 26.0968 19.3027 26.1614 19.3027C26.2357 19.3027 26.311 19.3027 26.3872 19.3036C26.4518 19.3036 26.5174 19.3046 26.583 19.3056C26.6602 19.3065 26.7374 19.3085 26.8145 19.3104C26.8792 19.3123 26.9448 19.3133 27.0104 19.3152C27.0895 19.3171 27.1695 19.321 27.2486 19.3239C27.3133 19.3268 27.3769 19.3287 27.4425 19.3316C27.5245 19.3355 27.6075 19.3403 27.6904 19.3451C27.7531 19.349 27.8168 19.3519 27.8795 19.3557C27.9654 19.3615 28.0522 19.3673 28.139 19.3741C28.1998 19.3789 28.2596 19.3827 28.3204 19.3876C28.4149 19.3953 28.5104 19.404 28.605 19.4126C28.658 19.4175 28.7101 19.4213 28.7632 19.4271C28.8944 19.4397 29.0255 19.4541 29.1567 19.4696C29.1741 19.4715 29.1915 19.4734 29.2079 19.4753C29.3564 19.4927 29.506 19.512 29.6555 19.5323C29.6999 19.5381 29.7442 19.5458 29.7886 19.5516C29.8937 19.566 29.9989 19.5815 30.1031 19.5979C30.159 19.6065 30.2159 19.6162 30.2719 19.6258C30.3645 19.6413 30.4581 19.6557 30.5507 19.6721C30.6124 19.6828 30.6732 19.6953 30.7349 19.7069C30.8227 19.7233 30.9095 19.7397 30.9973 19.757C31.061 19.7696 31.1247 19.784 31.1893 19.7975C31.2742 19.8149 31.3581 19.8332 31.443 19.8516C31.5076 19.866 31.5723 19.8815 31.6379 19.8969C31.7208 19.9162 31.8038 19.9355 31.8858 19.9558C31.9514 19.9722 32.017 19.9895 32.0816 20.0059C32.1627 20.0271 32.2437 20.0484 32.3247 20.0705C32.3903 20.0889 32.4559 20.1072 32.5215 20.1265C32.6016 20.1497 32.6807 20.1728 32.7607 20.1969C32.8263 20.2172 32.891 20.2374 32.9566 20.2577C33.0357 20.2828 33.1138 20.3079 33.192 20.3339C33.2566 20.3551 33.3212 20.3783 33.3859 20.4005C33.4293 20.4159 33.4727 20.4313 33.5161 20.4468C32.1887 23.6389 29.8581 25.8277 27.4792 27.6972ZM12.7111 19.13C13.1973 18.2512 13.777 17.3926 14.4619 16.535C16.6353 13.8137 19.5168 11.5622 22.3452 9.49778C22.3799 9.56145 22.4137 9.62608 22.4475 9.68975C22.4581 9.71001 22.4677 9.73027 22.4783 9.75053C22.5025 9.79683 22.5256 9.84313 22.5488 9.8904C22.5623 9.91741 22.5748 9.94442 22.5883 9.97047C22.6076 10.011 22.6279 10.0505 22.6472 10.0911C22.6607 10.12 22.6751 10.1499 22.6886 10.1788C22.706 10.2165 22.7243 10.255 22.7417 10.2927C22.7552 10.3235 22.7697 10.3534 22.7832 10.3843C22.7996 10.421 22.816 10.4586 22.8324 10.4952C22.8459 10.5261 22.8594 10.558 22.8729 10.5888C22.8883 10.6255 22.9038 10.6621 22.9192 10.6988C22.9327 10.7306 22.9452 10.7615 22.9587 10.7933C22.9742 10.83 22.9887 10.8666 23.0031 10.9033C23.0157 10.9342 23.0282 10.966 23.0407 10.9969C23.0552 11.0345 23.0697 11.0712 23.0842 11.1088C23.0957 11.1396 23.1083 11.1696 23.1199 11.2004C23.1343 11.24 23.1488 11.2786 23.1633 11.3171C23.1739 11.3451 23.1845 11.3741 23.1951 11.402C23.2134 11.4522 23.2308 11.5014 23.2491 11.5516C23.2617 11.5853 23.2732 11.6201 23.2848 11.6538C23.3012 11.702 23.3186 11.7503 23.335 11.7985C23.3446 11.8275 23.3543 11.8554 23.3639 11.8844C23.3765 11.922 23.389 11.9596 23.4015 11.9972C23.4112 12.0281 23.4208 12.058 23.4305 12.0889C23.442 12.1246 23.4527 12.1593 23.4642 12.194C23.4739 12.2249 23.4835 12.2558 23.4932 12.2866C23.5038 12.3204 23.5144 12.3551 23.524 12.3889C23.5337 12.4198 23.5424 12.4506 23.5511 12.4805C23.5607 12.5143 23.5713 12.5481 23.581 12.5818C23.5896 12.6127 23.5983 12.6426 23.607 12.6725C23.6167 12.7053 23.6253 12.7391 23.635 12.7719C23.6437 12.8018 23.6514 12.8317 23.6601 12.8616C23.6697 12.8953 23.6784 12.9281 23.6871 12.9609C23.6948 12.9899 23.7025 13.0179 23.7102 13.0458C23.7199 13.0806 23.7286 13.1153 23.7372 13.15C23.744 13.1761 23.7507 13.2021 23.7575 13.2272C23.7671 13.2667 23.7768 13.3053 23.7864 13.3449C23.7913 13.3651 23.797 13.3854 23.8019 13.4057C23.8163 13.4635 23.8298 13.5204 23.8434 13.5774C23.8482 13.5976 23.853 13.6179 23.8578 13.6381C23.8665 13.6748 23.8752 13.7115 23.8829 13.7481C23.8887 13.7713 23.8935 13.7944 23.8983 13.8176C23.9061 13.8504 23.9128 13.8832 23.9205 13.915C23.9253 13.9391 23.9311 13.9623 23.936 13.9854C23.9427 14.0153 23.9495 14.0462 23.9553 14.0751C23.9601 14.0992 23.9649 14.1234 23.9707 14.1465C23.9765 14.1755 23.9823 14.2044 23.9881 14.2324C23.9929 14.2555 23.9977 14.2787 24.0016 14.3009C24.0073 14.3288 24.0131 14.3568 24.018 14.3838C24.0218 14.406 24.0266 14.4282 24.0305 14.4494C24.0363 14.4774 24.0411 14.5054 24.0459 14.5324C24.0498 14.5526 24.0536 14.5719 24.0575 14.5922C24.0633 14.6211 24.0681 14.6491 24.0729 14.6771C24.0758 14.6945 24.0797 14.7118 24.0826 14.7282C24.0884 14.76 24.0942 14.7909 24.099 14.8218C24.1009 14.8343 24.1038 14.8469 24.1057 14.8594C24.1135 14.9019 24.1202 14.9433 24.127 14.9839C23.9456 15.1314 23.7662 15.281 23.5887 15.4324C23.3929 15.5993 23.199 15.7681 23.0079 15.9389C22.7147 16.2003 22.4272 16.4656 22.1446 16.7357C21.8282 17.0376 21.5195 17.3454 21.2175 17.6579C20.8509 18.037 20.494 18.4229 20.1506 18.8146C19.1184 19.9934 18.173 21.2503 17.3424 22.5507C17.2141 22.7514 17.0887 22.953 16.9653 23.1575C16.9238 23.225 16.8852 23.2935 16.8447 23.362C16.7627 23.499 16.6817 23.636 16.6016 23.7749C16.5919 23.7913 16.5813 23.8077 16.5726 23.825C16.5717 23.8241 16.5717 23.8231 16.5707 23.8231C16.5611 23.8077 16.5505 23.7922 16.5408 23.7758C16.5244 23.7498 16.507 23.7237 16.4897 23.6977C16.4723 23.6707 16.454 23.6427 16.4357 23.6157C16.427 23.6032 16.4193 23.5906 16.4106 23.5781C16.4 23.5626 16.3894 23.5472 16.3797 23.5318C16.3595 23.5028 16.3392 23.4739 16.3189 23.445C16.3006 23.4179 16.2813 23.3919 16.262 23.3649C16.2601 23.362 16.2572 23.3581 16.2553 23.3552C16.2524 23.3514 16.2504 23.3485 16.2476 23.3446C16.2312 23.3215 16.2138 23.2993 16.1974 23.2761C16.1781 23.2491 16.1578 23.2221 16.1385 23.1951C16.1221 23.1729 16.1048 23.1498 16.0874 23.1276C16.0749 23.1112 16.0623 23.0948 16.0498 23.0774C16.0363 23.0591 16.0228 23.0408 16.0083 23.0234C15.9832 22.9916 15.9572 22.9588 15.9321 22.9269C15.9118 22.9019 15.8926 22.8768 15.8723 22.8517C15.8713 22.8507 15.8704 22.8498 15.8694 22.8478C15.8366 22.8073 15.8028 22.7668 15.7681 22.7263C15.7401 22.6925 15.7112 22.6588 15.6823 22.625C15.6668 22.6067 15.6504 22.5883 15.634 22.569C15.6157 22.5478 15.5974 22.5266 15.5781 22.5044C15.5549 22.4784 15.5318 22.4533 15.5086 22.4272C15.4855 22.4012 15.4613 22.3751 15.4372 22.3491C15.4353 22.3472 15.4334 22.3452 15.4314 22.3433C15.4276 22.3394 15.4237 22.3346 15.4199 22.3308C15.3948 22.3038 15.3687 22.2767 15.3427 22.2488C15.3138 22.2179 15.2838 22.187 15.2539 22.1562C15.2385 22.1398 15.2221 22.1234 15.2057 22.107C15.1912 22.0925 15.1768 22.078 15.1623 22.0636C15.1353 22.0365 15.1083 22.0086 15.0803 21.9816C15.0523 21.9536 15.0224 21.9256 14.9935 21.8976C14.9742 21.8793 14.9559 21.861 14.9366 21.8426C14.9346 21.8417 14.9337 21.8398 14.9317 21.8388C14.9211 21.8282 14.9096 21.8185 14.8989 21.8079C14.869 21.7799 14.8391 21.7529 14.8083 21.725C14.7755 21.6951 14.7427 21.6651 14.7099 21.6362C14.6935 21.6217 14.678 21.6073 14.6616 21.5928C14.6578 21.5889 14.653 21.5851 14.6481 21.5812C14.6375 21.5716 14.6269 21.5629 14.6163 21.5532C14.5825 21.5243 14.5488 21.4944 14.514 21.4655C14.4822 21.4384 14.4494 21.4105 14.4166 21.3835C14.4021 21.3709 14.3877 21.3593 14.3732 21.3468C14.3722 21.3458 14.3703 21.3449 14.3693 21.3439C14.35 21.3275 14.3288 21.3121 14.3095 21.2957C14.2758 21.2687 14.243 21.2426 14.2082 21.2156C14.1716 21.1867 14.134 21.1587 14.0963 21.1298C14.0809 21.1182 14.0655 21.1066 14.05 21.0941C14.0307 21.0796 14.0105 21.0651 13.9902 21.0497C13.9516 21.0207 13.9111 20.9928 13.8716 20.9638C13.8359 20.9388 13.8012 20.9137 13.7655 20.8886C13.7568 20.8828 13.7481 20.876 13.7394 20.8703C13.7384 20.8693 13.7375 20.8683 13.7365 20.8683C13.7047 20.8461 13.6719 20.8249 13.6391 20.8027C13.6034 20.7786 13.5687 20.7545 13.532 20.7304C13.4992 20.7092 13.4654 20.6879 13.4326 20.6667C13.4095 20.6513 13.3863 20.6368 13.3622 20.6223C13.3381 20.6069 13.314 20.5915 13.2899 20.577C13.2378 20.5452 13.1847 20.5133 13.1317 20.4825C13.1008 20.4641 13.0699 20.4448 13.0391 20.4275C13.0371 20.4265 13.0362 20.4255 13.0342 20.4246C13.0333 20.4246 13.0333 20.4236 13.0323 20.4236C12.9493 20.3754 12.8654 20.3291 12.7805 20.2828C12.7641 20.2741 12.7477 20.2654 12.7313 20.2567C12.7198 20.25 12.7072 20.2442 12.6956 20.2374C12.6667 20.222 12.6378 20.2075 12.6088 20.1921C12.576 20.1747 12.5442 20.1574 12.5104 20.141C12.4767 20.1236 12.4419 20.1082 12.4082 20.0908C12.3561 20.0657 12.3059 20.0397 12.2529 20.0146C12.3976 19.7184 12.549 19.4233 12.7111 19.13Z" fill="#059033"/>
<path d="M27.837 5.31595C27.9837 5.31595 28.1303 5.26868 28.2547 5.17125L28.2827 5.14906C28.575 4.91754 28.6242 4.49308 28.3927 4.20079C28.1612 3.90849 27.7358 3.8593 27.4444 4.09082L27.4193 4.11108C27.1261 4.34163 27.0759 4.76609 27.3065 5.05934C27.4396 5.22816 27.6374 5.31595 27.837 5.31595Z" fill="#059033"/>
<path d="M30.9702 8.54854C31.0068 8.57266 31.0464 8.59388 31.0869 8.61124C31.1274 8.62764 31.1699 8.64019 31.2133 8.64983C31.2567 8.65851 31.3011 8.66237 31.3454 8.66237C31.5229 8.66237 31.6975 8.59002 31.8229 8.46462C31.9484 8.33921 32.0207 8.16557 32.0207 7.9871C32.0207 7.94369 32.0159 7.89932 32.0072 7.85494C31.9985 7.8125 31.986 7.77005 31.9686 7.72857C31.9522 7.68806 31.931 7.64947 31.9069 7.61281C31.8818 7.57519 31.8538 7.54046 31.8229 7.50959C31.6657 7.35332 31.4332 7.28097 31.2133 7.32534C31.1699 7.33402 31.1274 7.34656 31.0869 7.36393C31.0464 7.38033 31.0068 7.40155 30.9702 7.42567C30.9335 7.45075 30.8988 7.47872 30.8679 7.50959C30.8371 7.54046 30.8081 7.57519 30.784 7.61281C30.7599 7.64947 30.7387 7.68806 30.7213 7.72857C30.7049 7.77005 30.6924 7.8125 30.6837 7.85494C30.674 7.89932 30.6702 7.94369 30.6702 7.9871C30.6702 8.16557 30.7425 8.33921 30.8679 8.46462C30.8988 8.49549 30.9335 8.52442 30.9702 8.54854Z" fill="#059033"/>
</svg>
