<svg width="34" height="34" viewBox="0 0 34 34" fill="none" xmlns="http://www.w3.org/2000/svg">
<path d="M0.566403 23.9229C0.669997 23.8684 2.7173 22.8013 5.66507 22.2089C1.39847 17.2205 0.0836301 11.473 0.0251926 11.2094C-0.0531668 10.8554 0.0544106 10.4855 0.310739 10.2286C0.51195 10.0267 0.783552 9.91645 1.06246 9.91645C1.13816 9.91645 1.21453 9.92441 1.2909 9.94168C1.54855 9.99813 7.03769 11.2426 11.9544 15.2382C11.9537 15.1413 11.9537 15.0437 11.9537 14.9461C11.9537 7.05766 15.9368 0.753711 16.1061 0.489414C16.2021 0.339358 16.3342 0.21587 16.4904 0.130337C16.6466 0.0448043 16.8219 -1.92454e-05 17 6.19878e-09C17.3619 6.19878e-09 17.6992 0.184609 17.8945 0.489414C18.0638 0.753711 22.0468 7.05766 22.0468 14.9461C22.0468 15.0437 22.0462 15.1413 22.0462 15.2382C26.9622 11.2432 32.4514 9.99879 32.7097 9.94168C32.7854 9.92508 32.8618 9.91645 32.9381 9.91645C33.217 9.91645 33.4886 10.0267 33.6898 10.2286C33.816 10.3549 33.9082 10.511 33.958 10.6825C34.0078 10.8539 34.0135 11.0351 33.9747 11.2094C33.9163 11.473 32.6014 17.2205 28.3348 22.2089C31.2826 22.8013 33.3293 23.8684 33.4335 23.9229C33.6043 24.0131 33.7473 24.1482 33.8471 24.3136C33.9469 24.4791 33.9997 24.6686 33.9999 24.8618C34 25.055 33.9475 25.2446 33.8479 25.4101C33.7484 25.5757 33.6055 25.711 33.4348 25.8015C33.2721 25.8871 29.4 27.9079 24.5703 27.9079C24.1625 27.9079 23.7761 27.9013 23.4082 27.8873C24.1632 29.3635 24.5052 30.4313 24.5244 30.4918C24.644 30.8689 24.5437 31.2813 24.2648 31.5616C24.1277 31.6991 23.9557 31.7965 23.7672 31.8432C23.5787 31.8899 23.3811 31.8841 23.1957 31.8265C23.0741 31.7887 20.6908 31.0303 18.0625 29.2174V33.4688C18.0625 33.7623 17.8247 34 17.5312 34H16.4687C16.1752 34 15.9375 33.7623 15.9375 33.4688V29.2181C13.3091 31.031 10.9258 31.7887 10.8043 31.8272C10.6188 31.8848 10.4212 31.8906 10.2327 31.8439C10.0443 31.7972 9.87217 31.6998 9.73511 31.5622C9.45621 31.282 9.35593 30.8696 9.47547 30.4924C9.49472 30.432 9.83738 29.3642 10.5918 27.888C10.2239 27.9019 9.83672 27.9086 9.42965 27.9086C4.60058 27.9086 0.727771 25.8878 0.565076 25.8021C0.217107 25.6175 -0.000704117 25.2563 -4.00543e-05 24.8625C0.000624008 24.468 0.218434 24.1061 0.566403 23.9229Z" fill="#F7931A"/>
</svg>
