<svg width="57" height="32" viewBox="0 0 57 32" fill="none" xmlns="http://www.w3.org/2000/svg">
<path d="M56.5924 16.3192L53.6298 13.335C53.471 12.0634 52.6446 7.83895 48.555 5.37231C48.5365 5.3611 48.5177 5.35177 48.4987 5.34211C48.2316 4.56206 47.9709 3.90217 47.9531 3.85686C47.8494 3.5951 47.6318 3.39521 47.3624 3.31402C47.093 3.23284 46.8011 3.27949 46.5701 3.44029C46.4993 3.48971 46.1728 3.72149 45.7729 4.06909C44.6939 3.5478 41.5828 2.1866 37.3846 1.55947C37.1289 1.29672 36.8224 1.07883 36.4681 0.912469C35.3722 0.398397 33.3545 0.256913 30.9778 1.40111C30.8961 1.44053 30.816 1.48929 30.7366 1.54248C25.2898 0.491017 20.392 0.399396 16.1781 1.27295C12.5728 2.02046 9.4382 3.4745 6.86151 5.59475C1.22093 10.2366 0 16.6194 0 17.9506C0 20.0742 1.2176 21.5354 1.84373 22.1466C0.758614 27.3577 0.973061 30.6248 0.984943 30.789C1.01981 31.2707 1.42061 31.6436 1.9037 31.6436H7.79848C8.30711 31.6436 8.71956 31.2314 8.71956 30.7225C8.71956 29.8108 8.45425 29.1451 8.11698 28.6841C8.76954 27.9435 9.85776 26.6797 11.0078 25.2218C11.2442 26.8514 11.759 29.0878 12.8838 31.1616C13.0448 31.4586 13.3557 31.6435 13.6935 31.6435H20.5708C20.825 31.6435 21.0679 31.5386 21.242 31.3531C21.4161 31.1677 21.5057 30.9189 21.49 30.665C21.4843 30.5759 21.4267 29.7711 21.1214 28.9332C20.7117 27.8096 20.0936 27.2796 19.5268 27.0393V23.8134C21.4461 23.7818 23.458 23.5584 25.2486 23.0023C25.3771 27.0784 26.5039 30.7863 26.5679 30.9941C26.6871 31.3802 27.044 31.6435 27.448 31.6435H34.3253C34.8192 31.6435 35.225 31.254 35.2456 30.7607C35.251 30.6335 35.2739 29.4939 34.4672 28.6529C34.233 28.4088 33.8708 28.1341 33.3409 27.9736C33.5351 26.7356 34.1795 24.8188 35.1027 22.7828C35.2435 22.4722 35.3873 22.1674 35.533 21.8684C36.7826 24.34 39.374 28.9814 42.1872 31.1515C42.6048 31.4735 43.1224 31.6437 43.684 31.6437H49.0617C49.3093 31.6437 49.5466 31.544 49.7197 31.3672C49.893 31.1904 49.9877 30.951 49.9826 30.7035C49.9595 29.5937 49.2272 27.9623 47.3205 27.8435C46.675 27.1352 45.3108 23.6348 44.277 20.3818C45.3155 20.4997 46.2344 20.6402 46.8609 20.8061C49.6924 21.5556 52.7885 21.8062 52.919 21.8165C52.9433 21.8185 52.9675 21.8193 52.9916 21.8193C53.2801 21.8193 53.5535 21.6838 53.7283 21.4508L56.6757 17.5209C56.95 17.1551 56.9146 16.6436 56.5924 16.3192ZM45.9216 6.63489C46.1051 6.32927 46.3921 6.01187 46.6843 5.73235C46.8316 6.15258 46.9871 6.62312 47.1016 7.03858C46.8557 7.23492 46.3696 7.51678 45.804 7.79564C45.7575 7.34342 45.7707 6.88654 45.9216 6.63489ZM6.13599 28.1362C5.91799 28.3745 5.79494 28.6952 5.88678 29.0048C5.9764 29.3074 6.17064 29.5286 6.47093 29.6142C6.50713 29.637 6.58032 29.6917 6.65462 29.8014H2.8038C2.80579 29.261 2.82867 28.4778 2.91163 27.4885C3.06622 25.6449 3.46701 22.6883 4.49793 19.0728C4.57923 18.7879 4.79234 18.5474 5.06809 18.4297C6.10179 17.9883 8.15352 17.3594 10.0749 17.0112C12.9089 16.4979 13.6441 16.8951 13.7543 16.9724C13.7482 19.0402 9.07949 24.9159 6.13599 28.1362ZM14.2554 29.8016C12.9414 27.0954 12.7024 24.1187 12.659 23.1708C13.7571 23.4214 15.5912 23.6993 17.6844 23.7885V27.7752C17.6844 28.284 18.0968 28.6963 18.6055 28.6963C19.0344 28.6963 19.307 29.2521 19.4664 29.8016H14.2554ZM26.1117 15.9539C25.9158 16.9716 25.7309 17.9327 25.5629 18.747C25.4083 19.4964 25.3153 20.2717 25.2698 21.0517C21.539 22.4387 16.2591 21.9824 13.6966 21.5047C15.5946 18.5481 15.5964 17.4092 15.5964 16.9682C15.5964 16.3311 15.2986 15.7835 14.7578 15.4262C12.5638 13.9775 6.00495 16.0268 4.34468 16.7354C3.55175 17.0739 2.96172 17.7417 2.72628 18.5676C2.6009 19.0074 2.48474 19.4375 2.37612 19.8583C2.08616 19.3591 1.84195 18.7126 1.84195 17.9505C1.84195 16.99 2.91796 11.2254 8.0318 7.01725C13.0753 2.86725 20.2761 1.57857 29.4441 3.17787C28.1814 5.61641 27.2212 10.1886 26.1117 15.9539ZM31.4391 28.7865C31.4547 29.2838 31.8623 29.6788 32.3598 29.6788C32.6147 29.6788 32.8161 29.7193 32.9691 29.8017H28.1468C27.6841 28.0451 26.5519 23.0705 27.3672 19.1193C27.5377 18.2931 27.7238 17.326 27.9208 16.3022C28.4301 13.6555 29.064 10.3618 29.7819 7.71356C30.8773 3.67251 31.636 3.12912 31.7769 3.06126C33.2104 2.37106 34.8182 2.17349 35.6861 2.58062C36.0559 2.7542 36.2759 3.02628 36.3787 3.4373C36.4794 3.84009 36.649 4.38703 36.8455 5.02049C37.6963 7.76354 39.4667 13.4713 37.6034 15.3345C34.8584 18.0792 31.3443 25.7482 31.4391 28.7865ZM47.0967 29.6786C47.3501 29.6786 47.5285 29.7273 47.6592 29.8014H43.6834C43.5346 29.8014 43.4026 29.7628 43.3117 29.6926C40.2741 27.3495 37.3329 21.4032 36.6054 19.8654C37.4858 19.8976 39.9204 19.9975 42.288 20.1907C42.3322 20.3355 42.9906 22.4775 43.809 24.6598C45.391 28.8789 46.1851 29.6786 47.0967 29.6786ZM52.5643 19.9323C51.591 19.8321 49.3591 19.5614 47.3324 19.025C45.1795 18.4551 40.1928 18.1745 37.7325 18.0666C38.1396 17.492 38.5356 17.0069 38.9057 16.6368C41.5551 13.9874 39.7082 8.0324 38.6047 4.47444C38.5046 4.15171 38.4121 3.85342 38.3339 3.59089C41.1426 4.13661 43.334 4.9945 44.464 5.49592C44.4215 5.55899 44.3805 5.62274 44.3419 5.68715C43.5535 7.00115 44.1306 9.00091 44.2542 9.38849C44.3322 9.63314 44.509 9.83415 44.7416 9.94288C44.865 10.0006 44.9982 10.0296 45.1316 10.0296C45.2496 10.0296 45.3679 10.0068 45.4794 9.96131C45.513 9.94765 46.3103 9.62137 47.1004 9.19959C47.831 8.80967 48.5117 8.38 48.8264 7.85038C50.1765 9.04711 50.9238 10.4957 51.3342 11.6651C51.3347 11.6893 51.3353 11.7136 51.3378 11.7381C51.3776 12.1364 50.8307 13.2289 50.3154 13.9594C50.0216 14.3746 50.1199 14.9493 50.5351 15.2433C50.6967 15.3577 50.8823 15.4126 51.0665 15.4126C51.3552 15.4126 51.6396 15.2772 51.819 15.0236C51.9024 14.9059 52.0303 14.7183 52.175 14.4846L54.7242 17.0521L52.5643 19.9323Z" fill="#059033"/>
</svg>
