<svg width="33" height="33" viewBox="0 0 33 33" fill="none" xmlns="http://www.w3.org/2000/svg">
<g clip-path="url(#clip0_1447_583)">
<path d="M16.5 2.75C8.9375 2.75 2.75 8.9375 2.75 16.5C2.75 24.0625 8.9375 30.25 16.5 30.25C24.0625 30.25 30.25 24.0625 30.25 16.5C30.25 8.9375 24.0625 2.75 16.5 2.75ZM23.2375 11.1375L20.9 22.4125C20.7625 23.2375 20.2125 23.375 19.6625 22.9625L16.0875 20.2125C15.2625 21.0375 14.4375 21.725 14.3 22C14.025 22.1375 13.8875 22.4125 13.6125 22.4125C13.2 22.4125 13.2 22.1375 13.0625 21.8625L11.825 17.7375L8.1125 16.5C7.2875 16.225 7.2875 15.675 8.25 15.2625L22.275 9.9C22.825 9.7625 23.5125 10.0375 23.2375 11.1375ZM19.9375 12.375L12.1 17.325L13.3375 21.45L13.6125 18.7L20.35 12.65C20.7625 12.2375 20.4875 12.2375 19.9375 12.375Z" fill="white"/>
</g>
<defs>
<clipPath id="clip0_1447_583">
<rect width="33" height="33" fill="white"/>
</clipPath>
</defs>
</svg>
