<svg width="28" height="28" viewBox="0 0 28 28" fill="none" xmlns="http://www.w3.org/2000/svg">
<g clip-path="url(#clip0_1447_586)">
<path d="M25.8125 0H2.1875C0.978906 0 0 0.978906 0 2.1875V25.8125C0 27.0211 0.978906 28 2.1875 28H25.8125C27.0211 28 28 27.0211 28 25.8125V2.1875C28 0.978906 27.0211 0 25.8125 0ZM19.5891 11.8234C19.5945 11.9438 19.5945 12.0695 19.5945 12.1953C19.5945 15.9961 16.7016 20.382 11.4078 20.382C9.78359 20.382 8.26875 19.9062 7 19.0914C7.22422 19.1187 7.45391 19.1297 7.68906 19.1297C9.03438 19.1297 10.2758 18.6703 11.2602 17.8992C10.0023 17.8773 8.93594 17.0461 8.575 15.9031C8.75 15.9359 8.93047 15.9523 9.11641 15.9523C9.37891 15.9523 9.63594 15.9195 9.87656 15.8484C8.55859 15.5859 7.56875 14.4211 7.56875 13.0266V12.9938C7.95703 13.207 8.4 13.3383 8.87031 13.3547C8.09922 12.8406 7.59063 11.9547 7.59063 10.9594C7.59063 10.4344 7.73281 9.93672 7.97891 9.51016C9.40078 11.2547 11.5172 12.3977 13.907 12.518C13.8578 12.3102 13.8305 12.0914 13.8305 11.8617C13.8305 10.2758 15.1211 8.98516 16.707 8.98516C17.5328 8.98516 18.282 9.33516 18.807 9.89297C19.4633 9.76172 20.0758 9.52656 20.6336 9.19297C20.4203 9.86563 19.9609 10.4289 19.3703 10.7844C19.95 10.7133 20.5078 10.5602 21.0219 10.3305C20.6391 10.9102 20.1523 11.4133 19.5891 11.8234Z" fill="white"/>
</g>
<defs>
<clipPath id="clip0_1447_586">
<rect width="28" height="28" fill="white"/>
</clipPath>
</defs>
</svg>
