<svg width="174" height="174" viewBox="0 0 174 174" fill="none" xmlns="http://www.w3.org/2000/svg">
<path d="M121.474 14.5H52.5264C44.1245 14.5 39.9236 14.5 36.5356 15.6789C30.1108 17.9145 25.0667 23.1071 22.8951 29.7211C21.75 33.209 21.75 37.5336 21.75 46.1829V147.713C21.75 153.935 28.8912 157.237 33.4087 153.103C36.0627 150.674 40.0623 150.674 42.7163 153.103L46.2188 156.308C50.8703 160.564 57.8797 160.564 62.5312 156.308C67.1828 152.051 74.1921 152.051 78.8438 156.308C83.4954 160.564 90.5046 160.564 95.1562 156.308C99.8079 152.051 106.817 152.051 111.469 156.308C116.12 160.564 123.13 160.564 127.781 156.308L131.284 153.103C133.938 150.674 137.937 150.674 140.591 153.103C145.109 157.237 152.25 153.935 152.25 147.713V46.1829C152.25 37.5336 152.25 33.209 151.104 29.7211C148.933 23.1071 143.889 17.9145 137.464 15.6789C134.076 14.5 129.876 14.5 121.474 14.5Z" stroke="black" stroke-width="5"/>
<path d="M68.875 75.4L79.2324 87L105.125 58" stroke="#059033" stroke-width="5" stroke-linecap="round" stroke-linejoin="round"/>
<path d="M54.375 112.375H119.625" stroke="black" stroke-width="5" stroke-linecap="round"/>
</svg>
