<svg width="213" height="185" viewBox="0 0 213 185" fill="none" xmlns="http://www.w3.org/2000/svg">
<path d="M184.994 14.1321C188.253 14.1321 191.541 15.2405 194.244 17.5106C200.312 22.5933 201.144 31.5938 196.108 37.6085L94.5868 158.712C91.8141 162.017 83.8255 170.868 83.8255 170.868C83.8255 170.868 76.992 164.104 73.2041 159.854L17.9398 107.409C12.2712 101.983 12.1048 92.9494 17.5737 87.2242C20.4096 84.2551 24.2008 82.7573 27.9854 82.7573C31.5071 82.7573 35.0187 84.0521 37.7515 86.665L82.2245 128.808L174.13 19.1816C176.919 15.8497 180.933 14.1321 184.994 14.1321ZM184.994 0.817825C176.829 0.817825 169.147 4.39604 163.921 10.6305L81.1128 109.412L46.9084 77.0022C41.8323 72.1425 35.0953 69.443 27.9888 69.443C20.4629 69.443 13.1566 72.5685 7.94743 78.0274C-2.57751 89.0516 -2.22136 106.547 8.73297 117.028L63.6444 169.144C67.7053 173.641 74.1727 180.048 74.4523 180.328C76.9487 182.798 80.3172 184.179 83.8189 184.179C83.942 184.179 84.0652 184.176 84.1917 184.172C87.8298 184.072 91.2649 182.485 93.6981 179.788C94.0343 179.419 101.886 170.715 104.779 167.263L206.304 46.1563C211.04 40.5044 213.274 33.338 212.591 25.9785C211.916 18.6623 208.434 12.0285 202.789 7.29855C197.812 3.1212 191.488 0.817825 184.994 0.817825Z" fill="black"/>
</svg>
