<svg width="201" height="201" viewBox="0 0 201 201" fill="none" xmlns="http://www.w3.org/2000/svg">
<g clip-path="url(#clip0_1729_760)">
<path d="M109.084 142.375H31.0461L80.9863 92.4349L100.5 107.451L120.014 92.4265L133.439 105.852C136.121 104.431 138.938 103.281 141.847 102.418L126.705 87.2759L175.875 49.4125V105.692C178.851 107.173 181.659 108.97 184.25 111.053V46.0625C184.241 42.7334 182.915 39.5432 180.561 37.1892C178.207 34.8352 175.017 33.5088 171.688 33.5H29.3125C25.9834 33.5088 22.7932 34.8352 20.4392 37.1892C18.0852 39.5432 16.7588 42.7334 16.75 46.0625V138.188C16.75 141.519 18.0735 144.715 20.4295 147.071C22.7854 149.426 25.9807 150.75 29.3125 150.75H109.084C108.959 149.368 108.875 147.978 108.875 146.562C108.875 145.147 108.959 143.757 109.084 142.375ZM25.125 136.454V49.4209L74.2946 87.2759L25.125 136.454ZM171.688 41.875C171.763 41.875 171.822 41.9169 171.897 41.9169L100.5 96.8987L29.1031 41.9169C29.1785 41.9169 29.2371 41.875 29.3125 41.875H171.688ZM154.938 108.875C144.946 108.886 135.366 112.86 128.301 119.926C121.235 126.991 117.261 136.571 117.25 146.562C117.31 147.965 117.45 149.363 117.669 150.75C118.677 159.938 123.035 168.433 129.91 174.613C136.784 180.792 145.694 184.223 154.938 184.25H159.125V175.875H154.938C147.907 175.855 141.118 173.306 135.813 168.692C130.507 164.079 127.039 157.71 126.044 150.75C125.803 149.366 125.663 147.967 125.625 146.562C125.621 140.791 127.322 135.147 130.514 130.339C133.706 125.531 138.247 121.773 143.568 119.537C148.888 117.3 154.75 116.685 160.419 117.768C166.088 118.851 171.31 121.584 175.431 125.625H167.5V129.921C163.897 127.151 159.483 125.642 154.938 125.625C151.506 125.615 148.124 126.449 145.09 128.054C142.056 129.658 139.463 131.984 137.539 134.826C135.616 137.668 134.42 140.939 134.058 144.352C133.695 147.765 134.177 151.214 135.462 154.397C136.746 157.579 138.793 160.398 141.422 162.603C144.051 164.809 147.182 166.334 150.54 167.046C153.897 167.757 157.378 167.632 160.676 166.681C163.974 165.731 166.987 163.984 169.451 161.596C170.894 163.907 173.05 165.686 175.594 166.663C178.138 167.639 180.931 167.761 183.55 167.008C186.169 166.256 188.471 164.67 190.109 162.492C191.746 160.315 192.63 157.662 192.625 154.938V146.562C192.505 136.604 188.496 127.088 181.454 120.046C174.412 113.004 164.896 108.995 154.938 108.875ZM154.938 159.125C152.348 159.117 149.824 158.307 147.713 156.808C145.602 155.308 144.006 153.192 143.145 150.75C142.65 149.409 142.389 147.992 142.375 146.562C142.375 143.231 143.699 140.035 146.054 137.679C148.41 135.324 151.606 134 154.938 134C158.269 134 161.465 135.324 163.821 137.679C166.176 140.035 167.5 143.231 167.5 146.562C167.486 147.992 167.225 149.409 166.73 150.75C165.869 153.192 164.273 155.308 162.162 156.808C160.051 158.307 157.527 159.117 154.938 159.125ZM184.25 154.938C184.25 156.048 183.809 157.113 183.024 157.899C182.238 158.684 181.173 159.125 180.062 159.125C178.952 159.125 177.887 158.684 177.101 157.899C176.316 157.113 175.875 156.048 175.875 154.938V126.069C181.137 131.609 184.126 138.923 184.25 146.562V154.938Z" fill="black"/>
</g>
<defs>
<clipPath id="clip0_1729_760">
<rect width="201" height="201" fill="white"/>
</clipPath>
</defs>
</svg>
