<svg width="266" height="266" viewBox="0 0 266 266" fill="none" xmlns="http://www.w3.org/2000/svg">
<g clip-path="url(#clip0_2837_2087)">
<circle cx="155.167" cy="138.542" r="101.135" fill="#059033" fill-opacity="0.1"/>
<path d="M123.411 167.509C123.869 171.942 127.611 175.242 131.971 175.242C132.268 175.242 132.566 175.227 132.867 175.196C137.601 174.706 141.042 170.472 140.552 165.739L136.578 127.287C136.089 122.553 131.853 119.117 127.122 119.602C122.388 120.091 118.947 124.325 119.437 129.059L123.411 167.509Z" fill="black"/>
<path d="M177.336 175.196C177.637 175.227 177.936 175.242 178.232 175.242C182.593 175.242 186.334 171.942 186.793 167.509L190.766 129.058C191.255 124.323 187.814 120.089 183.081 119.601C178.344 119.117 174.112 122.554 173.623 127.286L169.65 165.738C169.16 170.472 172.601 174.706 177.336 175.196Z" fill="black"/>
<path d="M110.615 212.65C95.9079 212.65 83.9431 224.615 83.9431 239.322C83.9431 254.033 95.9079 266.001 110.615 266.001C125.322 266.001 137.288 254.033 137.288 239.322C137.288 224.615 125.322 212.65 110.615 212.65ZM110.615 248.766C105.411 248.766 101.177 244.529 101.177 239.321C101.177 234.116 105.411 229.883 110.615 229.883C115.82 229.883 120.055 234.116 120.055 239.321C120.055 244.529 115.82 248.766 110.615 248.766Z" fill="black"/>
<path d="M199.588 212.65C184.881 212.65 172.915 224.615 172.915 239.322C172.915 254.033 184.88 266.001 199.588 266.001C214.297 266.001 226.264 254.033 226.264 239.322C226.264 224.615 214.297 212.65 199.588 212.65ZM199.588 248.766C194.384 248.766 190.149 244.529 190.149 239.321C190.149 234.116 194.384 229.883 199.588 229.883C204.794 229.883 209.03 234.116 209.03 239.321C209.03 244.529 204.795 248.766 199.588 248.766Z" fill="black"/>
<path d="M251.13 90.8561C249.498 88.7456 246.981 87.5093 244.313 87.5093H72.5562L65.3433 59.7734C64.3553 55.9762 60.9269 53.3257 57.0034 53.3257H21.6869C16.9281 53.3257 13.07 57.1838 13.07 61.9426C13.07 66.7014 16.9281 70.5594 21.6869 70.5594H50.3408L57.4951 98.0713C57.5307 98.2253 57.5709 98.3781 57.6146 98.5286L84.22 200.835C85.2081 204.632 88.6364 207.282 92.56 207.282H217.647C221.57 207.282 224.999 204.632 225.987 200.835L252.653 98.2942C253.324 95.7149 252.761 92.9678 251.13 90.8561ZM210.984 190.051H99.2225L77.0381 104.744H233.17L210.984 190.051Z" fill="black"/>
<path d="M121.275 60.7213C122.957 62.4021 125.162 63.2431 127.366 63.2431C129.572 63.2431 131.778 62.401 133.461 60.7178C136.825 57.3515 136.824 51.8953 133.458 48.5313L106.358 21.4445C102.992 18.0805 97.537 18.0816 94.1719 21.4468C90.8079 24.8131 90.809 30.2693 94.1742 33.6333L121.275 60.7213Z" fill="black"/>
<path d="M182.877 63.242C185.083 63.242 187.29 62.3998 188.973 60.7155L216.033 33.6322C219.397 30.2658 219.393 24.8096 216.027 21.4468C212.661 18.0828 207.204 18.0862 203.841 21.4525L176.782 48.5359C173.418 51.9022 173.422 57.3584 176.788 60.7224C178.47 62.4021 180.674 63.242 182.877 63.242Z" fill="black"/>
<path d="M155.11 55.5052H155.113C159.87 55.5052 163.728 51.6483 163.729 46.8906L163.739 8.61915C163.74 3.86035 159.883 0.00114891 155.124 0H155.123C150.364 0 146.506 3.8569 146.505 8.61456L146.496 46.886C146.495 51.6448 150.351 55.504 155.11 55.5052Z" fill="black"/>
</g>
<defs>
<clipPath id="clip0_2837_2087">
<rect width="266" height="266" fill="white"/>
</clipPath>
</defs>
</svg>
