<svg width="244" height="244" viewBox="0 0 244 244" fill="none" xmlns="http://www.w3.org/2000/svg">
<g clip-path="url(#clip0_2837_1516)">
<circle cx="122" cy="115" r="106" fill="#059033" fill-opacity="0.1"/>
<path d="M34.1604 220.88C30.7532 220.88 27.5934 220.875 24.7531 220.875C23.2759 220.875 22.1863 220.438 22.1863 218.742C22.1863 218.501 22.1421 216.536 22.1421 216.297C22.1421 216.059 22.1863 214.151 22.1863 213.911C22.1863 212.215 34.1615 200.071 34.1615 200.071C62.3224 199.993 190.745 200.071 209.789 200.071C209.789 200.071 221.764 212.215 221.764 213.911C221.764 214.151 221.808 216.057 221.808 216.297C221.807 216.538 221.764 218.503 221.764 218.742C221.764 220.438 220.674 220.875 219.197 220.875C190.36 220.875 155.967 221.009 135.601 221.011C116.555 221.005 65.1132 220.898 34.1604 220.88Z" fill="white"/>
<path d="M34.1604 153.971C30.7532 153.971 27.5934 153.968 24.7531 153.968C23.2759 153.968 22.1863 153.53 22.1863 151.834C22.1863 151.594 22.1421 149.628 22.1421 149.39C22.1421 149.151 22.1863 147.243 22.1863 147.003C22.1863 145.307 34.1615 133.164 34.1615 133.164C62.3224 133.086 190.745 133.164 209.789 133.164C209.789 133.164 221.764 145.307 221.764 147.003C221.764 147.243 221.808 149.149 221.808 149.39C221.807 149.63 221.764 151.596 221.764 151.834C221.764 153.53 220.674 153.968 219.197 153.968C190.36 153.968 155.967 154.102 135.601 154.103C116.555 154.101 65.1132 153.993 34.1604 153.971Z" fill="white"/>
<path d="M34.1604 84.5291C30.7532 84.5291 27.5934 84.5256 24.7531 84.5256C23.2759 84.5256 22.1863 84.0873 22.1863 82.3913C22.1863 82.1509 22.1421 80.186 22.1421 79.9468C22.1421 79.7075 22.1863 77.8002 22.1863 77.5604C22.1863 75.8644 34.1615 63.721 34.1615 63.721C62.3224 63.6436 190.745 63.721 209.789 63.721C209.789 63.721 221.764 75.8644 221.764 77.5604C221.764 77.8008 221.808 79.707 221.808 79.9468C221.807 80.1865 221.764 82.1521 221.764 82.3913C221.764 84.0873 220.674 84.5256 219.197 84.5256C190.36 84.5256 155.967 84.6594 135.601 84.6612C116.555 84.6577 65.1132 84.55 34.1604 84.5291Z" fill="white"/>
<path d="M34.1604 1.52609C30.7532 1.52609 27.5934 1.52958 24.7531 1.52958C23.2759 1.52958 22.1863 1.96726 22.1863 3.66387C22.1863 3.90367 22.1421 5.86918 22.1421 6.10839C22.1421 6.3476 22.1863 8.25491 22.1863 8.49471C22.1863 10.1907 34.1615 20.027 34.1615 20.027C62.3224 20.1044 190.745 20.027 209.789 20.027C209.789 20.027 221.764 10.1907 221.764 8.49471C221.764 8.25433 221.808 6.34819 221.808 6.10839C221.807 5.8686 221.764 3.90251 221.764 3.66387C221.764 1.96726 220.674 1.52958 219.197 1.52958C190.36 1.52958 155.967 1.39571 135.601 1.39397C116.555 1.39688 65.1132 1.50455 34.1604 1.52609Z" fill="white"/>
<path d="M34.1615 85.9259C45.0777 85.9333 55.994 85.9461 66.9105 85.9643C78.6287 85.981 90.3468 85.9991 102.065 86.0185C111.505 86.0332 120.944 86.0454 130.384 86.0551C140.802 86.0633 151.22 86.0509 161.639 86.0179C175.875 85.9864 190.11 85.9579 204.346 85.9323L209.788 85.9265L208.392 84.5296C208.339 89.7522 208.392 94.9782 208.392 100.201V133.162L209.788 131.765C206.956 131.765 204.123 131.765 201.291 131.765L187.714 131.76L170.229 131.754L149.902 131.746L128.096 131.74L105.887 131.736C98.7395 131.736 91.5916 131.736 84.4435 131.736C77.9399 131.736 71.4363 131.738 64.9328 131.741C59.4617 131.743 53.9907 131.747 48.5196 131.752C44.4566 131.756 40.3933 131.763 36.3296 131.771L34.1615 131.777L35.5584 133.174V84.5291C35.5584 82.7312 32.7647 82.7283 32.7647 84.5291V133.171C32.7698 133.54 32.9186 133.892 33.1795 134.153C33.4403 134.414 33.7927 134.563 34.1615 134.568C37.7969 134.556 41.4326 134.549 45.0687 134.547C50.2232 134.54 55.3776 134.536 60.5321 134.534C66.818 134.53 73.1021 134.528 79.3845 134.528C86.4426 134.528 93.501 134.528 100.56 134.528H122.69L144.702 134.533L165.428 134.541L183.704 134.548L198.357 134.553H208.256H209.791C210.16 134.548 210.512 134.399 210.773 134.138C211.034 133.877 211.183 133.525 211.188 133.156V90.2399C211.188 88.3367 211.17 86.4329 211.188 84.5296C211.183 84.1607 211.035 83.8082 210.774 83.5472C210.513 83.2863 210.16 83.1376 209.791 83.1328C195.399 83.1452 181.007 83.172 166.615 83.2131C155.396 83.2387 144.177 83.2554 132.958 83.2631C124 83.2585 115.043 83.2476 106.086 83.2306L71.2635 83.177C60.1219 83.1603 48.9804 83.1464 37.8388 83.1351H34.1627C32.3637 83.131 32.3608 85.9248 34.1615 85.9259Z" fill="#211916"/>
<path d="M211.186 200.066V157.147C211.186 156.089 211.175 155.029 211.186 153.97C211.181 153.601 211.032 153.249 210.771 152.988C210.51 152.727 210.158 152.578 209.789 152.573C195.397 152.586 181.005 152.613 166.613 152.654C155.394 152.68 144.174 152.696 132.955 152.704C123.998 152.699 115.04 152.688 106.083 152.672C94.4753 152.654 82.8678 152.636 71.2606 152.618C60.119 152.601 48.9774 152.587 37.8359 152.576L34.1598 152.573C33.791 152.578 33.4387 152.727 33.1779 152.988C32.917 153.249 32.7682 153.601 32.7629 153.97C32.7629 164.33 32.7629 174.69 32.7629 185.05V200.066C32.768 200.435 32.9169 200.787 33.1777 201.048C33.4386 201.309 33.7909 201.458 34.1598 201.463C37.7951 201.453 41.4309 201.447 45.067 201.444C50.2214 201.439 55.3759 201.435 60.5303 201.433C66.8162 201.431 73.1004 201.429 79.3828 201.429C86.4408 201.429 93.4993 201.429 100.558 201.429C107.935 201.429 115.312 201.43 122.689 201.432L144.7 201.439L165.426 201.446L183.702 201.453L198.355 201.459H208.254H209.79C211.587 201.459 211.59 198.665 209.79 198.665C206.957 198.665 204.124 198.665 201.292 198.665L187.716 198.661L170.23 198.654L149.904 198.646L128.097 198.64C120.694 198.637 113.291 198.636 105.888 198.635C98.7406 198.635 91.5927 198.635 84.4447 198.635C77.9411 198.635 71.4375 198.635 64.9339 198.635C59.4629 198.635 53.9918 198.638 48.5207 198.644C44.4578 198.648 40.3945 198.653 36.3308 198.661C35.6079 198.661 34.8852 198.663 34.1627 198.666L35.5596 200.063V153.967L34.1627 155.364C45.0788 155.371 55.9951 155.384 66.9117 155.402C78.6298 155.419 90.348 155.437 102.066 155.456C111.506 155.471 120.946 155.483 130.385 155.493C140.803 155.501 151.221 155.489 161.64 155.456C175.876 155.424 190.112 155.396 204.348 155.37L209.79 155.364L208.393 153.967C208.268 164.281 208.393 174.604 208.393 184.918V200.061C208.392 201.864 211.186 201.866 211.186 200.066Z" fill="#211916"/>
<path d="M209.789 18.6319H201.291L187.715 18.6371L170.23 18.6441L149.903 18.6517L128.097 18.6586L105.888 18.6633C98.74 18.6633 91.5922 18.6633 84.4441 18.6633C77.9405 18.6633 71.4369 18.6621 64.9333 18.6598C59.4623 18.6598 53.9912 18.6567 48.5202 18.6505C44.4572 18.647 40.3939 18.6416 36.3302 18.6342L34.1621 18.629C33.7932 18.6339 33.4408 18.7827 33.1799 19.0436C32.919 19.3045 32.7702 19.6569 32.7653 20.0258V63.7163C32.7702 64.0853 32.919 64.4377 33.1799 64.6986C33.4408 64.9595 33.7932 65.1082 34.1621 65.1132C37.7975 65.1035 41.4332 65.0973 45.0693 65.0946C50.2238 65.0895 55.3782 65.0858 60.5326 65.0835C66.8185 65.0812 73.1027 65.0796 79.3851 65.0789C86.4432 65.0789 93.5016 65.0789 100.56 65.0789C107.937 65.0789 115.314 65.0802 122.691 65.0829L144.703 65.0893L165.429 65.0969L183.704 65.1039L198.357 65.1097H208.257H209.792C210.161 65.1044 210.513 64.9556 210.774 64.6947C211.035 64.4339 211.184 64.0817 211.189 63.7128V20.0287C211.189 18.2309 208.395 18.2279 208.395 20.0287V63.7192L209.792 62.3224C206.959 62.3224 204.127 62.3224 201.294 62.3224L187.718 62.3171L170.233 62.3102L149.906 62.3026L128.1 62.2956L105.891 62.2909C98.743 62.2909 91.5951 62.2909 84.447 62.2909C77.9434 62.2909 71.4398 62.2921 64.9363 62.2944C59.4652 62.2944 53.9941 62.2973 48.5231 62.3032C44.4601 62.307 40.3968 62.3127 36.3331 62.32L34.165 62.3253L35.5619 63.7221V20.0287L34.165 21.4256C37.8004 21.4357 41.4361 21.4419 45.0722 21.4442C50.2267 21.4497 55.3811 21.4532 60.5355 21.4547C66.8214 21.4574 73.1056 21.459 79.388 21.4594C86.4461 21.4594 93.5045 21.4594 100.563 21.4594C107.94 21.4594 115.317 21.458 122.694 21.4553L144.705 21.4489L165.431 21.4413L183.707 21.4343L198.36 21.4285L208.259 21.4256H209.795C211.585 21.4256 211.59 18.6319 209.789 18.6319Z" fill="#211916"/>
<path d="M34.1615 221.326V242.599C45.3423 242.599 200.039 242.608 209.789 242.599V221.326" fill="white"/>
<path d="M21.6218 84.0727C21.444 83.7203 21.3583 83.3287 21.3726 82.9343C21.3726 82.6939 21.3261 80.7284 21.3267 80.4898C21.3272 80.2512 21.3726 77.8823 21.3726 77.6419V76.7689H22.2934C51.9402 76.6915 201.021 76.3545 221.07 76.3545H221.762V77.6425C221.762 77.8829 221.808 80.25 221.808 80.4904C221.807 80.7307 221.762 82.6962 221.762 82.9349C221.762 84.6309 220.615 85.0686 219.06 85.0686C188.701 85.0686 157.352 85.2025 135.912 85.2042C115.861 85.2007 61.7066 85.0936 29.1212 85.0721C25.5336 85.0721 27.0655 85.0686 24.075 85.0686C22.9494 85.068 22.0408 84.8393 21.6218 84.0727Z" fill="#BCBAB9"/>
<path d="M21.6218 2.47013C21.444 2.82253 21.3583 3.21416 21.3726 3.60857C21.3726 3.84895 21.3261 5.81446 21.3267 6.05309C21.3272 6.29172 21.3726 8.66058 21.3726 8.90095V9.77399L22.2934 9.7769C51.9402 9.85431 201.021 10.1913 221.07 10.1913H221.762V8.90503C221.762 8.66465 221.808 6.29754 221.808 6.05716C221.807 5.81679 221.762 3.85128 221.762 3.61265C221.762 1.91662 220.615 1.47894 219.06 1.47894C188.701 1.47894 157.352 1.34507 135.912 1.34332C115.861 1.34332 61.7066 1.45391 29.1212 1.47544C25.5336 1.47544 27.0655 1.47894 24.075 1.47894C22.9494 1.47486 22.0408 1.7036 21.6218 2.47013Z" fill="#BCBAB9"/>
<path d="M21.6218 153.434C21.444 153.082 21.3583 152.69 21.3726 152.295C21.3726 152.055 21.3261 150.09 21.3267 149.851C21.3272 149.611 21.3726 147.243 21.3726 147.003V146.13H22.2934C51.9402 146.052 201.021 145.715 221.07 145.715H221.762V147.007C221.762 147.247 221.808 149.614 221.808 149.855C221.807 150.095 221.762 152.061 221.762 152.299C221.762 153.996 220.615 154.433 219.06 154.433C188.701 154.433 157.352 154.567 135.912 154.569C115.861 154.566 61.7066 154.459 29.1212 154.437C25.5336 154.437 27.0655 154.433 24.075 154.433C22.9494 154.429 22.0408 154.201 21.6218 153.434Z" fill="#BCBAB9"/>
<path d="M21.6218 220.339C21.444 219.986 21.3583 219.595 21.3726 219.2C21.3726 218.96 21.3261 216.995 21.3267 216.756C21.3272 216.517 21.3726 214.148 21.3726 213.908V213.035H22.2934C51.9402 212.958 201.021 212.621 221.07 212.621H221.762V213.912C221.762 214.152 221.808 216.52 221.808 216.76C221.807 217 221.762 218.966 221.762 219.204C221.762 220.9 220.615 221.338 219.06 221.338C188.701 221.338 157.352 221.472 135.912 221.474C115.861 221.474 61.7066 221.363 29.1212 221.342C25.5336 221.342 27.0655 221.338 24.075 221.338C22.9494 221.334 22.0408 221.105 21.6218 220.339Z" fill="#BCBAB9"/>
<path d="M34.1615 242.599C37.9267 242.599 200.039 242.608 209.789 242.599H34.1615Z" fill="#BCBAB9"/>
<path d="M34.1615 243.996H52.173H70.4673H184.767H200.07C202.992 243.996 205.915 243.996 208.837 243.996H209.789C211.587 243.996 211.59 241.202 209.789 241.202C207.474 241.202 205.159 241.202 202.844 241.202H188.956H122.75H98.319H56.1156H41.9665H34.1615C32.3637 241.202 32.3608 243.996 34.1615 243.996Z" fill="#211916"/>
<path d="M91.3068 221.326V242.599C91.3068 244.396 94.1005 244.399 94.1005 242.599V221.326C94.1005 219.529 91.3068 219.526 91.3068 221.326Z" fill="#211916"/>
<path d="M32.7647 221.326V242.599C32.7647 244.396 35.5584 244.399 35.5584 242.599V221.326C35.5584 219.529 32.7647 219.526 32.7647 221.326Z" fill="#211916"/>
<path d="M149.849 221.326V242.599C149.849 244.396 152.643 244.399 152.643 242.599V221.326C152.643 219.529 149.849 219.526 149.849 221.326Z" fill="#211916"/>
<path d="M208.392 221.326V242.599C208.392 244.396 211.186 244.399 211.186 242.599V221.326C211.186 219.529 208.392 219.526 208.392 221.326Z" fill="#211916"/>
<path d="M34.1604 219.483C31.8125 219.483 29.465 219.482 27.1178 219.479C26.1632 219.545 25.205 219.538 24.2513 219.459C23.6751 219.368 23.6111 219.242 23.5849 218.672C23.5413 217.69 23.532 216.7 23.5506 215.718C23.609 215.158 23.6201 214.594 23.5838 214.033C23.5256 213.676 23.5162 214.409 23.5692 214.091C23.5692 214.091 23.4138 214.332 23.5995 214.04C25.8112 210.554 29.141 207.314 32.1081 204.203C33.117 203.147 34.1315 202.099 35.1516 201.057L34.1621 201.464C42.9985 201.44 51.8348 201.43 60.6712 201.435C73.9724 201.429 87.2735 201.427 100.574 201.431C115.269 201.431 129.964 201.434 144.659 201.44L183.801 201.456C191.949 201.458 200.098 201.461 208.246 201.464H209.791L208.802 201.057C211.57 203.865 214.293 206.727 216.907 209.68C218.204 211.046 219.371 212.53 220.392 214.113C220.589 214.439 220.316 213.845 220.399 214.145C220.352 213.974 220.387 213.801 220.373 214.226C220.352 214.854 220.405 215.489 220.41 216.118C220.413 216.621 220.398 217.125 220.388 217.631C220.381 217.999 220.519 218.912 220.294 219.23C220.02 219.617 219.072 219.481 218.696 219.481H215.156C212.926 219.481 210.694 219.482 208.463 219.486C203.852 219.49 199.241 219.496 194.631 219.505C185.467 219.521 176.304 219.54 167.14 219.563C153.663 219.594 140.186 219.609 126.709 219.609C112.715 219.595 98.721 219.576 84.7264 219.551C69.4799 219.527 54.2335 219.506 38.9871 219.489L34.1563 219.486C32.359 219.486 32.3561 222.279 34.1563 222.279C52.8976 222.292 71.6389 222.317 90.3802 222.353C105.932 222.378 121.485 222.397 137.038 222.411C157.995 222.404 178.952 222.324 199.91 222.295C205.555 222.287 211.2 222.282 216.847 222.279C218.996 222.279 222.039 222.662 222.939 220.118C223.392 218.838 223.221 217.163 223.197 215.818C223.176 214.638 223.282 213.536 222.678 212.484C222.06 211.496 221.359 210.561 220.583 209.691C218.536 207.225 216.334 204.884 214.129 202.562C213.276 201.663 212.415 200.769 211.548 199.879C210.979 199.297 210.559 198.722 209.666 198.679C208.411 198.62 207.138 198.679 205.883 198.679L193.915 198.675L157.001 198.66C141.777 198.654 126.553 198.65 111.33 198.647C96.8694 198.644 82.4089 198.644 67.9482 198.647C57.6561 198.649 47.3637 198.658 37.0711 198.672L34.697 198.677C34.3097 198.664 33.9246 198.742 33.5721 198.903C33.2196 199.064 32.9092 199.304 32.6651 199.605C30.7887 201.527 28.9386 203.474 27.1149 205.447C25.1611 207.569 23.0722 209.717 21.4856 212.14C20.9525 212.995 20.7015 213.996 20.7679 215.002C20.7411 216.34 20.7004 217.7 20.7993 219.035C20.9932 221.664 23.1478 222.279 25.4131 222.279C28.3286 222.279 31.244 222.28 34.1592 222.283C35.9583 222.276 35.9612 219.483 34.1604 219.483Z" fill="#211916"/>
<path d="M34.1604 152.574H27.1178C26.1632 152.64 25.205 152.633 24.2513 152.555C23.6751 152.463 23.6111 152.338 23.5849 151.767C23.5413 150.785 23.532 149.795 23.5506 148.812C23.6092 148.252 23.6202 147.687 23.5838 147.124C23.5256 146.769 23.5162 147.501 23.5692 147.183C23.5692 147.183 23.4138 147.424 23.5995 147.131C25.8112 143.646 29.141 140.405 32.1081 137.295C33.117 136.239 34.1315 135.19 35.1516 134.149L34.1621 134.556C42.9985 134.532 51.8348 134.522 60.6712 134.526C73.9724 134.521 87.2735 134.519 100.574 134.522C115.269 134.522 129.964 134.525 144.659 134.532L183.801 134.547C191.949 134.55 200.098 134.553 208.246 134.555H209.791L208.802 134.148C211.57 136.956 214.293 139.818 216.907 142.771C218.204 144.137 219.371 145.621 220.392 147.205C220.589 147.53 220.316 146.936 220.399 147.236C220.352 147.066 220.387 146.892 220.373 147.317C220.352 147.946 220.405 148.58 220.41 149.209C220.413 149.713 220.398 150.216 220.388 150.722C220.381 151.09 220.519 152.003 220.294 152.321C220.02 152.708 219.072 152.572 218.696 152.572H215.156C212.926 152.572 210.694 152.574 208.463 152.577C203.852 152.581 199.241 152.587 194.631 152.596C185.467 152.612 176.304 152.631 167.14 152.654C153.663 152.686 140.186 152.701 126.709 152.701C112.715 152.686 98.721 152.667 84.7264 152.643C69.4799 152.619 54.2335 152.598 38.9871 152.581L34.1563 152.577C32.359 152.577 32.3561 155.371 34.1563 155.371C52.8976 155.384 71.6389 155.409 90.3802 155.445C105.932 155.47 121.485 155.489 137.038 155.503C157.995 155.495 178.952 155.415 199.91 155.384C205.555 155.375 211.2 155.37 216.847 155.368C218.996 155.368 222.039 155.751 222.939 153.207C223.392 151.927 223.221 150.252 223.197 148.907C223.176 147.727 223.282 146.624 222.678 145.573C222.06 144.584 221.359 143.649 220.583 142.779C218.536 140.313 216.334 137.972 214.129 135.65C213.276 134.75 212.415 133.856 211.548 132.967C210.979 132.385 210.559 131.809 209.666 131.767C208.411 131.709 207.138 131.767 205.883 131.767C201.894 131.767 197.905 131.766 193.915 131.763C181.611 131.758 169.306 131.754 157.001 131.749C141.777 131.743 126.553 131.739 111.33 131.736C96.8694 131.733 82.4089 131.733 67.9482 131.736C57.6561 131.738 47.3637 131.747 37.0711 131.761L34.697 131.766C34.3097 131.754 33.9247 131.831 33.5722 131.992C33.2197 132.153 32.9092 132.393 32.6651 132.694C30.7887 134.616 28.9386 136.563 27.1149 138.537C25.1611 140.658 23.0722 142.807 21.4856 145.23C20.9525 146.085 20.7015 147.086 20.7679 148.091C20.7411 149.43 20.7004 150.79 20.7993 152.124C20.9932 154.752 23.1478 155.368 25.4131 155.368C28.3286 155.368 31.244 155.369 34.1592 155.372C35.9583 155.37 35.9612 152.576 34.1604 152.574Z" fill="#211916"/>
<path d="M34.1604 83.1322C31.8125 83.1322 29.465 83.131 27.1178 83.1287C26.1632 83.1946 25.205 83.188 24.2513 83.1089C23.6751 83.0181 23.6111 82.8918 23.5849 82.3214C23.5413 81.3395 23.532 80.3495 23.5506 79.3671C23.6092 78.8064 23.6202 78.2417 23.5838 77.6792C23.5256 77.323 23.5162 78.0552 23.5692 77.7374C23.5692 77.7374 23.4138 77.9789 23.5995 77.6862C25.8112 74.201 29.141 70.9608 32.1081 67.8499C33.117 66.7941 34.1315 65.7453 35.1516 64.7034L34.1621 65.1109C42.9985 65.0864 51.8348 65.0765 60.6712 65.0812C73.9724 65.0754 87.2735 65.074 100.574 65.0771C115.269 65.0771 129.964 65.0806 144.659 65.0876C157.706 65.0919 170.754 65.0967 183.801 65.1021C191.949 65.1056 200.098 65.1085 208.246 65.1109H209.791L208.802 64.7034C211.57 67.5117 214.293 70.3736 216.907 73.3262C218.204 74.6924 219.371 76.1771 220.392 77.7607C220.589 78.086 220.316 77.4912 220.399 77.7915C220.352 77.6216 220.387 77.4481 220.373 77.873C220.352 78.501 220.405 79.136 220.41 79.7646C220.413 80.268 220.398 80.7715 220.388 81.2749C220.381 81.6428 220.519 82.5554 220.294 82.8738C220.02 83.2608 219.072 83.1252 218.696 83.1252H215.156C212.926 83.1252 210.694 83.1268 208.463 83.1299C203.852 83.1345 199.241 83.1409 194.631 83.1491C185.467 83.1654 176.304 83.1848 167.14 83.2073C153.663 83.2379 140.186 83.2533 126.709 83.2533C112.715 83.2393 98.721 83.2199 84.7264 83.1951C69.4799 83.1714 54.2335 83.1508 38.9871 83.1334L34.1563 83.1293C32.359 83.1293 32.3561 85.923 34.1563 85.923C52.8976 85.9358 71.6389 85.9607 90.3802 85.9975C105.932 86.022 121.485 86.0414 137.038 86.0557C157.995 86.0481 178.952 85.9678 199.91 85.9364C205.555 85.9283 211.2 85.923 216.847 85.9207C218.996 85.9207 222.04 86.3037 222.939 83.7602C223.392 82.4797 223.221 80.8047 223.197 79.459C223.176 78.2792 223.282 77.1769 222.678 76.1257C222.06 75.137 221.359 74.2024 220.583 73.332C218.536 70.8665 216.334 68.525 214.129 66.2033C213.276 65.3043 212.415 64.4101 211.548 63.5208C210.979 62.9358 210.559 62.3631 209.666 62.32C208.411 62.2618 207.138 62.32 205.883 62.32L193.915 62.316L157.001 62.3014C141.777 62.296 126.553 62.2917 111.33 62.2886C96.8694 62.2859 82.4089 62.2859 67.9482 62.2886C57.6561 62.2917 47.3637 62.3001 37.0711 62.3136L34.697 62.3195C34.3102 62.3076 33.926 62.3854 33.5742 62.5466C33.2224 62.7078 32.9127 62.9482 32.6692 63.249C30.7928 65.17 28.9427 67.1173 27.119 69.0908C25.1651 71.2128 23.0762 73.3617 21.4896 75.7841C20.9566 76.6391 20.7056 77.64 20.772 78.6453C20.7452 79.984 20.7045 81.3442 20.8034 82.6782C20.9972 85.3072 23.1519 85.9224 25.4172 85.923C28.3327 85.923 31.2481 85.9242 34.1633 85.9265C35.9583 85.9271 35.9612 83.1334 34.1604 83.1322Z" fill="#211916"/>
<path d="M23.0611 214.426C26.8967 214.416 30.7324 214.406 34.5684 214.397C40.2664 214.382 45.9647 214.368 51.6631 214.356L73.0299 214.306L97.056 214.252L122.411 214.194C130.831 214.175 139.253 214.157 147.677 214.14L171.437 214.091L192.273 214.051C197.772 214.041 203.271 214.031 208.769 214.023C212.36 214.017 215.95 214.012 219.54 214.009H221.107C222.905 214.009 222.908 211.216 221.107 211.216C218.074 211.216 215.04 211.218 212.007 211.224C206.938 211.232 201.869 211.24 196.8 211.249L176.805 211.287C169.077 211.302 161.35 211.318 153.623 211.334L128.591 211.387L103.128 211.445L78.65 211.5L56.5748 211.551L38.3201 211.594C33.9666 211.605 29.6128 211.616 25.2588 211.627L23.0611 211.633C21.2638 211.638 21.2603 214.432 23.0611 214.427V214.426Z" fill="#211916"/>
<path d="M211.186 200.067V154.103C211.186 152.306 208.392 152.303 208.392 154.103V200.067C208.392 201.864 211.186 201.867 211.186 200.067Z" fill="#211916"/>
<path d="M202.136 200.067V154.103C202.136 152.306 199.342 152.303 199.342 154.103V200.067C199.342 201.864 202.136 201.867 202.136 200.067Z" fill="#211916"/>
<path d="M44.6084 200.067V154.103C44.6084 152.306 41.8146 152.303 41.8146 154.103V200.067C41.8146 201.864 44.6084 201.867 44.6084 200.067Z" fill="#211916"/>
<path d="M44.6084 133.145V84.6623C44.6084 82.8645 41.8146 82.8615 41.8146 84.6623V133.145C41.8146 134.943 44.6084 134.946 44.6084 133.145Z" fill="#211916"/>
<path d="M44.6084 63.7029V20.0287C44.6084 18.2309 41.8146 18.2279 41.8146 20.0287V63.7029C41.8146 65.5002 44.6084 65.5037 44.6084 63.7029Z" fill="#211916"/>
<path d="M202.136 133.162V84.6612C202.136 82.8633 199.342 82.8604 199.342 84.6612V133.162C199.342 134.959 202.136 134.962 202.136 133.162Z" fill="#211916"/>
<path d="M202.136 63.3828V20.0287C202.136 18.2309 199.342 18.2279 199.342 20.0287V63.3828C199.342 65.1801 202.136 65.183 202.136 63.3828Z" fill="#211916"/>
<path d="M32.7647 153.971V200.032C32.7647 201.83 35.5584 201.833 35.5584 200.032V153.971C35.5584 152.174 32.7647 152.171 32.7647 153.971Z" fill="#211916"/>
<path d="M23.0611 147.521C26.8967 147.511 30.7324 147.501 34.5684 147.492L51.6631 147.451L73.0299 147.401C81.0386 147.383 89.0473 147.365 97.056 147.347L122.411 147.289L147.677 147.236L171.437 147.187L192.273 147.147C197.772 147.137 203.271 147.127 208.769 147.118C212.36 147.113 215.95 147.109 219.54 147.105H221.107C222.905 147.105 222.908 144.311 221.107 144.311C218.074 144.311 215.04 144.314 212.007 144.32C206.938 144.328 201.869 144.336 196.8 144.345L176.805 144.383C169.077 144.398 161.35 144.414 153.623 144.43C145.28 144.447 136.936 144.464 128.591 144.483L103.128 144.541L78.65 144.595C71.2916 144.612 63.9332 144.629 56.5748 144.646L38.3201 144.69C33.9666 144.7 29.6128 144.711 25.2588 144.722L23.0611 144.728C21.2638 144.733 21.2603 147.527 23.0611 147.522V147.521Z" fill="#211916"/>
<path d="M211.186 133.162V84.6612C211.186 82.8633 208.392 82.8604 208.392 84.6612V133.162C208.392 134.959 211.186 134.962 211.186 133.162Z" fill="#211916"/>
<path d="M32.7647 84.5291V133.128C32.7647 134.926 35.5584 134.929 35.5584 133.128V84.5291C35.5584 82.7312 32.7647 82.7283 32.7647 84.5291Z" fill="#211916"/>
<path d="M23.0611 78.079C26.8967 78.0685 30.7324 78.0587 34.5684 78.0493L51.6631 78.008L73.0299 77.9585L97.056 77.9044L122.411 77.8491L147.677 77.795L171.437 77.7467L192.273 77.7065C197.772 77.696 203.271 77.6865 208.769 77.678C212.36 77.6722 215.95 77.6677 219.54 77.6646H221.107C222.905 77.6646 222.908 74.8709 221.107 74.8709C218.074 74.8709 215.04 74.874 212.007 74.8802C206.938 74.8872 201.869 74.8955 196.8 74.9052C190.135 74.9169 183.47 74.9295 176.805 74.9431L153.623 74.9896L128.591 75.0426L103.128 75.0979L78.65 75.1526L56.5748 75.2038L38.3201 75.2469C33.9666 75.2574 29.6128 75.2684 25.2588 75.2801L23.0611 75.2859C21.2638 75.2905 21.2603 78.0843 23.0611 78.0796V78.079Z" fill="#211916"/>
<path d="M211.186 63.3828V20.0287C211.186 18.2309 208.392 18.2279 208.392 20.0287V63.3828C208.392 65.1801 211.186 65.183 211.186 63.3828Z" fill="#211916"/>
<path d="M32.7647 20.0287V63.7192C32.7647 65.5171 35.5584 65.52 35.5584 63.7192V20.0287C35.5584 18.2309 32.7647 18.2279 32.7647 20.0287Z" fill="#211916"/>
<path d="M34.1604 0.129214C31.1338 0.129214 28.1073 0.119319 25.0807 0.132706C22.7224 0.143182 20.9123 1.08199 20.7895 3.66678C20.7278 4.981 20.747 6.30336 20.7737 7.62457C20.7286 8.70972 21.0989 9.77125 21.8092 10.5929C23.6018 12.8372 25.8793 14.7433 28.0281 16.6344C29.7044 18.1098 31.3911 19.5864 33.1325 20.985C33.8699 21.5769 34.8437 21.4297 35.7418 21.432L38.2776 21.4367C40.3473 21.4409 42.417 21.444 44.4867 21.446C49.7587 21.4518 55.0305 21.4555 60.3022 21.457C74.0353 21.4632 87.7684 21.4648 101.502 21.4617C116.648 21.4617 131.795 21.458 146.942 21.4506L186.404 21.4355L200.699 21.4303C203.677 21.4303 206.694 21.5705 209.668 21.4303C210.512 21.3895 211.088 20.765 211.705 20.2488C212.67 19.4417 213.629 18.6268 214.582 17.8042C216.952 15.8375 219.209 13.7389 221.343 11.5183C222.008 10.7989 222.857 9.95384 223.099 8.96905C223.383 7.80849 223.211 6.41337 223.188 5.22137C223.152 3.40836 223.236 1.39571 221.289 0.530813C220.21 0.0512218 219.009 0.140272 217.855 0.140272H213.792C191.943 0.124363 170.094 0.0809053 148.245 0.00989786C133.181 -0.0149353 118.117 -0.00659293 103.052 0.0349251C84.1183 0.0640264 65.1842 0.0911877 46.2497 0.116409C42.2201 0.121453 38.1903 0.125721 34.1604 0.129214C32.3631 0.129214 32.3602 2.92295 34.1604 2.92295C48.8624 2.91247 63.5644 2.89307 78.2664 2.86474C92.6743 2.84263 107.083 2.82129 121.492 2.80072C133.841 2.78559 146.191 2.79257 158.541 2.82167C176.446 2.86048 194.35 2.89385 212.255 2.92178C214.457 2.92178 216.66 2.91829 218.863 2.92178C219.241 2.92178 220.036 2.80945 220.293 3.17322C220.526 3.50556 220.382 4.49908 220.389 4.88205C220.411 5.97801 220.338 7.08037 220.372 8.174C220.385 8.60296 220.369 8.41438 220.394 8.26654C220.379 8.35443 220.594 7.98717 220.377 8.27877C220.295 8.38877 220.226 8.51507 220.147 8.62798C219.952 8.91201 220.272 8.47491 220.129 8.6565C220.051 8.75487 219.97 8.8509 219.889 8.94752C216.921 12.4513 213.161 15.4005 209.645 18.335C209.364 18.5679 209.083 18.8016 208.8 19.0364L209.79 18.629C202.389 18.629 194.989 18.6313 187.588 18.636C175.021 18.6414 162.454 18.6462 149.888 18.6505C135.236 18.6559 120.583 18.6598 105.93 18.6621C92.2281 18.6621 78.5258 18.6621 64.8233 18.6621C55.3301 18.6594 45.8368 18.6509 36.3436 18.6365L34.1621 18.6313L35.1516 19.0387C32.49 16.8515 29.8714 14.6013 27.3472 12.2575C26.5544 11.5207 25.7699 10.7733 25.0191 9.994C24.7071 9.67039 24.3992 9.34155 24.107 8.9999C23.9341 8.81118 23.7782 8.60744 23.6414 8.3911C23.3434 7.97087 23.6414 8.26072 23.5832 8.49412C23.6354 7.95694 23.625 7.41552 23.5523 6.88074C23.5331 5.91515 23.5582 4.95073 23.5785 3.98457C23.5878 3.53582 23.5133 3.20814 23.9394 3.00851C24.6762 2.66453 25.9806 2.92411 26.7698 2.92411C29.2333 2.92411 31.6972 2.92295 34.1615 2.92062C35.9583 2.92178 35.9612 0.128049 34.1604 0.129214Z" fill="#211916"/>
<path d="M23.0611 10.7675C26.8967 10.778 30.7324 10.7879 34.5684 10.7972L51.6631 10.8379L73.0299 10.8874C81.0386 10.906 89.0473 10.9241 97.056 10.9415L122.411 10.9997L147.677 11.0533L171.437 11.1022L192.273 11.1423C197.772 11.1524 203.271 11.1619 208.769 11.1709C212.36 11.1763 215.95 11.1808 219.54 11.1843H221.107C222.905 11.1843 222.908 8.39052 221.107 8.39052C218.074 8.39052 215.04 8.38741 212.007 8.3812C206.938 8.37422 201.869 8.36588 196.8 8.35618C190.135 8.34454 183.47 8.33193 176.805 8.31835L153.623 8.27178L128.591 8.21882L103.128 8.16062C94.9685 8.14316 86.8092 8.12492 78.65 8.10591C71.2916 8.08961 63.9332 8.07273 56.5748 8.05527L38.3201 8.0122C33.9666 8.00095 29.6128 7.98989 25.2588 7.97902L23.0611 7.97379C21.2615 7.97379 21.2615 10.7675 23.0611 10.7675Z" fill="#211916"/>
</g>
<defs>
<clipPath id="clip0_2837_1516">
<rect width="244" height="244" fill="white"/>
</clipPath>
</defs>
</svg>
