<svg width="256" height="256" viewBox="0 0 256 256" fill="none" xmlns="http://www.w3.org/2000/svg">
<path fill-rule="evenodd" clip-rule="evenodd" d="M180 16C177.791 16.0002 176 17.791 176 20V36V52H64C48.5834 52 36 64.5834 36 80V140C36.0002 142.209 37.791 144 40 144C42.7788 143.992 45.2518 143.999 48 143.992V154C48 159.471 52.5292 164 58 164C63.4708 164 68 159.471 68 154V148C71.2383 148 74.1421 146.406 75.9766 143.977C94.6556 143.961 113.596 143.928 132 143.945V230C132 235.471 136.529 240 142 240C147.471 240 152 235.471 152 230V143.961C154.245 143.963 156.614 143.965 158.844 143.969C160.398 147.496 163.936 150 168 150H198C203.471 150 208 145.471 208 140V122C208 118.773 206.415 115.882 204 114.047V80C204 67.3619 195.541 56.646 184 53.1875V40H216C218.209 39.9998 220 38.209 220 36V20C220 17.791 218.209 16.0002 216 16H180ZM184 24H212V32H184V24ZM64 60C75.0931 60 84 68.9069 84 80V136H77.7969C76.8552 131.468 72.787 128 68 128H58C53.213 128 49.1448 131.468 48.2031 136H44V80C44 68.9069 52.9069 60 64 60ZM83.5547 60H116V100C116 105.471 120.529 110 126 110C131.471 110 136 105.471 136 100V76C136 74.8228 136.823 74 138 74C139.177 74 140 74.8228 140 76V84C140 89.4708 144.529 94 150 94C155.471 94 160 89.4708 160 84V60H176V80H172C169.791 80 168 81.7909 168 84C168 86.2091 169.791 88 172 88H180H188C190.209 88 192 86.2091 192 84C192 81.7909 190.209 80 188 80H184V61.6562C191.078 64.7278 196 71.7575 196 80V112.203C191.468 113.145 188 117.213 188 122V130H168C163.949 130 160.421 132.489 158.859 136C136.588 136.001 114.325 136 92 136V80C92 72.1792 88.7585 65.0896 83.5547 60ZM124 60H152V84C152 85.1772 151.177 86 150 86C148.823 86 148 85.1772 148 84V76C148 70.5292 143.471 66 138 66C132.529 66 128 70.5292 128 76V100C128 101.177 127.177 102 126 102C124.823 102 124 101.177 124 100V60ZM198 120C199.177 120 200 120.823 200 122V140C200 141.177 199.177 142 198 142H168C166.823 142 166 141.177 166 140C166 138.823 166.823 138 168 138H192C194.209 138 196 136.209 196 134V122C196 120.823 196.823 120 198 120ZM58 136H68C69.1772 136 70 136.823 70 138C70 139.177 69.1772 140 68 140H64C61.791 140 60.0002 141.791 60 144V154C60 155.177 59.1772 156 58 156C56.8228 156 56 155.177 56 154V138C56 136.823 56.8228 136 58 136ZM140 143.953C141.297 143.954 142.698 143.952 144 143.953V230C144 231.177 143.177 232 142 232C140.823 232 140 231.177 140 230V143.953Z" fill="black"/>
<path fill-rule="evenodd" clip-rule="evenodd" d="M27.3691 20.5845C26.3083 20.5845 25.2908 21.0058 24.5406 21.7559C23.7905 22.5061 23.3691 23.5237 23.3691 24.5845C23.3691 25.6454 23.7905 26.6628 24.5406 27.4129C25.2908 28.163 26.3083 28.5845 27.3691 28.5845C28.43 28.5845 29.4474 28.163 30.1975 27.4129C30.9477 26.6628 31.3691 25.6454 31.3691 24.5845C31.3691 23.5237 30.9477 22.5061 30.1975 21.7559C29.4474 21.0058 28.43 20.5845 27.3691 20.5845Z" fill="#059033"/>
<path fill-rule="evenodd" clip-rule="evenodd" d="M232.789 58.2637C231.728 58.2637 230.711 58.6852 229.961 59.4354C229.21 60.1855 228.789 61.2029 228.789 62.2637C228.789 63.3246 229.21 64.342 229.961 65.0921C230.711 65.8423 231.728 66.2637 232.789 66.2637C233.85 66.2637 234.867 65.8423 235.617 65.0921C236.368 64.342 236.789 63.3246 236.789 62.2637C236.789 61.2029 236.368 60.1855 235.617 59.4354C234.867 58.6852 233.85 58.2637 232.789 58.2637Z" fill="#059033"/>
<path fill-rule="evenodd" clip-rule="evenodd" d="M214.381 167.72C213.32 167.72 212.303 168.142 211.553 168.892C210.803 169.642 210.381 170.659 210.381 171.72C210.381 172.781 210.803 173.798 211.553 174.549C212.303 175.299 213.32 175.72 214.381 175.72C215.442 175.72 216.46 175.299 217.21 174.549C217.96 173.798 218.381 172.781 218.381 171.72C218.381 170.659 217.96 169.642 217.21 168.892C216.46 168.142 215.442 167.72 214.381 167.72Z" fill="black"/>
<path fill-rule="evenodd" clip-rule="evenodd" d="M105.865 169.53C104.804 169.53 103.787 169.952 103.036 170.702C102.286 171.452 101.865 172.47 101.865 173.53C101.865 174.591 102.286 175.609 103.036 176.359C103.787 177.109 104.804 177.53 105.865 177.53C106.926 177.53 107.943 177.109 108.693 176.359C109.443 175.609 109.865 174.591 109.865 173.53C109.865 172.47 109.443 171.452 108.693 170.702C107.943 169.952 106.926 169.53 105.865 169.53Z" fill="black"/>
<path fill-rule="evenodd" clip-rule="evenodd" d="M194.508 218.844C193.483 218.569 192.391 218.713 191.473 219.243C190.554 219.774 189.884 220.647 189.609 221.672L187.539 229.406C187.265 230.431 187.408 231.523 187.939 232.441C188.469 233.36 189.343 234.03 190.367 234.305C191.392 234.579 192.483 234.435 193.402 233.905C194.321 233.375 194.991 232.501 195.266 231.477L197.336 223.742C197.61 222.718 197.466 221.626 196.936 220.707C196.406 219.789 195.532 219.118 194.508 218.844Z" fill="#059033"/>
<path fill-rule="evenodd" clip-rule="evenodd" d="M200.719 195.664C199.694 195.39 198.603 195.533 197.684 196.064C196.765 196.594 196.095 197.468 195.82 198.492L193.75 206.219C193.476 207.243 193.619 208.335 194.15 209.254C194.68 210.172 195.554 210.843 196.578 211.117C197.603 211.392 198.694 211.248 199.613 210.717C200.531 210.187 201.202 209.314 201.477 208.289L203.547 200.562C203.821 199.538 203.677 198.446 203.147 197.528C202.617 196.609 201.743 195.939 200.719 195.664Z" fill="#059033"/>
<path fill-rule="evenodd" clip-rule="evenodd" d="M181.125 206.977C180.1 206.702 179.009 206.846 178.09 207.376C177.171 207.907 176.501 208.78 176.227 209.805C175.952 210.829 176.096 211.921 176.626 212.84C177.157 213.758 178.03 214.428 179.055 214.703L186.781 216.773C187.806 217.048 188.897 216.904 189.816 216.374C190.735 215.843 191.405 214.97 191.68 213.945C191.954 212.921 191.81 211.829 191.28 210.91C190.75 209.992 189.876 209.321 188.852 209.047L181.125 206.977Z" fill="#059033"/>
<path fill-rule="evenodd" clip-rule="evenodd" d="M204.305 213.187C203.28 212.913 202.188 213.057 201.27 213.587C200.351 214.117 199.681 214.991 199.406 216.016C199.132 217.04 199.276 218.132 199.806 219.051C200.336 219.969 201.21 220.639 202.234 220.914L209.961 222.984C210.469 223.121 210.999 223.157 211.52 223.089C212.042 223.021 212.545 222.851 213.001 222.588C213.456 222.325 213.856 221.975 214.176 221.558C214.496 221.141 214.731 220.664 214.867 220.156C215.003 219.648 215.037 219.119 214.968 218.598C214.899 218.076 214.728 217.574 214.465 217.119C214.201 216.664 213.851 216.266 213.433 215.946C213.016 215.627 212.539 215.393 212.031 215.258L204.305 213.187Z" fill="#059033"/>
<path fill-rule="evenodd" clip-rule="evenodd" d="M56 112C54.9391 112 53.9218 112.421 53.1716 113.172C52.4215 113.922 52 114.939 52 116C52 117.061 52.4215 118.078 53.1716 118.828C53.9218 119.579 54.9391 120 56 120H72C73.0609 120 74.0782 119.579 74.8284 118.828C75.5785 118.078 76 117.061 76 116C76 114.939 75.5785 113.922 74.8284 113.172C74.0782 112.421 73.0609 112 72 112H56Z" fill="black"/>
<path fill-rule="evenodd" clip-rule="evenodd" d="M64.0001 68C60.9214 68 58.1901 69.5535 56.2891 71.6562C54.3881 73.759 53.1341 76.4361 52.4844 79.4219C52.2591 80.4578 52.4544 81.541 53.0272 82.4331C53.5999 83.3252 54.5034 83.9534 55.5391 84.1797C56.0526 84.2924 56.5834 84.3028 57.1009 84.2102C57.6184 84.1176 58.1125 83.9238 58.5551 83.6401C58.9977 83.3564 59.3801 82.9885 59.6804 82.5569C59.9806 82.1253 60.1927 81.6387 60.3047 81.125C60.7003 79.3076 61.4733 77.8489 62.2266 77.0156C62.98 76.1823 63.5276 76 64.0001 76C64.4623 76 64.9918 76.1784 65.7266 76.9688C66.4615 77.7591 67.2324 79.1423 67.6485 80.8906C67.8934 81.9222 68.5378 82.8144 69.4402 83.3711C70.3426 83.9278 71.4292 84.1034 72.461 83.8594C72.9726 83.7382 73.4553 83.5172 73.8815 83.2092C74.3077 82.9013 74.669 82.5124 74.9448 82.0647C75.2205 81.617 75.4052 81.1193 75.4885 80.6001C75.5717 80.0809 75.5517 79.5505 75.4297 79.0391C74.741 76.145 73.4746 73.547 71.586 71.5156C69.6974 69.4842 67.0123 68 64.0001 68Z" fill="black"/>
<path fill-rule="evenodd" clip-rule="evenodd" d="M50.7966 213.156C50.2887 213.02 49.7589 212.984 49.2374 213.053C48.7159 213.121 48.213 213.292 47.7575 213.555L40.8356 217.555C39.917 218.084 39.2462 218.957 38.9708 219.981C38.6954 221.005 38.8378 222.097 39.3669 223.016C39.6298 223.471 39.9799 223.87 40.3972 224.19C40.8144 224.509 41.2905 224.744 41.7984 224.88C42.3063 225.015 42.836 225.05 43.3571 224.98C43.8783 224.911 44.3807 224.74 44.8356 224.476L51.7575 220.476C52.6762 219.947 53.347 219.074 53.6224 218.05C53.8978 217.026 53.7553 215.935 53.2263 215.016C52.6948 214.098 51.8209 213.43 50.7966 213.156Z" fill="black"/>
<path fill-rule="evenodd" clip-rule="evenodd" d="M71.5778 201.156C70.5545 200.882 69.4643 201.026 68.5465 201.555L61.6169 205.555C60.6995 206.086 60.0304 206.959 59.7565 207.983C59.4826 209.007 59.6262 210.098 60.1559 211.016C60.6869 211.933 61.5602 212.602 62.5841 212.876C63.6081 213.15 64.6988 213.006 65.6169 212.477L72.5465 208.477C73.4639 207.946 74.133 207.072 74.4069 206.048C74.6808 205.024 74.5372 203.934 74.0075 203.016C73.476 202.098 72.6021 201.43 71.5778 201.156Z" fill="black"/>
<path fill-rule="evenodd" clip-rule="evenodd" d="M49.7262 195.297C49.2183 195.16 48.6885 195.125 48.167 195.193C47.6455 195.262 47.1427 195.432 46.6872 195.695C45.7698 196.226 45.1007 197.1 44.8268 198.123C44.5529 199.147 44.6965 200.238 45.2262 201.156L49.2262 208.086C49.7559 209.005 50.6286 209.675 51.6526 209.951C52.6766 210.226 53.7682 210.084 54.6872 209.555C55.1431 209.292 55.5428 208.943 55.8634 208.526C56.1841 208.109 56.4194 207.633 56.5558 207.125C56.6922 206.617 56.7271 206.087 56.6585 205.566C56.5899 205.044 56.4191 204.541 56.1559 204.086L52.1559 197.156C51.6244 196.239 50.7505 195.57 49.7262 195.297Z" fill="black"/>
<path fill-rule="evenodd" clip-rule="evenodd" d="M61.7262 216.078C61.2183 215.941 60.6885 215.906 60.167 215.975C59.6455 216.043 59.1426 216.214 58.6871 216.476C58.2319 216.739 57.8329 217.09 57.5131 217.507C57.1932 217.924 56.9587 218.4 56.823 218.908C56.6873 219.416 56.6531 219.946 56.7223 220.467C56.7915 220.988 56.9627 221.49 57.2262 221.945L61.2262 228.875C61.7572 229.792 62.6305 230.461 63.6544 230.735C64.6783 231.009 65.7691 230.866 66.6871 230.336C67.6058 229.806 68.2766 228.933 68.552 227.909C68.8274 226.885 68.6849 225.794 68.1559 224.875L64.1559 217.945C63.8935 217.49 63.5439 217.09 63.127 216.77C62.71 216.449 62.234 216.214 61.7262 216.078Z" fill="black"/>
<path fill-rule="evenodd" clip-rule="evenodd" d="M118.193 27.9719C117.132 27.9719 116.115 28.3933 115.365 29.1435C114.614 29.8936 114.193 30.911 114.193 31.9719C114.193 33.0327 114.614 34.0503 115.365 34.8005C116.115 35.5506 117.132 35.9719 118.193 35.9719C119.254 35.9719 120.271 35.5506 121.021 34.8005C121.772 34.0503 122.193 33.0327 122.193 31.9719C122.193 30.911 121.772 29.8936 121.021 29.1435C120.271 28.3933 119.254 27.9719 118.193 27.9719Z" fill="black"/>
<path fill-rule="evenodd" clip-rule="evenodd" d="M78 163C72.5292 163 68 167.529 68 173V179C68 184.471 72.5292 189 78 189C83.4708 189 88 184.471 88 179V173C88 167.529 83.4708 163 78 163ZM78 171C79.1772 171 80 171.823 80 173V179C80 180.177 79.1772 181 78 181C76.8228 181 76 180.177 76 179V173C76 171.823 76.8228 171 78 171Z" fill="#059033"/>
</svg>
