<svg width="744" height="357" viewBox="0 0 744 357" fill="none" xmlns="http://www.w3.org/2000/svg">
<path fill-rule="evenodd" clip-rule="evenodd" d="M255.816 188.498L268.34 181.267L255.816 174.037C254.716 173.401 231.778 160.343 201.061 156.944C223.615 131.33 231.123 101.71 231.454 100.372L234.765 86.9536L221.347 90.2652C220 90.5978 190.012 98.1988 164.291 121.086C164.458 117.783 164.542 114.507 164.542 111.267C164.542 58.5323 142.835 16.301 141.911 14.5288L134.508 0.332886L127.104 14.5288C126.18 16.301 104.473 58.5323 104.473 111.267C104.473 114.508 104.557 117.783 104.724 121.086C79.002 98.1988 49.0148 90.5978 47.6678 90.2652L34.2501 86.9536L37.561 100.372C37.8913 101.71 45.4027 131.332 67.9548 156.944C37.2378 160.344 14.298 173.402 13.1985 174.037L0.675049 181.266L13.1985 188.497C13.7178 188.797 19.1135 191.869 27.896 195.385C32.7432 178.238 48.5065 165.673 67.2053 165.673C75.9625 165.673 84.0752 168.43 90.7246 173.122L113.009 174.205L93.2493 158.149C90.347 155.792 87.5902 153.31 85.0549 150.775C72.3527 138.073 64.2244 123.135 59.4467 112.128C70.4255 116.888 85.3225 125.002 98.0754 137.755C101.992 141.673 105.733 146.068 109.194 150.82L130.404 179.942L124.166 144.459C122.18 133.162 121.174 121.994 121.174 111.265C121.174 82.1907 128.553 56.1266 134.508 39.8274C140.465 56.1282 147.844 82.1907 147.844 111.265C147.844 121.994 146.837 133.162 144.851 144.459L138.612 179.943L159.823 150.821C163.284 146.068 167.025 141.674 170.941 137.756C183.631 125.067 198.551 116.943 209.555 112.163C204.774 123.168 196.651 138.087 183.962 150.777C181.426 153.312 178.669 155.793 175.767 158.152L156.009 174.207L177.11 173.182C183.809 168.373 192.023 165.541 200.899 165.541C219.76 165.541 235.632 178.325 240.33 195.7C249.58 192.054 255.282 188.807 255.816 188.498Z" fill="#059033"/>
<path fill-rule="evenodd" clip-rule="evenodd" d="M155.336 257.252C148.974 262.821 150.677 278.479 164.443 286.999C177.193 294.893 193.586 276.679 182.053 265.142C171.992 255.083 165.051 248.75 155.336 257.252Z" fill="black"/>
<path fill-rule="evenodd" clip-rule="evenodd" d="M114.457 257.252C104.742 248.75 97.8003 255.083 87.7407 265.142C76.2074 276.679 92.6 294.893 105.35 286.999C119.116 278.479 120.819 262.821 114.457 257.252Z" fill="black"/>
<path fill-rule="evenodd" clip-rule="evenodd" d="M229.621 206.769C229.621 190.824 216.696 177.901 200.749 177.901C186.077 177.901 173.966 188.852 172.129 203.026C167.207 201.163 162.254 200.017 157.473 199.335C150.332 198.311 143.528 198.259 137.586 198.255C136.666 198.255 135.768 198.259 134.897 198.259C134.028 198.259 133.13 198.255 132.207 198.255C126.924 198.259 120.964 198.303 114.686 199.027C109.983 199.572 105.094 200.503 100.193 202.117C99.351 202.391 98.5055 202.696 97.6638 203.014C95.8197 188.844 83.7116 177.9 69.044 177.9C53.0963 177.901 40.1722 190.825 40.1722 206.769C40.1722 221.143 50.6702 233.055 64.4145 235.266C63.4757 237.217 62.5599 239.227 61.7069 241.372C51.891 265.926 48.9199 284.136 48.9199 296.938C48.9199 301.352 49.2756 305.125 49.8285 308.293C50.3853 311.461 51.1382 314.02 51.9693 316.06C54.2359 321.621 57.7856 326.039 61.7768 329.459C67.776 334.601 74.7315 337.651 80.7111 339.85C83.7007 340.945 86.4571 341.82 88.7055 342.569C89.8254 342.941 90.816 343.281 91.6173 343.59C92.4182 343.893 93.0339 344.172 93.3532 344.35C94.7777 345.121 96.6992 346.305 99.0735 347.614C102.635 349.588 107.246 351.843 113.136 353.564C119.023 355.293 126.191 356.488 134.897 356.484C146.504 356.491 155.378 354.351 162.129 351.699C165.505 350.375 168.346 348.931 170.721 347.614C173.091 346.306 175.013 345.122 176.441 344.35C176.868 344.112 177.813 343.704 179.037 343.274C181.196 342.495 184.223 341.568 187.61 340.381C192.696 338.585 198.632 336.189 204.162 332.412C206.926 330.52 209.586 328.28 211.941 325.572C214.297 322.872 216.337 319.704 217.824 316.061C218.655 314.024 219.408 311.461 219.965 308.293C220.521 305.125 220.874 301.353 220.874 296.934C220.87 284.136 217.903 265.923 208.087 241.372C207.233 239.228 206.325 237.211 205.386 235.266C219.126 233.048 229.621 221.14 229.621 206.769ZM67.2053 219.52C60.025 219.52 54.2041 213.699 54.2041 206.519C54.2041 199.339 60.025 193.519 67.2053 193.519C74.3853 193.519 80.2061 199.339 80.2061 206.519C80.2061 213.699 74.3853 219.52 67.2053 219.52ZM200.899 219.387C193.719 219.387 187.898 213.567 187.898 206.386C187.898 199.206 193.719 193.385 200.899 193.385C208.08 193.385 213.9 199.206 213.9 206.386C213.9 213.567 208.08 219.387 200.899 219.387ZM210.264 296.934C210.264 300.785 209.956 303.945 209.514 306.46C209.077 308.971 208.502 310.837 208.005 312.046C206.443 315.853 204.068 318.857 201.105 321.417C196.672 325.237 190.885 327.908 185.439 329.889C182.716 330.884 180.09 331.718 177.735 332.505C176.552 332.898 175.438 333.28 174.389 333.68C173.334 334.084 172.348 334.5 171.373 335.027C169.551 336.025 167.711 337.16 165.586 338.332C162.41 340.09 158.62 341.938 153.678 343.384C148.741 344.831 142.646 345.874 134.897 345.878C124.562 345.87 117.18 344.03 111.537 341.823C108.714 340.714 106.326 339.505 104.207 338.332C102.082 337.16 100.241 336.024 98.42 335.027C97.1214 334.33 95.794 333.814 94.3321 333.287C91.7874 332.375 88.8461 331.481 85.7076 330.375C81.0078 328.724 75.922 326.61 71.6221 323.657C69.4666 322.188 67.5118 320.515 65.8503 318.605C64.1885 316.694 62.812 314.553 61.7881 312.046C61.2907 310.837 60.7159 308.971 60.2786 306.459C59.8371 303.944 59.5257 300.784 59.5287 296.937C59.5257 285.782 62.1328 268.87 71.5552 245.307C75.2428 236.081 79.6309 229.333 84.3568 224.322C87.9031 220.56 91.6498 217.763 95.5408 215.626C101.372 212.429 107.571 210.73 113.826 209.832C120.073 208.934 126.345 208.86 132.207 208.86C133.109 208.86 134.006 208.868 134.897 208.868C135.783 208.868 136.681 208.86 137.586 208.86C142.794 208.86 148.329 208.919 153.886 209.565C158.052 210.047 162.225 210.856 166.287 212.191C172.382 214.202 178.228 217.355 183.648 222.518C189.06 227.69 194.086 234.931 198.238 245.306C207.66 268.868 210.268 285.783 210.264 296.934Z" fill="black"/>
<path fill-rule="evenodd" clip-rule="evenodd" d="M155.741 307.491C153.456 310.132 150.529 311.431 147.758 311.431C145.283 311.416 142.902 310.451 140.898 308.192C139.44 306.534 138.191 304.108 137.489 300.792C142.586 299.931 146.385 296.604 146.385 292.62C146.385 287.983 141.243 284.225 134.897 284.225C128.55 284.225 123.405 287.983 123.405 292.62C123.405 296.311 126.672 299.442 131.21 300.566C130.549 304.035 129.325 306.549 127.904 308.245C126.962 309.376 125.927 310.159 124.855 310.674C123.786 311.187 122.67 311.431 121.535 311.431C118.991 311.431 116.264 310.181 114.094 307.544C113.166 306.409 111.493 306.245 110.362 307.173C109.23 308.1 109.063 309.77 109.991 310.905C113.025 314.614 117.228 316.736 121.535 316.736C123.445 316.736 125.363 316.313 127.148 315.457C129.83 314.177 132.181 311.925 133.88 308.85C134.055 308.538 134.217 308.211 134.377 307.881C135.104 309.309 135.947 310.593 136.918 311.698C139.845 315.044 143.814 316.751 147.758 316.732C152.194 316.735 156.564 314.658 159.758 310.956C160.712 309.847 160.589 308.174 159.48 307.217C158.371 306.26 156.698 306.382 155.741 307.491Z" fill="black"/>
<path d="M382.974 137.767C382.974 129.784 384.565 122.705 387.749 116.528C390.933 110.351 395.256 105.6 400.72 102.274C406.184 98.9479 412.29 97.2849 419.037 97.2849C424.929 97.2849 430.083 98.4732 434.502 100.849C438.921 103.224 442.461 106.218 445.122 109.829L465.219 98.5677V177.535L445.122 165.99C442.555 169.696 439.016 172.76 434.502 175.183C429.989 177.607 424.786 178.818 418.894 178.818C412.242 178.818 406.184 177.108 400.72 173.687C395.256 170.266 390.933 165.443 387.749 159.219C384.565 152.995 382.974 145.844 382.974 137.767ZM445.122 138.052C445.122 133.205 444.172 129.048 442.271 125.579C440.371 122.111 437.804 119.45 434.574 117.597C431.343 115.744 427.874 114.818 424.168 114.818C420.462 114.818 417.041 115.72 413.905 117.526C410.769 119.332 408.227 121.969 406.28 125.437C404.331 128.905 403.357 133.015 403.357 137.767C403.357 142.518 404.331 146.676 406.28 150.239C408.227 153.802 410.793 156.534 413.976 158.435C417.16 160.335 420.558 161.286 424.168 161.286C427.874 161.286 431.343 160.36 434.574 158.506C437.804 156.653 440.371 153.992 442.271 150.524C444.172 147.055 445.122 142.898 445.122 138.052Z" fill="black"/>
<path d="M525.115 97.4278C534.523 97.4278 542.125 100.398 547.922 106.337C553.718 112.276 556.617 120.567 556.617 131.21V177.535H536.661V133.918C536.661 127.647 535.093 122.824 531.958 119.45C528.821 116.077 524.545 114.39 519.129 114.39C513.617 114.39 509.269 116.077 506.086 119.45C502.903 122.824 501.311 127.647 501.311 133.918V177.535H481.355V98.5677L501.311 108.404C503.972 104.983 507.369 102.298 511.503 100.35C515.636 98.4014 520.174 97.4278 525.115 97.4278Z" fill="black"/>
<path d="M660.3 137.767C660.3 129.784 661.892 122.705 665.076 116.528C668.259 110.351 672.583 105.6 678.047 102.274C683.511 98.9479 689.617 97.2849 696.363 97.2849C702.255 97.2849 707.41 98.4732 711.829 100.849C716.247 103.224 719.788 106.218 722.448 109.829L742.546 98.5677V177.535L722.448 165.99C719.882 169.696 716.343 172.76 711.829 175.183C707.316 177.607 702.112 178.818 696.221 178.818C689.569 178.818 683.511 177.108 678.047 173.687C672.583 170.266 668.259 165.443 665.076 159.219C661.892 152.995 660.3 145.844 660.3 137.767ZM722.448 138.052C722.448 133.205 721.498 129.048 719.597 125.579C717.697 122.111 715.131 119.45 711.9 117.597C708.669 115.744 705.201 114.818 701.495 114.818C697.789 114.818 694.368 115.72 691.232 117.526C688.096 119.332 685.554 121.969 683.606 125.437C681.658 128.905 680.684 133.015 680.684 137.767C680.684 142.518 681.658 146.676 683.606 150.239C685.554 153.802 688.12 156.534 691.303 158.435C694.487 160.335 697.884 161.286 701.495 161.286C705.201 161.286 708.669 160.36 711.9 158.506C715.131 156.653 717.697 153.992 719.597 150.524C721.498 147.055 722.448 142.898 722.448 138.052Z" fill="black"/>
<path d="M372.369 235.673C370.089 231.491 366.953 228.308 362.962 226.123C358.971 223.937 354.315 222.844 348.993 222.844C343.101 222.844 337.875 224.175 333.314 226.835C328.752 229.496 325.189 233.297 322.623 238.239C320.057 243.18 318.775 248.881 318.775 255.344C318.775 261.995 320.081 267.792 322.695 272.733C325.307 277.674 328.943 281.475 333.599 284.137C338.255 286.797 343.671 288.128 349.848 288.128C357.45 288.128 363.674 286.108 368.521 282.069C373.367 278.031 376.551 272.401 378.071 265.179H343.862V249.926H397.742V267.317C396.411 274.253 393.56 280.668 389.189 286.559C384.818 292.451 379.188 297.179 372.298 300.743C365.409 304.306 357.688 306.088 349.135 306.088C339.538 306.088 330.867 303.926 323.122 299.602C315.377 295.279 309.296 289.268 304.877 281.571C300.458 273.874 298.248 265.131 298.248 255.344C298.248 245.555 300.458 236.789 304.877 229.045C309.296 221.3 315.377 215.266 323.122 210.942C330.867 206.618 339.49 204.456 348.993 204.456C360.206 204.456 369.946 207.189 378.214 212.653C386.481 218.117 392.182 225.79 395.319 235.673H372.369Z" fill="black"/>
<path d="M498.433 306.515C490.831 306.515 483.988 304.829 477.907 301.455C471.825 298.081 467.05 293.307 463.581 287.13C460.113 280.953 458.379 273.826 458.379 265.749C458.379 257.671 460.16 250.545 463.724 244.368C467.287 238.191 472.158 233.416 478.335 230.042C484.512 226.669 491.401 224.982 499.003 224.982C506.605 224.982 513.495 226.669 519.671 230.042C525.848 233.416 530.718 238.191 534.282 244.368C537.845 250.545 539.627 257.671 539.627 265.749C539.627 273.826 537.798 280.953 534.139 287.13C530.48 293.307 525.539 298.081 519.315 301.455C513.091 304.829 506.129 306.515 498.433 306.515ZM498.433 289.125C502.043 289.125 505.441 288.246 508.625 286.488C511.807 284.73 514.35 282.094 516.25 278.578C518.15 275.061 519.101 270.785 519.101 265.749C519.101 258.241 517.129 252.469 513.185 248.43C509.242 244.391 504.419 242.372 498.718 242.372C493.016 242.372 488.241 244.391 484.392 248.43C480.544 252.469 478.62 258.241 478.62 265.749C478.62 273.256 480.497 279.029 484.25 283.067C488.003 287.106 492.731 289.125 498.433 289.125Z" fill="black"/>
<path d="M711.588 225.125C720.996 225.125 728.598 228.094 734.394 234.033C740.191 239.973 743.09 248.263 743.09 258.907V305.232H723.134V261.615C723.134 255.344 721.566 250.521 718.43 247.147C715.294 243.774 711.018 242.087 705.601 242.087C700.089 242.087 695.742 243.774 692.559 247.147C689.376 250.521 687.784 255.344 687.784 261.615V305.232H667.828V226.265L687.784 236.101C690.444 232.679 693.842 229.995 697.976 228.047C702.109 226.098 706.647 225.125 711.588 225.125Z" fill="black"/>
<path d="M660.387 226.265L656.74 238.739L636.868 245.249L641.287 226.265H660.387ZM653.629 249.377L637.296 305.232H615.772L601.376 250.069L586.979 305.232H565.313L556.356 274.79L572.37 269.543L576.288 286.417L591.398 226.265H612.494L627.318 286.274L634.444 255.663L653.629 249.377ZM553.775 266.016L542.079 226.265H562.32L570.294 260.604L553.775 266.016Z" fill="black"/>
<path d="M567.051 137.767C567.051 129.784 568.642 122.705 571.826 116.528C575.009 110.352 579.357 105.6 584.868 102.274C590.38 98.9479 596.509 97.285 603.256 97.285C608.388 97.285 613.281 98.4014 617.938 100.635C622.594 102.868 626.3 105.838 629.056 109.543V96.1496L649.296 89.5184V177.535L629.056 165.847C626.585 169.743 623.117 172.879 618.651 175.255C614.184 177.631 609.005 178.818 603.114 178.818C596.461 178.818 590.38 177.108 584.868 173.687C579.357 170.266 575.009 165.443 571.826 159.219C568.642 152.995 567.051 145.844 567.051 137.767ZM629.056 86.5303V72.0558H649.296V79.8991L629.056 86.5303ZM629.198 138.052C629.198 133.205 628.248 129.048 626.347 125.579C624.447 122.111 621.881 119.45 618.651 117.597C615.419 115.744 611.951 114.818 608.245 114.818C604.539 114.818 601.118 115.72 597.982 117.526C594.846 119.332 592.304 121.969 590.356 125.437C588.408 128.905 587.434 133.015 587.434 137.767C587.434 142.518 588.408 146.676 590.356 150.239C592.304 153.803 594.87 156.534 598.053 158.435C601.237 160.335 604.634 161.286 608.245 161.286C611.951 161.286 615.419 160.36 618.651 158.506C621.881 156.653 624.447 153.992 626.347 150.524C628.248 147.055 629.198 142.898 629.198 138.052Z" fill="black"/>
<path d="M377.387 108.831C377.387 114.153 376.127 119.141 373.609 123.798C371.091 128.454 367.147 132.207 361.778 135.058C356.409 137.91 349.639 139.334 341.466 139.334H324.789V148.052L304.833 154.59V78.0422H341.466C349.163 78.0422 355.72 79.3722 361.137 82.0334C366.553 84.6942 370.616 88.3524 373.324 93.0092C376.032 97.6652 377.387 102.939 377.387 108.831ZM324.789 157.672V177.535H304.833V164.209L324.789 157.672ZM340.611 123.227C346.123 123.227 350.209 121.969 352.869 119.45C355.53 116.932 356.86 113.392 356.86 108.831C356.86 99.1384 351.444 94.2919 340.611 94.2919H324.789V123.227H340.611Z" fill="black"/>
<path d="M429.129 281.224V305.233H409.173V287.762L429.129 281.224Z" fill="#059033"/>
<path d="M429.129 238.524C431.695 234.343 435.045 231.063 439.178 228.687C443.313 226.313 448.04 225.125 453.361 225.125V246.078H448.087C441.815 246.078 437.088 247.551 433.905 250.497C430.721 253.443 429.129 258.574 429.129 265.892V271.605L409.173 278.143V226.265L429.129 238.524Z" fill="black"/>
</svg>
