<svg width="708" height="341" viewBox="0 0 708 341" fill="none" xmlns="http://www.w3.org/2000/svg">
<path fill-rule="evenodd" clip-rule="evenodd" d="M243.103 180.252L255.036 173.363L243.103 166.474C242.055 165.868 220.199 153.426 190.933 150.187C212.422 125.783 219.576 97.5613 219.891 96.2861L223.046 83.5018L210.262 86.6569C208.978 86.9737 180.406 94.216 155.899 116.023C156.058 112.876 156.138 109.755 156.138 106.667C156.138 56.4218 135.456 16.1846 134.575 14.4959L127.522 0.970139L120.468 14.4959C119.587 16.1846 98.905 56.4218 98.905 106.667C98.905 109.755 98.9847 112.876 99.1442 116.023C74.6362 94.216 46.0649 86.9737 44.7818 86.6569L31.9971 83.5018L35.1519 96.2861C35.4667 97.5613 42.6233 125.785 64.1106 150.187C34.8439 153.428 12.9869 165.869 11.9392 166.474L0.00720215 173.362L11.9392 180.251C12.4343 180.537 17.5752 183.464 25.9431 186.814C30.5617 170.477 45.5804 158.505 63.3963 158.505C71.7404 158.505 79.4703 161.132 85.8055 165.602L107.038 166.634L88.2108 151.336C85.4457 149.09 82.8193 146.726 80.4034 144.311C68.301 132.207 60.5564 117.975 56.0043 107.488C66.4649 112.023 80.6585 119.754 92.8093 131.905C96.5416 135.638 100.106 139.825 103.403 144.353L123.612 172.1L117.668 138.292C115.776 127.529 114.817 116.888 114.817 106.665C114.817 78.9637 121.849 54.1299 127.522 38.6002C133.197 54.1315 140.228 78.9637 140.228 106.665C140.228 116.888 139.269 127.529 137.376 138.292L131.433 172.101L151.642 144.354C154.939 139.826 158.503 135.638 162.235 131.906C174.325 119.816 188.542 112.075 199.026 107.521C194.471 118.007 186.731 132.221 174.642 144.312C172.225 146.727 169.598 149.091 166.833 151.338L148.008 166.636L168.113 165.659C174.495 161.077 182.322 158.378 190.779 158.378C208.749 158.378 223.872 170.559 228.348 187.114C237.161 183.641 242.594 180.547 243.103 180.252Z" fill="#FEFEFE"/>
<path fill-rule="evenodd" clip-rule="evenodd" d="M147.367 245.761C141.305 251.066 142.928 265.985 156.044 274.103C168.192 281.625 183.81 264.271 172.822 253.278C163.237 243.693 156.623 237.66 147.367 245.761Z" fill="#FEFEFE"/>
<path fill-rule="evenodd" clip-rule="evenodd" d="M108.417 245.761C99.1609 237.66 92.5474 243.693 82.9626 253.278C71.9736 264.271 87.5925 281.625 99.7403 274.103C112.857 265.985 114.479 251.066 108.417 245.761Z" fill="#FEFEFE"/>
<path fill-rule="evenodd" clip-rule="evenodd" d="M218.144 197.66C218.144 182.469 205.83 170.155 190.636 170.155C176.657 170.155 165.117 180.589 163.367 194.095C158.677 192.32 153.958 191.228 149.403 190.577C142.599 189.601 136.117 189.553 130.455 189.549C129.578 189.549 128.723 189.552 127.892 189.552C127.065 189.552 126.21 189.549 125.329 189.549C120.297 189.552 114.617 189.594 108.636 190.284C104.155 190.804 99.4964 191.69 94.8276 193.228C94.0248 193.489 93.2194 193.779 92.417 194.083C90.6603 180.582 79.1236 170.155 65.1485 170.155C49.954 170.155 37.6395 182.469 37.6395 197.66C37.6395 211.356 47.6421 222.706 60.7374 224.812C59.8431 226.671 58.9704 228.587 58.1578 230.63C48.8054 254.024 45.9745 271.375 45.9745 283.573C45.9745 287.778 46.3135 291.373 46.8404 294.391C47.3703 297.41 48.088 299.849 48.8799 301.792C51.0395 307.091 54.4218 311.3 58.2243 314.559C63.9401 319.458 70.5675 322.363 76.2648 324.459C79.113 325.502 81.7394 326.336 83.8817 327.05C84.949 327.403 85.8928 327.728 86.6558 328.022C87.4189 328.311 88.0059 328.577 88.3101 328.746C89.6674 329.481 91.4982 330.609 93.7606 331.856C97.1535 333.737 101.547 335.885 107.159 337.526C112.769 339.173 119.597 340.311 127.893 340.308C138.952 340.314 147.406 338.276 153.839 335.748C157.056 334.487 159.763 333.112 162.025 331.857C164.283 330.61 166.114 329.482 167.475 328.747C167.882 328.52 168.783 328.131 169.949 327.722C172.006 326.979 174.89 326.096 178.117 324.964C182.963 323.254 188.618 320.971 193.887 317.373C196.521 315.57 199.055 313.435 201.299 310.855C203.544 308.282 205.488 305.264 206.905 301.793C207.697 299.852 208.414 297.41 208.944 294.392C209.475 291.373 209.81 287.779 209.81 283.569C209.807 271.375 206.979 254.021 197.627 230.63C196.814 228.588 195.948 226.665 195.054 224.813C208.146 222.699 218.144 211.353 218.144 197.66ZM63.3962 209.81C56.5553 209.81 51.0092 204.264 51.0092 197.423C51.0092 190.581 56.5553 185.035 63.3962 185.035C70.2376 185.035 75.7837 190.581 75.7837 197.423C75.7837 204.264 70.2376 209.81 63.3962 209.81ZM190.779 209.683C183.938 209.683 178.392 204.137 178.392 197.296C178.392 190.455 183.938 184.909 190.779 184.909C197.62 184.909 203.166 190.455 203.166 197.296C203.166 204.137 197.62 209.683 190.779 209.683ZM199.702 283.569C199.702 287.238 199.408 290.248 198.987 292.645C198.57 295.038 198.022 296.816 197.549 297.968C196.061 301.594 193.799 304.457 190.975 306.896C186.751 310.536 181.237 313.081 176.048 314.968C173.455 315.916 170.952 316.711 168.708 317.46C167.58 317.835 166.52 318.199 165.519 318.58C164.516 318.966 163.576 319.362 162.646 319.864C160.911 320.815 159.157 321.896 157.133 323.013C154.107 324.688 150.495 326.448 145.787 327.826C141.083 329.205 135.275 330.198 127.892 330.202C118.045 330.195 111.012 328.442 105.635 326.339C102.946 325.282 100.67 324.13 98.6517 323.013C96.6262 321.896 94.8729 320.814 93.1377 319.864C91.9003 319.199 90.6353 318.708 89.2426 318.206C86.818 317.336 84.0155 316.485 81.0255 315.431C76.5471 313.858 71.7018 311.844 67.6048 309.03C65.551 307.63 63.6884 306.037 62.1055 304.216C60.5219 302.396 59.2108 300.357 58.2353 297.967C57.7614 296.815 57.2133 295.037 56.7968 292.644C56.3762 290.248 56.0795 287.237 56.0825 283.571C56.0795 272.943 58.5638 256.83 67.5409 234.379C71.0547 225.589 75.2356 219.16 79.7386 214.385C83.1171 210.801 86.6872 208.135 90.3946 206.1C95.9508 203.053 101.857 201.434 107.816 200.579C113.768 199.723 119.745 199.653 125.329 199.653C126.189 199.653 127.044 199.66 127.892 199.66C128.737 199.66 129.592 199.653 130.455 199.653C135.417 199.653 140.691 199.709 145.985 200.324C149.954 200.784 153.93 201.555 157.801 202.827C163.607 204.743 169.178 207.747 174.342 212.667C179.498 217.593 184.288 224.493 188.243 234.379C197.22 256.828 199.705 272.944 199.702 283.569Z" fill="#FEFEFE"/>
<path fill-rule="evenodd" clip-rule="evenodd" d="M147.753 293.628C145.575 296.144 142.786 297.381 140.146 297.381C137.788 297.367 135.52 296.448 133.61 294.296C132.221 292.716 131.031 290.404 130.363 287.245C135.219 286.425 138.838 283.254 138.838 279.459C138.838 275.04 133.939 271.46 127.892 271.46C121.845 271.46 116.943 275.04 116.943 279.459C116.943 282.976 120.056 285.959 124.379 287.029C123.75 290.335 122.584 292.73 121.229 294.346C120.332 295.424 119.346 296.17 118.325 296.661C117.307 297.149 116.243 297.382 115.161 297.382C112.737 297.382 110.139 296.191 108.071 293.678C107.188 292.597 105.594 292.441 104.516 293.324C103.438 294.208 103.278 295.799 104.162 296.88C107.053 300.414 111.058 302.436 115.161 302.436C116.982 302.436 118.809 302.033 120.509 301.217C123.064 299.997 125.305 297.852 126.924 294.922C127.09 294.625 127.245 294.314 127.397 294C128.09 295.36 128.892 296.583 129.818 297.636C132.607 300.824 136.389 302.45 140.146 302.432C144.373 302.435 148.537 300.456 151.58 296.929C152.489 295.872 152.371 294.278 151.315 293.366C150.258 292.454 148.664 292.571 147.753 293.628Z" fill="#FEFEFE"/>
<path d="M364.258 131.916C364.258 124.31 365.774 117.565 368.808 111.68C371.841 105.795 375.96 101.268 381.166 98.0991C386.372 94.9296 392.19 93.3452 398.618 93.3452C404.232 93.3452 409.143 94.4775 413.353 96.7407C417.563 99.0043 420.936 101.856 423.471 105.297L442.621 94.5675V169.807L423.471 158.807C421.027 162.337 417.654 165.257 413.353 167.566C409.053 169.875 404.096 171.029 398.482 171.029C392.144 171.029 386.372 169.399 381.166 166.14C375.96 162.881 371.841 158.286 368.808 152.355C365.774 146.425 364.258 139.612 364.258 131.916ZM423.471 132.187C423.471 127.57 422.566 123.609 420.755 120.304C418.945 116.999 416.5 114.464 413.422 112.698C410.343 110.933 407.038 110.05 403.507 110.05C399.976 110.05 396.717 110.91 393.729 112.631C390.741 114.351 388.319 116.864 386.463 120.168C384.607 123.473 383.679 127.389 383.679 131.916C383.679 136.443 384.607 140.404 386.463 143.799C388.319 147.195 390.764 149.797 393.796 151.608C396.83 153.419 400.067 154.324 403.507 154.324C407.038 154.324 410.343 153.442 413.422 151.676C416.5 149.91 418.945 147.375 420.755 144.071C422.566 140.766 423.471 136.805 423.471 132.187Z" fill="#FEFEFE"/>
<path d="M499.689 93.4813C508.652 93.4813 515.896 96.311 521.419 101.969C526.941 107.628 529.703 115.528 529.703 125.668V169.807H510.69V128.249C510.69 122.273 509.195 117.678 506.208 114.464C503.22 111.25 499.146 109.643 493.985 109.643C488.733 109.643 484.591 111.25 481.558 114.464C478.525 117.678 477.008 122.273 477.008 128.249V169.807H457.994V94.5675L477.008 103.939C479.543 100.679 482.781 98.1214 486.719 96.2656C490.657 94.4091 494.98 93.4813 499.689 93.4813Z" fill="#FEFEFE"/>
<path d="M628.492 131.916C628.492 124.31 630.009 117.565 633.042 111.68C636.075 105.795 640.194 101.268 645.401 98.0991C650.607 94.9296 656.424 93.3452 662.852 93.3452C668.466 93.3452 673.378 94.4775 677.588 96.7407C681.798 99.0043 685.171 101.856 687.706 105.297L706.855 94.5675V169.807L687.706 158.807C685.261 162.337 681.888 165.257 677.588 167.566C673.287 169.875 668.33 171.029 662.716 171.029C656.379 171.029 650.607 169.399 645.401 166.14C640.194 162.881 636.075 158.286 633.042 152.355C630.009 146.425 628.492 139.612 628.492 131.916ZM687.706 132.187C687.706 127.57 686.801 123.609 684.989 120.304C683.179 116.999 680.734 114.464 677.656 112.698C674.577 110.933 671.272 110.05 667.742 110.05C664.21 110.05 660.951 110.91 657.963 112.631C654.975 114.351 652.553 116.864 650.697 120.168C648.841 123.473 647.913 127.389 647.913 131.916C647.913 136.443 648.841 140.404 650.697 143.799C652.553 147.195 654.998 149.797 658.031 151.608C661.064 153.419 664.301 154.324 667.742 154.324C671.272 154.324 674.577 153.442 677.656 151.676C680.734 149.91 683.179 147.375 684.989 144.071C686.801 140.766 687.706 136.805 687.706 132.187Z" fill="#FEFEFE"/>
<path d="M354.154 225.2C351.981 221.216 348.993 218.183 345.191 216.1C341.388 214.018 336.952 212.976 331.881 212.976C326.268 212.976 321.288 214.245 316.942 216.78C312.596 219.315 309.201 222.936 306.756 227.645C304.312 232.352 303.089 237.785 303.089 243.942C303.089 250.279 304.334 255.803 306.824 260.511C309.314 265.218 312.777 268.84 317.214 271.376C321.65 273.911 326.811 275.178 332.696 275.178C339.939 275.178 345.869 273.254 350.487 269.406C355.105 265.558 358.138 260.194 359.586 253.313H326.992V238.781H378.328V255.35C377.061 261.959 374.344 268.071 370.18 273.684C366.015 279.298 360.65 283.802 354.086 287.198C347.522 290.593 340.165 292.291 332.017 292.291C322.872 292.291 314.611 290.231 307.231 286.111C299.852 281.992 294.058 276.265 289.848 268.931C285.637 261.597 283.532 253.267 283.532 243.942C283.532 234.616 285.637 226.264 289.848 218.884C294.058 211.505 299.852 205.756 307.231 201.637C314.611 197.517 322.827 195.457 331.881 195.457C342.565 195.457 351.845 198.06 359.722 203.266C367.6 208.473 373.032 215.784 376.02 225.2H354.154Z" fill="#FEFEFE"/>
<path d="M474.266 292.698C467.023 292.698 460.504 291.091 454.709 287.877C448.915 284.662 444.365 280.113 441.06 274.228C437.755 268.343 436.103 261.552 436.103 253.856C436.103 246.16 437.8 239.37 441.196 233.484C444.591 227.599 449.232 223.049 455.117 219.835C461.002 216.621 467.566 215.014 474.809 215.014C482.052 215.014 488.617 216.621 494.502 219.835C500.387 223.049 505.027 227.599 508.422 233.484C511.818 239.37 513.515 246.16 513.515 253.856C513.515 261.552 511.773 268.343 508.286 274.228C504.801 280.113 500.092 284.662 494.163 287.877C488.232 291.091 481.599 292.698 474.266 292.698ZM474.266 276.129C477.706 276.129 480.943 275.291 483.976 273.616C487.009 271.941 489.432 269.429 491.242 266.079C493.053 262.729 493.959 258.655 493.959 253.856C493.959 246.703 492.08 241.203 488.322 237.355C484.565 233.507 479.97 231.583 474.537 231.583C469.105 231.583 464.555 233.507 460.888 237.355C457.222 241.203 455.388 246.703 455.388 253.856C455.388 261.008 457.177 266.509 460.753 270.357C464.329 274.205 468.834 276.129 474.266 276.129Z" fill="#FEFEFE"/>
<path d="M677.359 215.15C686.322 215.15 693.565 217.979 699.088 223.638C704.611 229.297 707.373 237.196 707.373 247.337V291.476H688.359V249.917C688.359 243.942 686.865 239.346 683.878 236.132C680.89 232.919 676.815 231.311 671.654 231.311C666.403 231.311 662.26 232.919 659.228 236.132C656.194 239.346 654.678 243.942 654.678 249.917V291.476H635.664V216.236L654.678 225.607C657.213 222.348 660.45 219.79 664.388 217.934C668.327 216.077 672.65 215.15 677.359 215.15Z" fill="#FEFEFE"/>
<path d="M628.575 216.236L625.099 228.121L606.166 234.325L610.376 216.236H628.575ZM622.135 238.257L606.573 291.476H586.066L572.349 238.917L558.632 291.476H537.989L529.455 262.47L544.712 257.471L548.446 273.549L562.842 216.236H582.943L597.066 273.412L603.856 244.246L622.135 238.257ZM526.995 254.111L515.851 216.236H535.137L542.735 248.954L526.995 254.111Z" fill="#FEFEFE"/>
<path d="M539.644 131.916C539.644 124.31 541.161 117.565 544.194 111.68C547.227 105.795 551.369 101.268 556.621 98.0991C561.872 94.9296 567.712 93.3452 574.141 93.3452C579.03 93.3452 583.692 94.4091 588.129 96.537C592.565 98.6645 596.096 101.494 598.722 105.025V92.2635L618.007 85.9453V169.807L598.722 158.671C596.369 162.383 593.064 165.371 588.808 167.634C584.553 169.898 579.618 171.029 574.005 171.029C567.666 171.029 561.872 169.4 556.621 166.14C551.369 162.881 547.227 158.286 544.194 152.355C541.161 146.425 539.644 139.612 539.644 131.916ZM598.722 83.0985V69.307H618.007V76.7803L598.722 83.0985ZM598.858 132.187C598.858 127.57 597.953 123.609 596.142 120.304C594.331 116.999 591.886 114.464 588.808 112.698C585.73 110.933 582.425 110.05 578.894 110.05C575.363 110.05 572.103 110.91 569.116 112.631C566.127 114.351 563.705 116.864 561.85 120.169C559.993 123.473 559.065 127.389 559.065 131.916C559.065 136.443 559.993 140.405 561.85 143.799C563.705 147.195 566.15 149.797 569.183 151.608C572.217 153.419 575.453 154.324 578.894 154.324C582.425 154.324 585.73 153.442 588.808 151.676C591.886 149.91 594.331 147.375 596.142 144.071C597.953 140.766 598.858 136.805 598.858 132.187Z" fill="#FEFEFE"/>
<path d="M358.935 104.347C358.935 109.416 357.735 114.17 355.335 118.606C352.936 123.043 349.178 126.619 344.063 129.335C338.947 132.052 332.496 133.409 324.709 133.409H308.82V141.716L289.806 147.945V75.0107H324.709C332.044 75.0107 338.291 76.2784 343.452 78.814C348.612 81.349 352.483 84.8344 355.064 89.2712C357.644 93.7076 358.935 98.7329 358.935 104.347ZM308.82 150.881V169.807H289.806V157.11L308.82 150.881ZM323.895 118.063C329.146 118.063 333.04 116.864 335.574 114.464C338.11 112.064 339.377 108.692 339.377 104.347C339.377 95.111 334.216 90.4935 323.895 90.4935H308.82V118.063H323.895Z" fill="#FEFEFE"/>
<path d="M408.234 227.916C410.679 223.932 413.87 220.808 417.809 218.545C421.748 216.281 426.252 215.15 431.322 215.15V235.114H426.298C420.322 235.114 415.817 236.517 412.785 239.324C409.751 242.131 408.234 247.02 408.234 253.992V259.435L389.221 265.665V216.236L408.234 227.916ZM408.234 268.601V291.476H389.221V274.83L408.234 268.601Z" fill="#FEFEFE"/>
</svg>
