<svg width="1850" height="350" viewBox="0 0 1850 350" fill="none" xmlns="http://www.w3.org/2000/svg">
<path d="M498.405 112.576C510.935 112.576 522.142 115.022 532.028 119.916C541.915 124.811 549.696 132.299 555.374 142.382C561.051 152.464 563.89 165.434 563.89 181.292V271.153H527.183V185.991C527.183 172.09 523.903 161.714 517.346 154.862C510.788 148.011 501.635 144.584 489.889 144.584C481.276 144.584 473.64 146.347 466.984 149.87C460.328 153.394 455.189 158.631 451.567 165.581C447.946 172.531 446.134 181.292 446.134 191.864V271.153H409.428V53.2542H446.134V156.625L438.206 143.704C443.688 133.718 451.665 126.034 462.139 120.651C472.612 115.267 484.701 112.576 498.405 112.576Z" fill="#332C2B"/>
<path d="M668.371 273.208C650.949 273.208 635.726 269.733 622.708 262.784C609.69 255.833 599.608 246.289 592.461 234.151C585.316 222.012 581.745 208.211 581.745 192.746C581.745 177.083 585.218 163.232 592.169 151.192C599.119 139.151 608.711 129.705 620.947 122.854C633.182 116.001 647.13 112.576 662.792 112.576C678.063 112.576 691.667 115.903 703.611 122.558C715.553 129.216 724.949 138.613 731.8 150.751C738.653 162.889 742.079 177.18 742.079 193.626C742.079 195.192 742.03 196.955 741.931 198.912C741.834 200.869 741.686 202.728 741.492 204.491H610.816V180.117H722.11L707.722 187.753C707.916 178.747 706.058 170.818 702.141 163.966C698.227 157.113 692.892 151.729 686.138 147.815C679.384 143.898 671.602 141.94 662.792 141.94C653.787 141.94 645.908 143.898 639.153 147.815C632.399 151.729 627.113 157.162 623.296 164.112C619.479 171.063 617.57 179.237 617.57 188.633V194.506C617.57 203.904 619.724 212.224 624.03 219.468C628.337 226.711 634.406 232.292 642.236 236.207C650.067 240.123 659.072 242.08 669.252 242.08C678.063 242.08 685.99 240.709 693.039 237.969C700.086 235.228 706.35 230.92 711.833 225.048L731.508 247.659C724.459 255.882 715.601 262.196 704.931 266.601C694.262 271.006 682.076 273.208 668.371 273.208Z" fill="#332C2B"/>
<path d="M850.084 112.576C862.613 112.576 873.821 115.022 883.708 119.916C893.594 124.81 901.375 132.298 907.052 142.382C912.731 152.464 915.569 165.434 915.569 181.292V271.153H878.863V185.991C878.863 172.09 875.583 161.714 869.025 154.862C862.467 148.011 853.315 144.584 841.568 144.584C832.954 144.584 825.319 146.347 818.663 149.87C812.007 153.394 806.868 158.631 803.246 165.58C799.624 172.531 797.814 181.292 797.814 191.864V271.153H761.108V114.336L796.052 156.624L789.885 143.704C795.367 133.718 803.344 126.034 813.818 120.651C824.292 115.267 836.38 112.576 850.084 112.576Z" fill="#332C2B"/>
<path d="M1017.41 330.179C1002.92 330.179 988.777 328.271 974.974 324.452C961.174 320.634 949.868 315.105 941.058 307.861L957.502 280.257C964.354 285.934 973.018 290.485 983.491 293.912C993.965 297.337 1004.59 299.051 1015.35 299.051C1032.58 299.051 1045.21 295.087 1053.23 287.157C1061.26 279.229 1065.27 267.335 1065.27 251.478V223.578L1068.21 188.047L1067.04 152.513L1101.98 114.336V247.367C1101.98 275.753 1094.74 296.653 1080.25 310.063C1065.76 323.474 1044.82 330.179 1017.41 330.179ZM1012.71 264.106C997.832 264.106 984.372 260.923 972.332 254.56C960.292 248.199 950.798 239.339 943.847 227.985C936.898 216.629 933.424 203.316 933.424 188.047C933.424 172.972 936.898 159.757 943.847 148.402C950.798 137.047 960.292 128.236 972.332 121.972C984.372 115.708 997.832 112.576 1012.71 112.576C1026.02 112.576 1037.96 115.217 1048.53 120.503C1059.11 125.789 1067.57 134.012 1073.94 145.171C1080.3 156.331 1083.48 170.622 1083.48 188.047C1083.48 205.47 1080.3 219.811 1073.94 231.067C1067.57 242.325 1059.11 250.645 1048.53 256.029C1037.96 261.412 1026.02 264.106 1012.71 264.106ZM1018.29 232.976C1027.49 232.976 1035.71 231.067 1042.96 227.251C1050.2 223.432 1055.83 218.146 1059.84 211.392C1063.85 204.638 1065.86 196.857 1065.86 188.047C1065.86 179.237 1063.85 171.454 1059.84 164.7C1055.83 157.945 1050.2 152.758 1042.96 149.136C1035.71 145.514 1027.49 143.704 1018.29 143.704C1009.09 143.704 1000.82 145.514 993.475 149.136C986.134 152.758 980.457 157.945 976.443 164.7C972.43 171.454 970.424 179.237 970.424 188.047C970.424 196.857 972.43 204.638 976.443 211.392C980.457 218.146 986.134 223.432 993.475 227.251C1000.82 231.067 1009.09 232.976 1018.29 232.976Z" fill="#332C2B"/>
<path d="M1133.93 271.153V114.336L1168.88 157.505L1164.76 144.878C1169.46 134.306 1176.85 126.279 1186.93 120.798C1197.02 115.315 1209.59 112.576 1224.67 112.576V147.52C1223.1 147.129 1221.63 146.884 1220.26 146.786C1218.89 146.689 1217.52 146.639 1216.15 146.639C1202.25 146.639 1191.19 150.702 1182.97 158.827C1174.75 166.951 1170.64 179.041 1170.64 195.094V271.153H1133.93Z" fill="#332C2B"/>
<path d="M1308.6 273.208C1292.54 273.208 1278.25 269.733 1265.72 262.784C1253.19 255.833 1243.31 246.289 1236.06 234.151C1228.82 222.012 1225.2 208.211 1225.2 192.746C1225.2 177.083 1228.82 163.232 1236.06 151.192C1243.31 139.151 1253.19 129.705 1265.72 122.854C1278.25 116.001 1292.54 112.576 1308.6 112.576C1324.84 112.576 1339.28 116.001 1351.91 122.854C1364.54 129.705 1374.42 139.103 1381.57 151.045C1388.71 162.988 1392.29 176.887 1392.29 192.746C1392.29 208.211 1388.71 222.012 1381.57 234.151C1374.42 246.289 1364.54 255.833 1351.91 262.784C1339.28 269.733 1324.84 273.208 1308.6 273.208ZM1308.6 241.786C1317.6 241.786 1325.63 239.829 1332.68 235.913C1339.72 231.998 1345.25 226.32 1349.27 218.881C1353.28 211.442 1355.29 202.728 1355.29 192.746C1355.29 182.564 1353.28 173.803 1349.27 166.463C1345.25 159.121 1339.72 153.492 1332.68 149.575C1325.63 145.661 1317.7 143.704 1308.89 143.704C1299.88 143.704 1291.91 145.661 1284.96 149.575C1278.01 153.492 1272.48 159.121 1268.37 166.463C1264.25 173.803 1262.2 182.564 1262.2 192.746C1262.2 202.728 1264.25 211.442 1268.37 218.881C1272.48 226.32 1278.01 231.998 1284.96 235.913C1291.91 239.829 1299.79 241.786 1308.6 241.786Z" fill="#332C2B"/>
<path d="M1441.56 271.153L1384.01 114.336H1418.66L1467.99 252.652H1451.55L1503.23 114.336H1534.06L1584.28 252.652H1568.13L1618.93 114.336H1651.52L1593.67 271.153H1558.44L1512.63 148.695H1523.49L1476.8 271.153H1441.56Z" fill="#332C2B"/>
<path d="M1749.55 112.576C1762.08 112.576 1773.28 115.022 1783.17 119.916C1793.06 124.81 1800.84 132.298 1806.51 142.382C1812.19 152.464 1815.03 165.434 1815.03 181.292V271.153H1778.33V185.991C1778.33 172.09 1775.05 161.714 1768.49 154.862C1761.93 148.011 1752.78 144.584 1741.03 144.584C1732.42 144.584 1724.78 146.347 1718.13 149.87C1711.47 153.394 1706.33 158.631 1702.71 165.58C1699.09 172.531 1697.28 181.292 1697.28 191.864V271.153H1660.57V114.336L1695.51 156.624L1689.35 143.704C1694.83 133.718 1702.81 126.034 1713.28 120.651C1723.75 115.267 1735.84 112.576 1749.55 112.576Z" fill="#332C2B"/>
<path fill-rule="evenodd" clip-rule="evenodd" d="M163.779 269.737C144.048 288.856 113.384 303.354 91.3132 303.44L85.077 303.462L88.0369 298.341C92.9832 289.779 110.047 273.148 120.96 266.252L131.266 259.74L111.95 258.742C82.7007 257.232 57.2164 249.789 31.9912 235.412C24.8207 231.326 18.3033 227.332 17.5071 226.534C15.8591 224.89 32.0893 219.509 47.8478 216.484C62.851 213.601 96.7058 213.976 111.362 217.184C118.059 218.64 123.728 219.666 123.961 219.423C124.203 219.154 119.184 214.963 112.83 210.028C81.4868 185.689 52.4295 143.679 38.7963 102.988C34.7051 90.7797 33.6203 85.5643 35.1694 85.5643C37.7631 85.5643 64.8218 98.1311 74.4078 103.789C101.135 119.56 127.479 143.59 145.125 168.293C150.274 175.501 154.061 179.924 153.542 178.123C150.03 165.949 148.514 149.928 148.501 124.88C148.484 93.2394 150.585 78.5823 159.188 50.3423C164.2 33.8918 178.121 2.01654 180.295 2.01654C181.929 2.01654 192.517 25.5856 197.348 39.9762C210.85 80.1985 214.711 129.853 207.336 168.401C205.968 175.549 204.849 182.095 204.849 182.947C204.849 183.81 209.006 178.419 214.089 170.99C237.081 137.382 271.983 108.525 309.086 92.444C328.477 84.0405 327.815 83.9735 325.169 94.0888C314.513 134.859 282.858 182.392 247.743 210.346C241.152 215.594 236.13 219.888 236.583 219.888C237.036 219.888 242.062 218.836 247.749 217.541C271.893 212.047 299.39 212.781 325.397 219.618C344.148 224.542 344.579 225.141 334.157 231.788C308.222 248.333 280.496 256.916 247.069 258.747L229.499 259.719L239.451 265.605C248.961 271.231 271.3 292.732 275.193 300.008C276.925 303.244 276.644 303.462 270.694 303.462C260.184 303.462 239.954 297.438 225.675 290.059C215.593 284.847 208.701 279.599 198.184 269.119L196.479 267.421V230.05H216.357L180.129 194.323L143.902 230.05H163.779V269.737Z" fill="#059033"/>
</svg>
