<svg width="216" height="216" viewBox="0 0 216 216" fill="none" xmlns="http://www.w3.org/2000/svg">
<path d="M108 113.76C104.785 113.773 101.664 114.84 99.1157 116.8C96.5673 118.759 94.7329 121.5 93.8945 124.604C93.0561 127.707 93.2601 130.999 94.4751 133.975C95.6902 136.951 97.849 139.445 100.62 141.075V162H115.56V141.075C117.752 139.778 119.571 137.937 120.841 135.729C122.11 133.521 122.787 131.022 122.805 128.475C122.805 126.535 122.421 124.614 121.676 122.823C120.931 121.032 119.839 119.406 118.463 118.038C117.087 116.67 115.454 115.588 113.658 114.854C111.863 114.12 109.94 113.748 108 113.76Z" stroke="black" stroke-width="5" stroke-linecap="round" stroke-linejoin="round"/>
<path d="M163.305 79.9651H52.65C41.9135 79.9651 33.21 88.6687 33.21 99.4051V176.31C33.21 187.046 41.9135 195.75 52.65 195.75H163.305C174.041 195.75 182.745 187.046 182.745 176.31V99.4051C182.745 88.6687 174.041 79.9651 163.305 79.9651Z" stroke="black" stroke-width="5" stroke-linecap="round" stroke-linejoin="round"/>
<path d="M60.0752 79.965V68.22C60.0752 55.4976 65.1292 43.2962 74.1253 34.3001C83.1214 25.304 95.3228 20.25 108.045 20.25C120.768 20.25 132.969 25.304 141.965 34.3001C150.961 43.2962 156.015 55.4976 156.015 68.22V79.965" stroke="black" stroke-width="5" stroke-linecap="round" stroke-linejoin="round"/>
</svg>
